<?xml version="1.0" standalone="no"?>
<!DOCTYPE svg PUBLIC "-//W3C//DTD SVG 20010904//EN"
 "http://www.w3.org/TR/2001/REC-SVG-20010904/DTD/svg10.dtd">
<svg version="1.0" xmlns="http://www.w3.org/2000/svg"
 width="300.000000pt" height="288.000000pt" viewBox="0 0 300.000000 288.000000"
 preserveAspectRatio="xMidYMid meet">
<metadata>
Created by potrace 1.10, written by Peter Selinger 2001-2011
</metadata>
<g transform="translate(0.000000,288.000000) scale(0.100000,-0.100000)"
fill="#000000" stroke="none">
<path d="M1320 2700 c-30 -4 -58 -6 -62 -4 -11 7 -180 -42 -238 -68 -132 -59
-229 -111 -264 -143 -22 -19 -42 -35 -46 -35 -12 0 -121 -109 -194 -195 -59
-69 -92 -120 -141 -220 -35 -71 -67 -146 -70 -165 -3 -19 -12 -60 -20 -90 -30
-112 -40 -261 -26 -383 6 -63 18 -134 26 -159 7 -26 16 -61 19 -80 9 -55 43
-132 128 -285 13 -23 38 -58 56 -78 17 -20 32 -40 32 -44 0 -7 41 -49 152
-154 52 -50 215 -155 261 -168 16 -5 39 -15 51 -22 39 -25 210 -76 307 -92 95
-15 269 -19 269 -7 0 4 31 8 68 9 68 2 244 53 324 94 21 11 38 17 38 13 0 -6
112 55 120 66 3 4 34 26 69 50 85 58 220 195 278 283 26 40 50 74 54 77 11 8
56 103 79 166 117 316 118 559 5 873 -26 75 -59 144 -76 165 -6 6 -32 45 -59
88 -50 77 -222 258 -245 258 -7 0 -18 7 -26 16 -14 18 -159 116 -159 109 0 -3
-26 8 -57 24 -72 35 -204 81 -243 84 -17 1 -30 5 -30 9 0 4 -15 6 -32 6 -18 0
-91 2 -163 5 -71 3 -155 2 -185 -3z m306 -38 c50 -6 112 -18 138 -27 27 -9 56
-18 65 -20 90 -19 257 -109 361 -195 30 -25 63 -52 74 -60 44 -34 161 -171
189 -221 7 -13 24 -42 38 -64 13 -22 23 -43 22 -47 -1 -3 4 -12 12 -18 8 -7
15 -19 15 -26 0 -8 4 -22 9 -32 10 -18 22 -50 26 -67 2 -5 12 -41 23 -80 22
-77 42 -218 42 -305 0 -53 -26 -245 -39 -287 -1 -2 -1 -4 -1 -5 0 -2 -8 -29
-19 -61 -33 -96 -73 -178 -121 -251 -25 -38 -49 -76 -55 -85 -45 -71 -209
-222 -300 -276 -27 -17 -59 -36 -70 -43 -11 -7 -31 -17 -45 -23 -14 -5 -38
-17 -55 -25 -38 -20 -162 -61 -223 -75 -106 -23 -291 -31 -387 -16 -27 4 -65
10 -84 12 -66 8 -233 67 -319 111 -142 75 -300 204 -377 309 -17 22 -33 42
-36 45 -9 7 -95 143 -97 153 -1 4 -8 20 -16 35 -39 76 -81 228 -97 356 -23
189 6 405 79 574 22 50 37 94 34 97 -3 3 -1 5 5 5 5 0 15 12 22 28 42 92 158
230 280 332 59 49 207 141 214 133 3 -3 18 4 34 16 58 41 255 96 387 108 39 3
72 7 74 8 5 4 109 -3 198 -13z"/>
<path d="M1420 2353 c-25 -14 -61 -37 -80 -52 -19 -15 -88 -62 -152 -105 -65
-44 -121 -89 -125 -100 -12 -38 -10 -57 10 -83 19 -24 19 -27 4 -53 -21 -35
-21 -64 -1 -96 15 -23 15 -26 0 -43 -9 -9 -16 -34 -16 -53 0 -28 7 -42 31 -62
17 -14 35 -26 40 -26 6 0 7 -5 4 -10 -4 -6 -3 -9 2 -8 4 1 34 -14 66 -35 31
-20 59 -37 62 -37 2 0 15 -10 28 -22 13 -13 38 -32 57 -43 18 -11 49 -30 69
-42 20 -13 45 -23 56 -23 26 0 172 91 203 125 25 30 29 77 7 98 -8 8 -11 17
-8 21 4 3 0 6 -7 6 -8 0 15 19 51 42 72 47 81 55 97 84 12 22 11 41 -1 61 -12
18 -17 54 -8 49 13 -8 91 73 91 94 0 36 -19 67 -61 101 -24 19 -39 27 -34 19
5 -8 -11 1 -35 21 -25 19 -55 42 -67 50 -12 8 -62 42 -111 75 -49 34 -98 64
-108 67 -11 4 -38 -5 -64 -20z m108 -38 c26 -19 112 -79 192 -133 136 -92 145
-100 142 -128 -4 -35 3 -30 -214 -169 l-177 -114 -103 72 c-57 40 -143 99
-191 131 -78 53 -87 63 -87 90 1 29 14 40 188 158 103 70 190 127 195 127 4 1
29 -15 55 -34z m-183 -537 l126 -88 164 110 c100 67 165 105 165 96 0 -42 -26
-67 -173 -165 l-156 -103 -175 121 c-97 67 -183 124 -191 127 -10 4 -15 20
-15 45 l0 38 64 -47 c36 -26 121 -86 191 -134z m-226 18 c9 -8 92 -67 185
-131 l169 -116 97 65 c54 36 100 63 102 60 3 -2 3 -16 0 -32 -3 -21 -22 -39
-94 -87 -50 -33 -95 -61 -99 -63 -5 -2 -88 51 -186 118 -98 68 -184 125 -190
127 -13 5 -19 73 -6 73 3 0 14 -6 22 -14z"/>
<path d="M1434 2262 c-22 -16 -96 -67 -166 -115 l-127 -86 30 -22 c30 -21 30
-21 52 -2 12 11 73 57 135 102 l113 82 37 -29 c20 -15 85 -61 145 -100 105
-71 108 -72 132 -56 25 16 33 34 15 34 -9 0 -182 115 -281 186 l-46 34 -39
-28z"/>
<path d="M1419 2117 c-24 -19 -74 -54 -111 -79 l-68 -46 31 -20 31 -19 85 63
85 63 67 -46 c36 -26 76 -55 88 -66 21 -18 22 -19 52 -1 17 10 31 21 30 24 0
6 -233 160 -241 160 -3 0 -25 -15 -49 -33z"/>
<path d="M1407 1969 c-50 -35 -60 -39 -74 -27 -12 9 -15 10 -9 0 8 -13 116
-89 140 -98 7 -3 46 15 85 40 66 43 89 62 58 50 -7 -2 -39 14 -70 36 -32 22
-61 40 -65 39 -4 0 -33 -18 -65 -40z m101 -18 c29 -25 28 -33 -6 -53 -22 -13
-32 -14 -40 -6 -7 7 -12 9 -12 5 0 -4 -9 1 -20 11 -21 17 -21 17 7 39 34 27
41 28 71 4z"/>
<path d="M1751 1379 c-17 -10 -31 -26 -31 -35 0 -12 -5 -14 -17 -9 -48 21 -73
18 -100 -13 -24 -28 -28 -30 -52 -18 -14 7 -46 12 -71 10 -25 -2 -52 -3 -60
-4 -8 0 -28 0 -45 0 -16 0 -37 -8 -46 -16 -16 -15 -20 -14 -39 4 -12 11 -28
18 -35 16 -6 -3 -23 10 -37 29 -24 30 -46 38 -89 28 -3 0 -14 -17 -25 -36 -10
-19 -22 -35 -27 -35 -4 0 -6 4 -3 8 4 8 -118 8 -140 1 -5 -2 -22 9 -36 24 -27
28 -49 33 -131 29 -43 -3 -87 -52 -87 -96 0 -20 6 -45 12 -56 10 -16 10 -24 0
-40 -17 -28 -15 -48 7 -71 28 -30 125 -38 175 -14 28 13 43 15 59 8 56 -26 73
-29 107 -19 19 6 40 14 46 18 7 5 25 1 40 -7 38 -19 46 -19 77 5 22 18 29 19
47 8 11 -7 20 -15 20 -18 0 -15 60 -8 83 10 31 24 29 24 57 0 13 -11 32 -20
44 -21 61 -3 114 4 134 17 21 14 26 14 48 0 18 -13 42 -15 102 -12 44 2 88 9
99 14 14 8 23 8 30 1 18 -18 98 -21 135 -6 29 12 36 12 56 -1 20 -13 27 -13
64 1 24 10 46 13 52 8 6 -4 23 -11 38 -13 30 -6 67 21 69 50 5 69 4 91 -7 117
-20 53 -51 70 -124 70 -36 0 -78 -7 -93 -15 -17 -8 -31 -10 -35 -4 -14 19 -95
25 -142 11 -22 -7 -25 -5 -26 18 -2 30 -27 61 -54 68 -10 3 -32 -4 -49 -14z
m69 -34 c17 -20 -3 -45 -37 -45 -25 0 -39 20 -29 45 3 8 16 15 29 15 14 0 30
-7 37 -15z m-630 -115 c0 -60 0 -113 0 -117 0 -4 -12 -7 -27 -7 l-28 0 -3 117
-3 117 31 0 30 0 0 -110z m-305 88 c3 -3 1 -17 -5 -32 -8 -23 -13 -25 -30 -16
-25 13 -72 9 -77 -6 -2 -7 18 -17 47 -24 62 -15 87 -45 73 -87 -12 -35 -72
-59 -123 -49 -51 9 -63 20 -55 45 5 17 11 20 28 14 34 -11 90 -9 94 4 3 7 -13
17 -39 23 -64 17 -88 36 -88 70 0 47 42 73 112 68 32 -2 60 -7 63 -10z m797
-25 c-3 -19 2 -23 23 -23 22 0 26 -4 23 -22 -2 -18 -9 -22 -26 -20 -21 3 -23
0 -20 -35 2 -31 7 -39 26 -41 35 -5 26 -46 -10 -50 -42 -5 -80 38 -76 85 2 23
-2 38 -10 41 -14 4 -16 42 -2 42 6 0 10 12 10 26 0 23 3 25 33 22 27 -2 31 -7
29 -25z m-607 -38 c50 -49 26 -133 -42 -150 -43 -10 -93 13 -109 51 -20 48
-18 62 15 95 39 39 100 41 136 4z m214 -27 c8 -27 17 -48 21 -48 3 0 14 23 24
50 16 44 21 50 47 50 16 0 29 -1 29 -3 0 -11 -67 -163 -73 -164 -4 -2 -19 -3
-35 -3 -25 0 -30 7 -57 77 -17 42 -32 80 -34 85 -2 5 12 8 30 6 30 -3 35 -8
48 -50z m266 27 c22 -21 25 -33 25 -90 l0 -65 -27 6 c-36 8 -34 9 -66 0 -55
-16 -103 50 -62 84 8 6 32 14 55 17 22 3 40 9 40 14 0 14 -39 20 -61 9 -17
-10 -23 -9 -30 1 -22 34 -6 46 64 48 28 1 44 -5 62 -24z m265 -64 l0 -88 -29
1 -30 1 -3 83 c-2 46 -1 86 1 88 2 2 17 4 33 4 l28 0 0 -89z m183 69 c55 -43
39 -128 -28 -150 -65 -22 -125 18 -125 82 0 77 90 117 153 68z m117 11 c0 -5
12 -5 28 1 68 26 106 -17 100 -113 -3 -52 -4 -53 -33 -53 -29 0 -29 1 -27 42
4 55 -5 82 -28 82 -26 0 -35 -18 -35 -74 0 -48 -1 -50 -29 -50 l-29 0 -1 87
-1 87 28 0 c15 0 27 -4 27 -9z"/>
<path d="M982 1218 c-27 -27 -3 -73 35 -66 27 5 25 72 -2 76 -11 1 -26 -3 -33
-10z"/>
<path d="M1477 1173 c-16 -15 -6 -34 15 -31 29 4 38 38 10 38 -10 0 -22 -3
-25 -7z"/>
<path d="M1911 1208 c-12 -31 4 -60 31 -56 29 4 46 33 32 56 -17 27 -53 27
-63 0z"/>
</g>
</svg>
