<?xml version="1.0" encoding="utf-8"?>
<!-- Generator: Adobe Illustrator 27.5.0, SVG Export Plug-In . SVG Version: 6.00 Build 0)  -->
<svg version="1.1" xmlns="http://www.w3.org/2000/svg" xmlns:xlink="http://www.w3.org/1999/xlink" x="0px" y="0px"
	 viewBox="0 0 700 500" style="enable-background:new 0 0 700 500;" xml:space="preserve">
<g id="Background_Simple">
	<g>
		<path style="fill:#92E3A9;" d="M662.464,362.926c0,0,34.18-130.254-0.924-199.538C626.436,94.104,546.067,52.534,465.697,52.534
			s-80.37,24.942-141.339,48.037c-60.97,23.095-104.388-30.485-174.596-19.399C79.554,92.256,25.051,121.818,22.279,180.94
			c-2.771,59.122,27.714,90.531,31.409,125.635c3.695,35.104-28.637,48.961-20.323,98.845s29.561,55.427,29.561,55.427h614.319
			c0,0,21.247-26.79,0.924-55.427C657.845,376.783,662.464,362.926,662.464,362.926z"/>
		<path style="opacity:0.7;fill:#FFFFFF;" d="M662.464,362.926c0,0,34.18-130.254-0.924-199.538
			C626.436,94.104,546.067,52.534,465.697,52.534s-80.37,24.942-141.339,48.037c-60.97,23.095-104.388-30.485-174.596-19.399
			C79.554,92.256,25.051,121.818,22.279,180.94c-2.771,59.122,27.714,90.531,31.409,125.635
			c3.695,35.104-28.637,48.961-20.323,98.845s29.561,55.427,29.561,55.427h614.319c0,0,21.247-26.79,0.924-55.427
			C657.845,376.783,662.464,362.926,662.464,362.926z"/>
	</g>
</g>
<g id="Picture">
	<g>
		
			<line style="fill:#FFFFFF;stroke:#263238;stroke-linecap:round;stroke-linejoin:round;stroke-miterlimit:10;" x1="469.369" y1="87.649" x2="469.369" y2="77.387"/>
		
			<line style="fill:#FFFFFF;stroke:#263238;stroke-linecap:round;stroke-linejoin:round;stroke-miterlimit:10;" x1="469.369" y1="460.177" x2="469.369" y2="96.664"/>
	</g>
	<g>
		
			<rect x="481" y="93" style="fill:none;stroke:#263238;stroke-linecap:round;stroke-linejoin:round;stroke-miterlimit:10;" width="45" height="72"/>
		
			<rect x="484.75" y="99" style="fill:none;stroke:#263238;stroke-linecap:round;stroke-linejoin:round;stroke-miterlimit:10;" width="37.5" height="60"/>
		
			<rect x="495.375" y="116" style="fill:none;stroke:#263238;stroke-linecap:round;stroke-linejoin:round;stroke-miterlimit:10;" width="16.25" height="26"/>
	</g>
</g>
<g id="Plants">
	<g>
		<path style="fill:none;stroke:#263238;stroke-width:2;stroke-linecap:round;stroke-linejoin:round;stroke-miterlimit:10;" d="
			M600.007,154.096c0,0-15.782-8.768-16.952,11.106c-1.169,19.874-4.092,244.071-4.092,244.071"/>
		<path style="fill:none;stroke:#263238;stroke-width:2;stroke-linecap:round;stroke-linejoin:round;stroke-miterlimit:10;" d="
			M574.859,166.953c0,0,12.873,123.659,7.028,240.566"/>
		<g>
			<path style="fill:#92E3A9;" d="M587.506,158.096c0,0-6.037,3.868-9.472-0.559c-3.435-4.427,2.324-12.536-2.752-16.004
				c-5.076-3.468-13.837,1.824-13.837,1.824s6.748,1.982,6.531,5.666s-3.468,5.076-3.901,3.466c-0.433-1.61-3.651-9.721-9.131-6.348
				c-5.48,3.373-6.317,8.604-6.317,8.604s12.754-1.36,13.527,3.439c0.773,4.798-5.231-0.837-10.494-1.147
				c-5.262-0.31-10.061,0.463-9.721,3.651c0.34,3.189-0.497,8.42-0.497,8.42s4.458-3.961,10.247-3.62
				c5.789,0.342,5.571,4.025,0.309,3.715c-5.262-0.311-9.783,4.703-9.783,4.703s4.797,8.204,10.894,12.26
				c6.097,4.056,8.295,2.602,9.008-0.525c0.713-3.126-0.927-11.144,2.757-10.927c3.684,0.217-6.101,13.898-1.396,14.704
				c4.705,0.806,8.482-0.556,9.72-3.651c1.239-3.095,1.239-3.095,1.239-3.095s-1.639-8.018-0.927-11.144
				c0.712-3.126,1.579,0.093,2.414,3.839c0.835,3.746,1.36,12.754,2.97,12.321c1.61-0.433,6.75-6.995,7.957-9.564
				c1.208-2.569-6.777-10.433-6.684-12.012c0.093-1.579,6.253,1.425,7.212,3.066c0.959,1.641,1.887,3.808,1.887,3.808
				s3.839-2.414,3.747-9.813C592.924,155.775,587.506,158.096,587.506,158.096z"/>
			<path style="opacity:0.3;fill:#263238;" d="M587.506,158.096c0,0-6.037,3.868-9.472-0.559
				c-3.435-4.427,2.324-12.536-2.752-16.004c-5.076-3.468-13.837,1.824-13.837,1.824s6.748,1.982,6.531,5.666
				s-3.468,5.076-3.901,3.466c-0.433-1.61-3.651-9.721-9.131-6.348c-5.48,3.373-6.317,8.604-6.317,8.604s12.754-1.36,13.527,3.439
				c0.773,4.798-5.231-0.837-10.494-1.147c-5.262-0.31-10.061,0.463-9.721,3.651c0.34,3.189-0.497,8.42-0.497,8.42
				s4.458-3.961,10.247-3.62c5.789,0.342,5.571,4.025,0.309,3.715c-5.262-0.311-9.783,4.703-9.783,4.703s4.797,8.204,10.894,12.26
				c6.097,4.056,8.295,2.602,9.008-0.525c0.713-3.126-0.927-11.144,2.757-10.927c3.684,0.217-6.101,13.898-1.396,14.704
				c4.705,0.806,8.482-0.556,9.72-3.651c1.239-3.095,1.239-3.095,1.239-3.095s-1.639-8.018-0.927-11.144
				c0.712-3.126,1.579,0.093,2.414,3.839c0.835,3.746,1.36,12.754,2.97,12.321c1.61-0.433,6.75-6.995,7.957-9.564
				c1.208-2.569-6.777-10.433-6.684-12.012c0.093-1.579,6.253,1.425,7.212,3.066c0.959,1.641,1.887,3.808,1.887,3.808
				s3.839-2.414,3.747-9.813C592.924,155.775,587.506,158.096,587.506,158.096z"/>
			<path style="fill:none;stroke:#263238;stroke-linecap:round;stroke-linejoin:round;stroke-miterlimit:10;" d="M556.901,175.443
				c3.937-4.867,9.739-11.452,14.601-14.595"/>
			<path style="fill:none;stroke:#263238;stroke-linecap:round;stroke-linejoin:round;stroke-miterlimit:10;" d="M552.337,181.368
				c0,0,1.011-1.406,2.649-3.511"/>
			<path style="fill:none;stroke:#263238;stroke-linecap:round;stroke-linejoin:round;stroke-miterlimit:10;" d="M574.071,162.056
				c0,0,5.849,8.266,6.931,16.779"/>
			<path style="fill:none;stroke:#263238;stroke-linecap:round;stroke-linejoin:round;stroke-miterlimit:10;" d="M567.445,166.946
				c0,0,1.641-0.96,1.02,9.565"/>
			<path style="fill:none;stroke:#263238;stroke-linecap:round;stroke-linejoin:round;stroke-miterlimit:10;" d="M571.719,157.165
				c0,0,3.344-2.971,1.58-8.884"/>
			
				<line style="fill:none;stroke:#263238;stroke-linecap:round;stroke-linejoin:round;stroke-miterlimit:10;" x1="567.199" y1="162.178" x2="564.816" y2="157.813"/>
			<path style="fill:none;stroke:#263238;stroke-linecap:round;stroke-linejoin:round;stroke-miterlimit:10;" d="M562.183,166.635
				c0,0-7.583-5.728-12.319-6.007"/>
		</g>
		<g>
			<path style="fill:#92E3A9;" d="M609.024,142.499c0,0-0.242,8.681-7.016,9.103c-6.774,0.422-10.968-10.872-17.9-8.154
				c-6.932,2.719-7.606,15.097-7.606,15.097s6.584-5.405,10.124-2.676c3.54,2.729,2.718,6.932,0.811,6.268
				c-1.907-0.664-12.221-2.97-12.579,4.815c-0.358,7.786,4.31,12.189,4.31,12.189s7.332-13.696,12.663-11.2
				c5.331,2.496-4.404,4.667-8.301,9.724c-3.898,5.057-6.394,10.388-2.97,12.221c3.424,1.833,8.091,6.236,8.091,6.236
				s-0.927-7.164,3.36-12.727c4.287-5.563,7.827-2.834,3.93,2.223c-3.898,5.057-1.959,13.001-1.959,13.001s11.483,0.79,19.701-2.551
				c8.217-3.34,8.259-6.532,5.615-9.377c-2.645-2.844-11.789-6.668-9.061-10.208c2.728-3.54,9.756,15.581,13.77,11.419
				c4.014-4.161,5.225-8.871,2.97-12.221c-2.255-3.35-2.255-3.35-2.255-3.35s-9.145-3.824-11.789-6.668
				c-2.644-2.844,1.169-1.517,5.489,0.2c4.32,1.717,13.696,7.332,14.36,5.425c0.663-1.907-2.403-11.525-4.152-14.486
				c-1.749-2.96-15.065-0.326-16.582-1.495c-1.517-1.169,5.689-5.289,7.985-5.131c2.297,0.158,5.099,0.705,5.099,0.705
				s0.2-5.489-7.27-10.44C610.393,135.493,609.024,142.499,609.024,142.499z"/>
			<path style="opacity:0.2;fill:#263238;" d="M609.024,142.499c0,0-0.242,8.681-7.016,9.103c-6.774,0.422-10.968-10.872-17.9-8.154
				c-6.932,2.719-7.606,15.097-7.606,15.097s6.584-5.405,10.124-2.676c3.54,2.729,2.718,6.932,0.811,6.268
				c-1.907-0.664-12.221-2.97-12.579,4.815c-0.358,7.786,4.31,12.189,4.31,12.189s7.332-13.696,12.663-11.2
				c5.331,2.496-4.404,4.667-8.301,9.724c-3.898,5.057-6.394,10.388-2.97,12.221c3.424,1.833,8.091,6.236,8.091,6.236
				s-0.927-7.164,3.36-12.727c4.287-5.563,7.827-2.834,3.93,2.223c-3.898,5.057-1.959,13.001-1.959,13.001s11.483,0.79,19.701-2.551
				c8.217-3.34,8.259-6.532,5.615-9.377c-2.645-2.844-11.789-6.668-9.061-10.208c2.728-3.54,9.756,15.581,13.77,11.419
				c4.014-4.161,5.225-8.871,2.97-12.221c-2.255-3.35-2.255-3.35-2.255-3.35s-9.145-3.824-11.789-6.668
				c-2.644-2.844,1.169-1.517,5.489,0.2c4.32,1.717,13.696,7.332,14.36,5.425c0.663-1.907-2.403-11.525-4.152-14.486
				c-1.749-2.96-15.065-0.326-16.582-1.495c-1.517-1.169,5.689-5.289,7.985-5.131c2.297,0.158,5.099,0.705,5.099,0.705
				s0.2-5.489-7.27-10.44C610.393,135.493,609.024,142.499,609.024,142.499z"/>
			<path style="fill:none;stroke:#263238;stroke-linecap:round;stroke-linejoin:round;stroke-miterlimit:10;" d="M605.531,184.966
				c-2.19-7.259-4.828-17.557-4.661-24.567"/>
			<path style="fill:none;stroke:#263238;stroke-linecap:round;stroke-linejoin:round;stroke-miterlimit:10;" d="M608.352,193.574
				c0,0-0.718-1.97-1.71-5.046"/>
			<path style="fill:none;stroke:#263238;stroke-linecap:round;stroke-linejoin:round;stroke-miterlimit:10;" d="M603.831,158.65
				c0,0,12.263-0.222,21.524,4.497"/>
			<path style="fill:none;stroke:#263238;stroke-linecap:round;stroke-linejoin:round;stroke-miterlimit:10;" d="M604.21,168.616
				c0,0,0.158-2.297,10.272,5.499"/>
			<path style="fill:none;stroke:#263238;stroke-linecap:round;stroke-linejoin:round;stroke-miterlimit:10;" d="M597.33,157.67
				c0,0-0.696-5.373-7.818-7.638"/>
			
				<line style="fill:none;stroke:#263238;stroke-linecap:round;stroke-linejoin:round;stroke-miterlimit:10;" x1="599.269" y1="165.614" x2="593.275" y2="165.024"/>
			<path style="fill:none;stroke:#263238;stroke-linecap:round;stroke-linejoin:round;stroke-miterlimit:10;" d="M600.313,173.673
				c0,0-10.904,3.688-14.412,8.24"/>
		</g>
		<path style="fill:none;stroke:#263238;stroke-width:2;stroke-linecap:round;stroke-linejoin:round;stroke-miterlimit:10;" d="
			M536.293,200.274c0,0,34.487,117.811,33.903,206.076"/>
		<g>
			<path style="fill:#92E3A9;" d="M578.815,194.251c0,0-1.098,9.994-8.955,9.842c-7.857-0.153-11.63-13.581-19.885-11.098
				c-8.256,2.482-10.201,16.703-10.201,16.703s8.108-5.615,11.935-2.133c3.827,3.482,2.482,8.256,0.345,7.31
				c-2.138-0.946-13.822-4.581-14.969,4.369c-1.148,8.95,3.822,14.472,3.822,14.472s9.753-15.112,15.669-11.728
				c5.916,3.384-5.522,4.97-10.497,10.438c-4.975,5.468-8.359,11.383-4.581,13.822c3.778,2.438,8.748,7.96,8.748,7.96
				s-0.394-8.354,5.078-14.368c5.473-6.014,9.3-2.532,4.325,2.936c-4.975,5.468-3.487,14.817-3.487,14.817
				s13.176,1.995,22.974-1.084c9.797-3.079,10.147-6.758,7.364-10.29c-2.783-3.532-12.974-8.807-9.492-12.635
				c3.483-3.827,9.788,18.9,14.812,14.477c5.024-4.423,6.867-9.743,4.581-13.822c-2.286-4.079-2.286-4.079-2.286-4.079
				s-10.191-5.275-12.974-8.807c-2.783-3.532,1.492-1.64,6.315,0.749c4.822,2.389,15.112,9.753,16.058,7.615
				c0.946-2.138-1.685-13.526-3.424-17.107c-1.739-3.581-17.354-1.798-18.994-3.29c-1.64-1.492,7.063-5.566,9.699-5.167
				c2.635,0.399,5.817,1.295,5.817,1.295s0.749-6.315-7.403-12.733C581.056,186.296,578.815,194.251,578.815,194.251z"/>
			<path style="opacity:0.3;fill:#263238;" d="M578.815,194.251c0,0-1.098,9.994-8.955,9.842
				c-7.857-0.153-11.63-13.581-19.885-11.098c-8.256,2.482-10.201,16.703-10.201,16.703s8.108-5.615,11.935-2.133
				c3.827,3.482,2.482,8.256,0.345,7.31c-2.138-0.946-13.822-4.581-14.969,4.369c-1.148,8.95,3.822,14.472,3.822,14.472
				s9.753-15.112,15.669-11.728c5.916,3.384-5.522,4.97-10.497,10.438c-4.975,5.468-8.359,11.383-4.581,13.822
				c3.778,2.438,8.748,7.96,8.748,7.96s-0.394-8.354,5.078-14.368c5.473-6.014,9.3-2.532,4.325,2.936
				c-4.975,5.468-3.487,14.817-3.487,14.817s13.176,1.995,22.974-1.084c9.797-3.079,10.147-6.758,7.364-10.29
				c-2.783-3.532-12.974-8.807-9.492-12.635c3.483-3.827,9.788,18.9,14.812,14.477c5.024-4.423,6.867-9.743,4.581-13.822
				c-2.286-4.079-2.286-4.079-2.286-4.079s-10.191-5.275-12.974-8.807c-2.783-3.532,1.492-1.64,6.315,0.749
				c4.822,2.389,15.112,9.753,16.058,7.615c0.946-2.138-1.685-13.526-3.424-17.107c-1.739-3.581-17.354-1.798-18.994-3.29
				c-1.64-1.492,7.063-5.566,9.699-5.167c2.635,0.399,5.817,1.295,5.817,1.295s0.749-6.315-7.403-12.733
				C581.056,186.296,578.815,194.251,578.815,194.251z"/>
			<path style="fill:none;stroke:#263238;stroke-linecap:round;stroke-linejoin:round;stroke-miterlimit:10;" d="M570.776,242.925
				c-1.841-8.583-3.914-20.715-3.059-28.788"/>
			<path style="fill:none;stroke:#263238;stroke-linecap:round;stroke-linejoin:round;stroke-miterlimit:10;" d="M573.219,253.124
				c0,0-0.643-2.341-1.497-5.984"/>
			<path style="fill:none;stroke:#263238;stroke-linecap:round;stroke-linejoin:round;stroke-miterlimit:10;" d="M571.298,212.398
				c0,0,14.171,0.901,24.412,7.221"/>
			<path style="fill:none;stroke:#263238;stroke-linecap:round;stroke-linejoin:round;stroke-miterlimit:10;" d="M570.796,223.934
				c0,0,0.399-2.635,11.334,7.315"/>
			<path style="fill:none;stroke:#263238;stroke-linecap:round;stroke-linejoin:round;stroke-miterlimit:10;" d="M563.89,210.654
				c0,0-0.296-6.266-8.3-9.551"/>
			
				<line style="fill:none;stroke:#263238;stroke-linecap:round;stroke-linejoin:round;stroke-miterlimit:10;" x1="565.378" y1="220.003" x2="558.516" y2="218.757"/>
			<path style="fill:none;stroke:#263238;stroke-linecap:round;stroke-linejoin:round;stroke-miterlimit:10;" d="M565.821,229.402
				c0,0-12.93,3.227-17.408,8.147"/>
		</g>
		<g>
			<path style="fill:#92E3A9;" d="M578.815,279.996c0,0-1.098,9.994-8.955,9.842c-7.857-0.153-11.63-13.581-19.885-11.098
				c-8.256,2.482-10.201,16.703-10.201,16.703s8.108-5.615,11.935-2.133c3.827,3.482,2.482,8.256,0.345,7.31
				c-2.138-0.946-13.822-4.581-14.969,4.369c-1.148,8.95,3.822,14.472,3.822,14.472s9.753-15.112,15.669-11.728
				c5.916,3.384-5.522,4.97-10.497,10.438c-4.975,5.468-8.359,11.383-4.581,13.822c3.778,2.438,8.748,7.96,8.748,7.96
				s-0.394-8.354,5.078-14.368c5.473-6.014,9.3-2.532,4.325,2.936c-4.975,5.468-3.487,14.817-3.487,14.817
				s13.176,1.995,22.974-1.084c9.797-3.079,10.147-6.758,7.364-10.29c-2.783-3.532-12.974-8.807-9.492-12.635
				c3.483-3.827,9.788,18.9,14.812,14.477c5.024-4.423,6.867-9.743,4.581-13.822c-2.286-4.079-2.286-4.079-2.286-4.079
				s-10.191-5.275-12.974-8.807c-2.783-3.532,1.492-1.64,6.315,0.749c4.822,2.389,15.112,9.753,16.058,7.615
				c0.946-2.138-1.685-13.526-3.424-17.107c-1.739-3.581-17.354-1.798-18.994-3.29c-1.64-1.492,7.063-5.566,9.699-5.167
				c2.635,0.399,5.817,1.296,5.817,1.296s0.749-6.315-7.403-12.733C581.056,272.041,578.815,279.996,578.815,279.996z"/>
			<path style="opacity:0.3;fill:#263238;" d="M578.815,279.996c0,0-1.098,9.994-8.955,9.842
				c-7.857-0.153-11.63-13.581-19.885-11.098c-8.256,2.482-10.201,16.703-10.201,16.703s8.108-5.615,11.935-2.133
				c3.827,3.482,2.482,8.256,0.345,7.31c-2.138-0.946-13.822-4.581-14.969,4.369c-1.148,8.95,3.822,14.472,3.822,14.472
				s9.753-15.112,15.669-11.728c5.916,3.384-5.522,4.97-10.497,10.438c-4.975,5.468-8.359,11.383-4.581,13.822
				c3.778,2.438,8.748,7.96,8.748,7.96s-0.394-8.354,5.078-14.368c5.473-6.014,9.3-2.532,4.325,2.936
				c-4.975,5.468-3.487,14.817-3.487,14.817s13.176,1.995,22.974-1.084c9.797-3.079,10.147-6.758,7.364-10.29
				c-2.783-3.532-12.974-8.807-9.492-12.635c3.483-3.827,9.788,18.9,14.812,14.477c5.024-4.423,6.867-9.743,4.581-13.822
				c-2.286-4.079-2.286-4.079-2.286-4.079s-10.191-5.275-12.974-8.807c-2.783-3.532,1.492-1.64,6.315,0.749
				c4.822,2.389,15.112,9.753,16.058,7.615c0.946-2.138-1.685-13.526-3.424-17.107c-1.739-3.581-17.354-1.798-18.994-3.29
				c-1.64-1.492,7.063-5.566,9.699-5.167c2.635,0.399,5.817,1.296,5.817,1.296s0.749-6.315-7.403-12.733
				C581.056,272.041,578.815,279.996,578.815,279.996z"/>
			<path style="fill:none;stroke:#263238;stroke-linecap:round;stroke-linejoin:round;stroke-miterlimit:10;" d="M570.776,328.67
				c-1.841-8.583-3.914-20.715-3.059-28.788"/>
			<path style="fill:none;stroke:#263238;stroke-linecap:round;stroke-linejoin:round;stroke-miterlimit:10;" d="M573.219,338.869
				c0,0-0.643-2.341-1.497-5.984"/>
			<path style="fill:none;stroke:#263238;stroke-linecap:round;stroke-linejoin:round;stroke-miterlimit:10;" d="M571.298,298.143
				c0,0,14.171,0.901,24.412,7.221"/>
			<path style="fill:none;stroke:#263238;stroke-linecap:round;stroke-linejoin:round;stroke-miterlimit:10;" d="M570.796,309.679
				c0,0,0.399-2.635,11.334,7.315"/>
			<path style="fill:none;stroke:#263238;stroke-linecap:round;stroke-linejoin:round;stroke-miterlimit:10;" d="M563.89,296.399
				c0,0-0.296-6.266-8.3-9.551"/>
			
				<line style="fill:none;stroke:#263238;stroke-linecap:round;stroke-linejoin:round;stroke-miterlimit:10;" x1="565.378" y1="305.748" x2="558.516" y2="304.502"/>
			<path style="fill:none;stroke:#263238;stroke-linecap:round;stroke-linejoin:round;stroke-miterlimit:10;" d="M565.821,315.146
				c0,0-12.93,3.227-17.408,8.147"/>
		</g>
		<path style="fill:none;stroke:#263238;stroke-width:2;stroke-linecap:round;stroke-linejoin:round;stroke-miterlimit:10;" d="
			M549.737,269.833c0,0,22.212,111.966,24.551,137.101l-4.676-179.188"/>
		<path style="fill:none;stroke:#263238;stroke-width:2;stroke-linecap:round;stroke-linejoin:round;stroke-miterlimit:10;" d="
			M603.514,257.558c-29.227-5.261-29.227,149.377-29.227,149.377"/>
		<path style="fill:none;stroke:#263238;stroke-width:2;stroke-linecap:round;stroke-linejoin:round;stroke-miterlimit:10;" d="
			M577.795,406.35c0,0-16.951-218.352,32.15-218.352"/>
		<g>
			<path style="fill:#92E3A9;" d="M592.378,254.013c-3.992-4.491-12.476-4.491-17.466,6.987c-4.99,11.478-0.499,9.482-0.499,9.482
				s9.482-2.994,15.47-4.99c5.989-1.996,13.973-6.986,14.472-3.992c0.499,2.994-3.992,5.988-9.482,6.986
				c-5.489,0.998-19.961,4.991-18.464,7.984c1.497,2.994,4.991,11.977,4.991,11.977s6.986-5.989,13.474-9.981
				c6.487-3.992,10.48-2.495,6.986,1.996c-3.493,4.491-13.474,9.482-11.478,15.47c1.996,5.989,13.973,13.474,13.973,13.474
				s1.497-12.476,4.99-16.468c3.493-3.992,3.493,0.499,2.495,7.486c-0.998,6.987-0.998,8.983-0.998,8.983l13.973,4.991
				c0,0,4.99-7.486,7.486-9.981c2.495-2.495,2.495-2.495,2.495-2.495s-10.979-9.482-11.478-15.47c-0.499-5.989,7.485,0,9.981,0.998
				c2.495,0.998,6.488,7.984,6.488,7.984s2.495-11.478,2.994-15.47c0.499-3.992,0.499-3.992,0.499-3.992s-10.48-3.992-14.472-3.992
				c-3.992,0-5.988,2.994-5.988-0.998s3.992-6.487,8.483-5.988c4.491,0.499,11.977,2.994,11.977,2.994s2.994-2.495,1.996-9.981
				c-0.998-7.485-3.493-7.485-9.482-5.489c-5.988,1.996-9.981,6.488-14.472,6.488c-4.491,0-1.996-5.49,0.998-6.987
				c2.994-1.497,10.48-4.491,11.977-4.99c1.497-0.499-7.984-7.486-12.975-8.484c-4.99-0.998-11.452,2.518-10.979,7.485
				C611.341,256.508,596.37,258.504,592.378,254.013z"/>
			<path style="fill:none;stroke:#263238;stroke-linecap:round;stroke-linejoin:round;stroke-miterlimit:10;" d="M624.502,305.395
				c0.149,1.503,0.255,3.008,0.313,4.51"/>
			<path style="fill:none;stroke:#263238;stroke-linecap:round;stroke-linejoin:round;stroke-miterlimit:10;" d="M614.477,269.57
				c3.504,8.1,7.558,19.268,9.393,30.923"/>
			<path style="fill:none;stroke:#263238;stroke-linecap:round;stroke-linejoin:round;stroke-miterlimit:10;" d="M612.68,265.564
				c-2.472-5.316-4.333-8.557-4.333-8.557s4.491-1.996,6.487-5.988c1.996-3.992,4.99-5.988,4.99-5.988"/>
			<path style="fill:none;stroke:#263238;stroke-linecap:round;stroke-linejoin:round;stroke-miterlimit:10;" d="M590.881,273.974
				c0,0,17.965-7.485,17.965-5.988"/>
			<path style="fill:none;stroke:#263238;stroke-linecap:round;stroke-linejoin:round;stroke-miterlimit:10;" d="M618.826,264.492
				c0,0,7.984-3.992,14.971-3.992"/>
			<path style="fill:none;stroke:#263238;stroke-linecap:round;stroke-linejoin:round;stroke-miterlimit:10;" d="M615.832,276.469
				c0,0-4.491,3.493-9.481,9.482c-4.99,5.988-6.987,11.478-6.987,11.478"/>
			<path style="fill:none;stroke:#263238;stroke-linecap:round;stroke-linejoin:round;stroke-miterlimit:10;" d="M621.322,278.465
				c0,0,10.48-2.994,15.969,1.996"/>
		</g>
		<g>
			<path style="fill:#92E3A9;" d="M640.305,211.036c-5.433-3.214-11.442-3.284-14.386-6.675c-2.944-3.392,2.837-5.106,5.93-3.827
				c3.093,1.28,10.262,4.969,11.62,5.773c1.358,0.803,0.418-10.936-2.1-15.359c-2.518-4.423-9.409-6.997-12.85-3.383
				c-7.259,7.624-18.581-2.373-17.807-8.332c0.774-5.959-4.787-12.365-16.726-8.609c-11.939,3.756-7.487,5.839-7.487,5.839
				s8.477,5.197,13.91,8.411c5.433,3.213,14.436,5.971,12.502,8.311c-1.934,2.34-7.139,0.911-11.491-2.58
				c-4.352-3.491-16.854-11.802-18.134-8.708c-1.28,3.093-5.773,11.62-5.773,11.62s9.102,1.35,16.37,3.632
				c7.268,2.282,8.755,6.278,3.073,6.584c-5.682,0.307-15.993-3.959-19.206,1.475c-3.214,5.433-1.015,19.384-1.015,19.384
				s10.403-7.048,15.707-7.028c5.305,0.021,1.913,2.965-4.017,6.791c-5.93,3.826-7.437,5.135-7.437,5.135l5.392,13.823
				c0,0,8.924-1.139,12.444-0.89c3.52,0.248,3.52,0.248,3.52,0.248s-0.037-14.506,4.158-18.809c4.195-4.303,4.907,5.652,5.789,8.191
				c0.882,2.538-1.776,10.133-1.776,10.133s10.303-5.64,13.645-7.881c3.342-2.24,3.342-2.24,3.342-2.24s-3.856-10.531-6.473-13.546
				c-2.617-3.015-6.187-2.559-3.172-5.176c3.015-2.617,7.516-1.238,10.084,2.481c2.567,3.719,5.591,11.007,5.591,11.007
				s3.847,0.625,8.845-5.035C647.373,216.133,645.738,214.249,640.305,211.036z M593.077,227.009
				c-3.992-1.996,5.489-5.988,5.489-5.988C602.06,220.521,597.07,229.005,593.077,227.009z M599.8,208.378
				c-1.702-0.851,3.404-2.553,3.404-2.553C610.578,207.244,601.502,209.229,599.8,208.378z"/>
			<path style="fill:none;stroke:#263238;stroke-linecap:round;stroke-linejoin:round;stroke-miterlimit:10;" d="M592.971,237.175
				c-1.038,1.098-2.104,2.165-3.201,3.193"/>
			<path style="fill:none;stroke:#263238;stroke-linecap:round;stroke-linejoin:round;stroke-miterlimit:10;" d="M613.451,206.119
				c-3.819,7.956-9.595,18.338-17.193,27.365"/>
			<path style="fill:none;stroke:#263238;stroke-linecap:round;stroke-linejoin:round;stroke-miterlimit:10;" d="M615.298,202.136
				c2.394-5.352,3.621-8.882,3.621-8.882s4.452,2.083,8.775,0.973c4.323-1.11,7.793-0.157,7.793-0.157"/>
			<path style="fill:none;stroke:#263238;stroke-linecap:round;stroke-linejoin:round;stroke-miterlimit:10;" d="M610.956,200.828
				c1.13-0.982-16.299-9.64-16.299-9.64"/>
			<path style="fill:none;stroke:#263238;stroke-linecap:round;stroke-linejoin:round;stroke-miterlimit:10;" d="M620.137,206.075
				c0,0,8.249,3.412,12.829,8.688"/>
			<path style="fill:none;stroke:#263238;stroke-linecap:round;stroke-linejoin:round;stroke-miterlimit:10;" d="M609.13,211.665
				c0,0-5.582-1.101-13.376-0.944c-7.794,0.157-13.247,2.249-13.247,2.249"/>
			<path style="fill:none;stroke:#263238;stroke-linecap:round;stroke-linejoin:round;stroke-miterlimit:10;" d="M611.222,217.119
				c0,0,9.131,5.951,8.961,13.367"/>
		</g>
		<g>
			<path style="fill:#92E3A9;" d="M562.76,280.183c-4.372-2.586-9.208-2.643-11.577-5.372c-2.369-2.729,2.283-4.109,4.772-3.079
				c2.489,1.03,8.258,3.999,9.351,4.645c1.093,0.647,0.337-8.801-1.69-12.36c-2.026-3.559-7.571-5.631-10.341-2.723
				c-5.842,6.135-14.953-1.909-14.33-6.705c0.623-4.796-3.852-9.951-13.46-6.928c-9.608,3.023-6.025,4.699-6.025,4.699
				s6.822,4.182,11.194,6.768s11.617,4.806,10.061,6.688c-1.556,1.883-5.745,0.733-9.248-2.076
				c-3.502-2.81-13.563-9.498-14.593-7.008c-1.03,2.49-4.645,9.351-4.645,9.351s7.325,1.086,13.174,2.922
				c5.849,1.836,7.045,5.052,2.473,5.299c-4.572,0.247-12.87-3.186-15.456,1.186c-2.586,4.372-0.816,15.6-0.816,15.6
				s8.371-5.672,12.64-5.656c4.269,0.016,1.54,2.386-3.233,5.465c-4.772,3.079-5.985,4.132-5.985,4.132l4.339,11.124
				c0,0,7.182-0.917,10.014-0.716c2.833,0.2,2.833,0.2,2.833,0.2s-0.03-11.674,3.346-15.137c3.376-3.462,3.949,4.549,4.659,6.592
				c0.71,2.043-1.43,8.155-1.43,8.155s8.292-4.539,10.981-6.342c2.69-1.803,2.69-1.803,2.69-1.803s-3.103-8.475-5.209-10.901
				c-2.106-2.426-4.979-2.06-2.553-4.166c2.426-2.106,6.048-0.996,8.115,1.996c2.066,2.993,4.499,8.858,4.499,8.858
				s3.096,0.503,7.118-4.052C568.449,284.286,567.132,282.769,562.76,280.183z M524.754,293.038
				c-3.213-1.606,4.418-4.819,4.418-4.819C531.983,287.817,527.967,294.644,524.754,293.038z M530.164,278.045
				c-1.369-0.685,2.739-2.054,2.739-2.054C538.838,277.132,531.534,278.73,530.164,278.045z"/>
			<path style="fill:none;stroke:#263238;stroke-linecap:round;stroke-linejoin:round;stroke-miterlimit:10;" d="M524.669,301.219
				c-0.835,0.884-1.693,1.742-2.576,2.569"/>
			<path style="fill:none;stroke:#263238;stroke-linecap:round;stroke-linejoin:round;stroke-miterlimit:10;" d="M541.15,276.227
				c-3.073,6.403-7.722,14.758-13.836,22.022"/>
			<path style="fill:none;stroke:#263238;stroke-linecap:round;stroke-linejoin:round;stroke-miterlimit:10;" d="M542.636,273.021
				c1.927-4.307,2.915-7.147,2.915-7.147s3.582,1.676,7.061,0.783c3.479-0.893,6.272-0.127,6.272-0.127"/>
			<path style="fill:none;stroke:#263238;stroke-linecap:round;stroke-linejoin:round;stroke-miterlimit:10;" d="M526.025,264.211
				c0,0,14.027,6.968,13.117,7.758"/>
			<path style="fill:none;stroke:#263238;stroke-linecap:round;stroke-linejoin:round;stroke-miterlimit:10;" d="M546.531,276.191
				c0,0,6.639,2.746,10.324,6.992"/>
			<path style="fill:none;stroke:#263238;stroke-linecap:round;stroke-linejoin:round;stroke-miterlimit:10;" d="M537.673,280.69
				c0,0-4.492-0.886-10.764-0.76c-6.272,0.127-10.661,1.81-10.661,1.81"/>
			<path style="fill:none;stroke:#263238;stroke-linecap:round;stroke-linejoin:round;stroke-miterlimit:10;" d="M539.355,285.079
				c0,0,7.349,4.789,7.212,10.757"/>
		</g>
		<g>
			<path style="fill:#92E3A9;" d="M544.932,197.777c0,0-5.489,3.992-8.983,0c-3.493-3.992,1.497-11.977-3.493-14.971
				c-4.99-2.994-12.975,2.495-12.975,2.495s6.487,1.497,6.487,4.99s-2.994,4.99-3.493,3.493c-0.499-1.497-3.992-8.983-8.983-5.49
				c-4.99,3.493-5.489,8.484-5.489,8.484s11.977-1.996,12.975,2.495c0.998,4.491-4.99-0.499-9.98-0.499
				c-4.991,0-9.482,0.998-8.983,3.992c0.499,2.994,0,7.985,0,7.985s3.992-3.992,9.482-3.992c5.49,0,5.49,3.493,0.499,3.493
				c-4.99,0-8.982,4.99-8.982,4.99s4.99,7.485,10.979,10.979c5.989,3.493,7.984,1.996,8.484-0.998
				c0.499-2.994-1.497-10.48,1.996-10.48c3.493,0-4.99,13.474-0.499,13.973c4.491,0.499,7.984-0.998,8.982-3.992
				c0.998-2.994,0.998-2.994,0.998-2.994s-1.996-7.486-1.497-10.48c0.499-2.994,1.497,0,2.495,3.493
				c0.998,3.493,1.996,11.977,3.493,11.478c1.497-0.499,5.988-6.986,6.986-9.482c0.998-2.495-6.986-9.482-6.986-10.979
				s5.988,0.998,6.986,2.495c0.998,1.497,1.996,3.493,1.996,3.493s3.493-2.495,2.994-9.482
				C549.922,195.282,544.932,197.777,544.932,197.777z"/>
			<path style="fill:none;stroke:#263238;stroke-linecap:round;stroke-linejoin:round;stroke-miterlimit:10;" d="M516.976,215.877
				c3.449-4.819,8.565-11.366,12.985-14.607"/>
			<path style="fill:none;stroke:#263238;stroke-linecap:round;stroke-linejoin:round;stroke-miterlimit:10;" d="M512.993,221.731
				c0,0,0.877-1.385,2.308-3.466"/>
			<path style="fill:none;stroke:#263238;stroke-linecap:round;stroke-linejoin:round;stroke-miterlimit:10;" d="M532.456,202.268
				c0,0,5.988,7.486,7.485,15.47"/>
			<path style="fill:none;stroke:#263238;stroke-linecap:round;stroke-linejoin:round;stroke-miterlimit:10;" d="M526.467,207.259
				c0,0,1.497-0.998,1.497,8.983"/>
			<path style="fill:none;stroke:#263238;stroke-linecap:round;stroke-linejoin:round;stroke-miterlimit:10;" d="M529.961,197.777
				c0,0,2.994-2.994,0.998-8.484"/>
			
				<line style="fill:none;stroke:#263238;stroke-linecap:round;stroke-linejoin:round;stroke-miterlimit:10;" x1="525.968" y1="202.768" x2="523.473" y2="198.775"/>
			<path style="fill:none;stroke:#263238;stroke-linecap:round;stroke-linejoin:round;stroke-miterlimit:10;" d="M521.477,207.259
				c0,0-7.486-4.99-11.977-4.99"/>
		</g>
		<g>
			<path style="fill:#92E3A9;" d="M599.588,329.654c0,0-5.489,3.992-8.983,0c-3.493-3.992,1.497-11.977-3.493-14.971
				c-4.99-2.994-12.975,2.495-12.975,2.495s6.487,1.497,6.487,4.99c0,3.493-2.994,4.99-3.493,3.493
				c-0.499-1.497-3.992-8.983-8.983-5.489c-4.99,3.493-5.489,8.484-5.489,8.484s11.977-1.996,12.975,2.495
				c0.998,4.491-4.99-0.499-9.98-0.499c-4.99,0-9.482,0.998-8.983,3.992c0.499,2.994,0,7.984,0,7.984s3.992-3.992,9.482-3.992
				c5.49,0,5.49,3.493,0.499,3.493c-4.99,0-8.982,4.99-8.982,4.99s4.99,7.485,10.979,10.979c5.989,3.493,7.985,1.996,8.484-0.998
				c0.499-2.994-1.497-10.48,1.996-10.48c3.493,0-4.99,13.474-0.499,13.973c4.491,0.499,7.984-0.998,8.983-3.992
				c0.998-2.994,0.998-2.994,0.998-2.994s-1.996-7.485-1.497-10.48c0.499-2.994,1.497,0,2.495,3.493
				c0.998,3.493,1.996,11.977,3.493,11.478c1.497-0.499,5.988-6.986,6.986-9.482c0.998-2.495-6.986-9.482-6.986-10.979
				s5.988,0.998,6.986,2.495c0.998,1.497,1.996,3.493,1.996,3.493s3.493-2.495,2.994-9.482
				C604.578,327.158,599.588,329.654,599.588,329.654z"/>
			<path style="fill:none;stroke:#263238;stroke-linecap:round;stroke-linejoin:round;stroke-miterlimit:10;" d="M571.632,347.754
				c3.449-4.819,8.565-11.366,12.985-14.607"/>
			<path style="fill:none;stroke:#263238;stroke-linecap:round;stroke-linejoin:round;stroke-miterlimit:10;" d="M567.649,353.607
				c0,0,0.877-1.385,2.308-3.466"/>
			<path style="fill:none;stroke:#263238;stroke-linecap:round;stroke-linejoin:round;stroke-miterlimit:10;" d="M587.112,334.145
				c0,0,5.988,7.486,7.485,15.47"/>
			<path style="fill:none;stroke:#263238;stroke-linecap:round;stroke-linejoin:round;stroke-miterlimit:10;" d="M581.123,339.135
				c0,0,1.497-0.998,1.497,8.983"/>
			<path style="fill:none;stroke:#263238;stroke-linecap:round;stroke-linejoin:round;stroke-miterlimit:10;" d="M584.617,329.654
				c0,0,2.994-2.994,0.998-8.484"/>
			
				<line style="fill:none;stroke:#263238;stroke-linecap:round;stroke-linejoin:round;stroke-miterlimit:10;" x1="580.624" y1="334.644" x2="578.129" y2="330.652"/>
			<path style="fill:none;stroke:#263238;stroke-linecap:round;stroke-linejoin:round;stroke-miterlimit:10;" d="M576.133,339.135
				c0,0-7.486-4.99-11.977-4.99"/>
		</g>
		
			<rect x="556.752" y="404.646" style="fill:#263238;stroke:#263238;stroke-width:2;stroke-linecap:round;stroke-linejoin:round;stroke-miterlimit:10;" width="38.579" height="55.531"/>
	</g>
</g>
<g id="Furniture">
	<g>
		
			<rect x="67.758" y="379.034" style="fill:#FFFFFF;stroke:#263238;stroke-linecap:round;stroke-linejoin:round;stroke-miterlimit:10;" width="283.9" height="81.142"/>
		
			<rect x="108.93" y="379.034" style="fill:#C9C9C9;stroke:#263238;stroke-linecap:round;stroke-linejoin:round;stroke-miterlimit:10;" width="274.36" height="81.142"/>
		<g>
			<g>
				<polyline style="fill:none;stroke:#263238;stroke-linecap:round;stroke-linejoin:round;stroke-miterlimit:10;" points="
					139.492,386.336 199.307,386.336 199.307,417.323 180.562,417.323 				"/>
				<polyline style="fill:none;stroke:#263238;stroke-linecap:round;stroke-linejoin:round;stroke-miterlimit:10;" points="
					176.391,417.323 115.385,417.323 115.385,386.336 135.641,386.336 				"/>
			</g>
			<g>
				<polyline style="fill:none;stroke:#263238;stroke-linecap:round;stroke-linejoin:round;stroke-miterlimit:10;" points="
					158.422,456.056 115.385,456.056 115.385,425.069 126.657,425.069 				"/>
				<polyline style="fill:none;stroke:#263238;stroke-linecap:round;stroke-linejoin:round;stroke-miterlimit:10;" points="
					131.47,425.069 199.307,425.069 199.307,456.056 163.877,456.056 				"/>
			</g>
			<g>
				<polyline style="fill:none;stroke:#263238;stroke-linecap:round;stroke-linejoin:round;stroke-miterlimit:10;" points="
					232.542,417.323 204.794,417.323 204.794,386.336 288.716,386.336 288.716,417.323 238.317,417.323 				"/>
			</g>
			<g>
				<polyline style="fill:none;stroke:#263238;stroke-linecap:round;stroke-linejoin:round;stroke-miterlimit:10;" points="
					247.943,425.069 288.716,425.069 288.716,456.056 204.794,456.056 204.794,425.069 242.809,425.069 				"/>
			</g>
			<g>
				<polyline style="fill:none;stroke:#263238;stroke-linecap:round;stroke-linejoin:round;stroke-miterlimit:10;" points="
					294.203,397.895 294.203,386.336 378.125,386.336 378.125,417.323 294.203,417.323 294.203,401.424 				"/>
			</g>
			<g>
				<polyline style="fill:none;stroke:#263238;stroke-linecap:round;stroke-linejoin:round;stroke-miterlimit:10;" points="
					302.49,425.069 378.125,425.069 378.125,456.056 294.203,456.056 294.203,425.069 299.602,425.069 				"/>
			</g>
		</g>
	</g>
	<g>
		<path style="fill:#92E3A9;stroke:#263238;stroke-linecap:round;stroke-linejoin:round;stroke-miterlimit:10;" d="M112.127,358.648
			c0,5.43-2.112,10.355-5.561,14.018c-4.215,4.486-10.43,7.056-17.224,6.308c-9.505-1.047-17.121-8.785-18.028-18.308
			c-0.607-6.29,1.645-12.065,5.617-16.187c0.841-0.888,1.776-1.701,2.776-2.421c3.075-2.224,4.832-5.841,4.832-9.635v-0.71
			c0-6.243-1.056-12.439-3.131-18.318h20.532l-0.159,0.467c-1.972,5.747-2.981,11.785-2.981,17.859v0.701
			c0,3.832,1.822,7.43,4.916,9.691C108.818,345.836,112.127,351.854,112.127,358.648z"/>
		<path style="fill:#92E3A9;stroke:#263238;stroke-linecap:round;stroke-linejoin:round;stroke-miterlimit:10;" d="M114.477,367.779
			c3.034,6.043,8.981,10.427,15.965,11.198c8.985,0.993,16.96-3.841,20.636-11.198H114.477z"/>
		<g>
			
				<rect x="157.034" y="334.042" style="fill:#263238;stroke:#263238;stroke-linecap:round;stroke-linejoin:round;stroke-miterlimit:10;" width="37.45" height="44.385"/>
			
				<rect x="166.664" y="334.042" style="fill:#263238;stroke:#263238;stroke-linecap:round;stroke-linejoin:round;stroke-miterlimit:10;" width="37.45" height="44.385"/>
			<g>
				
					<circle style="fill:#4F4F4F;stroke:#263238;stroke-linecap:round;stroke-linejoin:round;stroke-miterlimit:10;" cx="187.193" cy="346.541" r="9.259"/>
				<path style="fill:#263238;stroke:#263238;stroke-linecap:round;stroke-linejoin:round;stroke-miterlimit:10;" d="
					M190.067,346.541c0,1.587-1.286,2.874-2.873,2.874c-1.587,0-2.873-1.286-2.873-2.874c0-1.587,1.286-2.873,2.873-2.873
					C188.78,343.667,190.067,344.954,190.067,346.541z"/>
			</g>
			<g>
				
					<circle style="fill:#4F4F4F;stroke:#263238;stroke-linecap:round;stroke-linejoin:round;stroke-miterlimit:10;" cx="187.193" cy="367.932" r="9.259"/>
				
					<circle style="fill:#263238;stroke:#263238;stroke-linecap:round;stroke-linejoin:round;stroke-miterlimit:10;" cx="187.193" cy="367.932" r="2.873"/>
			</g>
		</g>
		<g>
			
				<line style="fill:none;stroke:#263238;stroke-linecap:round;stroke-linejoin:round;stroke-miterlimit:10;" x1="82.927" y1="317.779" x2="100.337" y2="317.779"/>
			
				<line style="fill:none;stroke:#263238;stroke-linecap:round;stroke-linejoin:round;stroke-miterlimit:10;" x1="83.869" y1="323.582" x2="99.396" y2="323.582"/>
			
				<line style="fill:none;stroke:#263238;stroke-linecap:round;stroke-linejoin:round;stroke-miterlimit:10;" x1="84.496" y1="329.384" x2="98.768" y2="329.384"/>
			
				<line style="fill:none;stroke:#263238;stroke-linecap:round;stroke-linejoin:round;stroke-miterlimit:10;" x1="84.339" y1="335.188" x2="98.925" y2="335.188"/>
			
				<line style="fill:none;stroke:#263238;stroke-linecap:round;stroke-linejoin:round;stroke-miterlimit:10;" x1="80.889" y1="340.991" x2="102.219" y2="340.991"/>
		</g>
		<path style="fill:#263238;stroke:#263238;stroke-linecap:round;stroke-linejoin:round;stroke-miterlimit:10;" d="M106.566,372.667
			c-4.215,4.486-10.43,7.056-17.224,6.308c-9.505-1.047-17.121-8.785-18.028-18.308c-0.607-6.29,1.645-12.065,5.617-16.187
			C78.959,351.331,85.669,366.246,106.566,372.667z"/>
	</g>
</g>
<g id="Table">
	<g>
		<path style="fill:#92E3A9;stroke:#263238;stroke-linecap:round;stroke-linejoin:round;stroke-miterlimit:10;" d="M232.477,358.115
			c5.846,11.643,17.305,20.09,30.761,21.577c17.312,1.913,32.678-7.402,39.762-21.577H232.477z"/>
		<g>
			<path style="fill:#263238;stroke:#263238;stroke-linecap:round;stroke-linejoin:round;stroke-miterlimit:10;" d="M358.213,378.05
				h-97.211v82.126h97.306v-81.962C358.307,378.124,358.265,378.05,358.213,378.05z M355.025,454.642h-90.741v-71.057h90.646
				c0.052,0,0.094,0.074,0.094,0.165V454.642z"/>
			<path style="fill:#263238;stroke:#263238;stroke-linecap:round;stroke-linejoin:round;stroke-miterlimit:10;" d="M290.745,378.05
				h-97.211v82.126h97.306v-81.962C290.84,378.124,290.797,378.05,290.745,378.05z M287.557,454.642h-90.741v-71.057h90.646
				c0.052,0,0.094,0.074,0.094,0.165V454.642z"/>
			<path style="fill:#FFFFFF;stroke:#263238;stroke-linecap:round;stroke-linejoin:round;stroke-miterlimit:10;" d="
				M361.304,385.345H191.149v-7.294h169.978c0.097,0,0.176,0.079,0.176,0.176V385.345z"/>
			<path style="fill:#263238;stroke:#263238;stroke-linecap:round;stroke-linejoin:round;stroke-miterlimit:10;" d="
				M361.304,385.345h-73.868v-7.294h73.692c0.097,0,0.176,0.079,0.176,0.176V385.345z"/>
		</g>
	</g>
</g>
<g id="TV">
	<g>
		<g>
			
				<rect x="61.197" y="136.975" style="fill:#263238;stroke:#263238;stroke-linecap:round;stroke-linejoin:round;stroke-miterlimit:10;" width="28.289" height="94.999"/>
			
				<rect x="66.035" y="136.975" style="fill:#263238;stroke:#263238;stroke-linecap:round;stroke-linejoin:round;stroke-miterlimit:10;" width="28.289" height="94.999"/>
			<g>
				
					<ellipse transform="matrix(0.887 -0.4618 0.4618 0.887 -59.8365 54.4531)" style="fill:#4F4F4F;stroke:#263238;stroke-linecap:round;stroke-linejoin:round;stroke-miterlimit:10;" cx="81.331" cy="149.474" rx="9.259" ry="9.259"/>
				<path style="fill:#263238;stroke:#263238;stroke-linecap:round;stroke-linejoin:round;stroke-miterlimit:10;" d="
					M84.204,149.474c0,1.587-1.286,2.873-2.873,2.873c-1.587,0-2.873-1.286-2.873-2.873c0-1.587,1.286-2.874,2.873-2.874
					C82.918,146.6,84.204,147.887,84.204,149.474z"/>
			</g>
			<g>
				
					<circle style="fill:#4F4F4F;stroke:#263238;stroke-linecap:round;stroke-linejoin:round;stroke-miterlimit:10;" cx="81.331" cy="170.865" r="9.259"/>
				
					<circle style="fill:#263238;stroke:#263238;stroke-linecap:round;stroke-linejoin:round;stroke-miterlimit:10;" cx="81.33" cy="170.865" r="2.873"/>
			</g>
			<g>
				
					<ellipse transform="matrix(0.887 -0.4618 0.4618 0.887 -80.3594 59.4757)" style="fill:#4F4F4F;stroke:#263238;stroke-linecap:round;stroke-linejoin:round;stroke-miterlimit:10;" cx="81.331" cy="193.914" rx="9.259" ry="9.259"/>
				<path style="fill:#263238;stroke:#263238;stroke-linecap:round;stroke-linejoin:round;stroke-miterlimit:10;" d="
					M84.204,193.914c0,1.587-1.286,2.873-2.873,2.873c-1.587,0-2.873-1.286-2.873-2.873c0-1.587,1.286-2.873,2.873-2.873
					C82.918,191.04,84.204,192.327,84.204,193.914z"/>
			</g>
			<g>
				
					<circle style="fill:#4F4F4F;stroke:#263238;stroke-linecap:round;stroke-linejoin:round;stroke-miterlimit:10;" cx="81.331" cy="215.305" r="9.259"/>
				<path style="fill:#263238;stroke:#263238;stroke-linecap:round;stroke-linejoin:round;stroke-miterlimit:10;" d="
					M84.204,215.305c0,1.587-1.286,2.874-2.873,2.874c-1.587,0-2.873-1.286-2.873-2.874c0-1.587,1.286-2.873,2.873-2.873
					C82.918,212.432,84.204,213.718,84.204,215.305z"/>
			</g>
		</g>
		<g>
			
				<rect x="360.11" y="136.975" style="fill:#263238;stroke:#263238;stroke-linecap:round;stroke-linejoin:round;stroke-miterlimit:10;" width="28.289" height="94.999"/>
			
				<rect x="364.948" y="136.975" style="fill:#263238;stroke:#263238;stroke-linecap:round;stroke-linejoin:round;stroke-miterlimit:10;" width="28.289" height="94.999"/>
			<g>
				
					<ellipse transform="matrix(0.9248 -0.3805 0.3805 0.9248 -28.273 155.9402)" style="fill:#4F4F4F;stroke:#263238;stroke-linecap:round;stroke-linejoin:round;stroke-miterlimit:10;" cx="380.244" cy="149.474" rx="9.259" ry="9.259"/>
				<path style="fill:#263238;stroke:#263238;stroke-linecap:round;stroke-linejoin:round;stroke-miterlimit:10;" d="
					M383.117,149.474c0,1.587-1.286,2.873-2.873,2.873c-1.587,0-2.873-1.286-2.873-2.873c0-1.587,1.286-2.874,2.873-2.874
					C381.831,146.6,383.117,147.887,383.117,149.474z"/>
			</g>
			<g>
				
					<circle style="fill:#4F4F4F;stroke:#263238;stroke-linecap:round;stroke-linejoin:round;stroke-miterlimit:10;" cx="380.244" cy="170.865" r="9.259"/>
				
					<circle style="fill:#263238;stroke:#263238;stroke-linecap:round;stroke-linejoin:round;stroke-miterlimit:10;" cx="380.244" cy="170.865" r="2.873"/>
			</g>
			<g>
				
					<ellipse transform="matrix(0.9248 -0.3805 0.3805 0.9248 -45.1839 159.2835)" style="fill:#4F4F4F;stroke:#263238;stroke-linecap:round;stroke-linejoin:round;stroke-miterlimit:10;" cx="380.244" cy="193.914" rx="9.259" ry="9.259"/>
				<path style="fill:#263238;stroke:#263238;stroke-linecap:round;stroke-linejoin:round;stroke-miterlimit:10;" d="
					M383.117,193.914c0,1.587-1.286,2.873-2.873,2.873c-1.587,0-2.873-1.286-2.873-2.873c0-1.587,1.286-2.873,2.873-2.873
					C381.831,191.04,383.117,192.327,383.117,193.914z"/>
			</g>
			<g>
				
					<circle style="fill:#4F4F4F;stroke:#263238;stroke-linecap:round;stroke-linejoin:round;stroke-miterlimit:10;" cx="380.244" cy="215.305" r="9.259"/>
				<path style="fill:#263238;stroke:#263238;stroke-linecap:round;stroke-linejoin:round;stroke-miterlimit:10;" d="
					M383.117,215.305c0,1.587-1.286,2.874-2.873,2.874c-1.587,0-2.873-1.286-2.873-2.874c0-1.587,1.286-2.873,2.873-2.873
					C381.831,212.432,383.117,213.718,383.117,215.305z"/>
			</g>
		</g>
		<g>
			<path style="fill:#263238;stroke:#263238;stroke-linecap:round;stroke-linejoin:round;stroke-miterlimit:10;" d="
				M317.857,303.112H146.45c-1.701,0-3.08-1.379-3.08-3.08v-11.596c0-1.701,1.379-3.08,3.08-3.08h171.407
				c1.701,0,3.08,1.379,3.08,3.08v11.596C320.937,301.733,319.558,303.112,317.857,303.112z"/>
			<path style="fill:#C9C9C9;stroke:#263238;stroke-linecap:round;stroke-linejoin:round;stroke-miterlimit:10;" d="
				M149.677,303.112h168.381c0.034,0,0.066-0.009,0.101-0.01v-5.549H149.677V303.112z"/>
		</g>
		<g>
			
				<rect x="118.136" y="122.741" style="fill:#263238;stroke:#263238;stroke-linecap:round;stroke-linejoin:round;stroke-miterlimit:10;" width="230.838" height="151.4"/>
			
				<rect x="124.678" y="128.348" style="fill:#C9C9C9;stroke:#263238;stroke-linecap:round;stroke-linejoin:round;stroke-miterlimit:10;" width="217.754" height="140.185"/>
			<g>
				<rect x="135.56" y="225.884" style="fill:#DBDBDB;" width="44.193" height="33.056"/>
				<rect x="187.609" y="225.884" style="fill:#DBDBDB;" width="44.193" height="33.056"/>
				<rect x="239.659" y="225.884" style="fill:#DBDBDB;" width="44.193" height="33.056"/>
				<rect x="291.708" y="225.884" style="fill:#DBDBDB;" width="44.193" height="33.056"/>
			</g>
			<rect x="136.885" y="135.173" style="fill:#7A7A7A;" width="198.02" height="83.11"/>
			<rect x="136.885" y="212.501" style="fill:#A6A6A6;" width="198.02" height="5.782"/>
			<polygon style="fill:#DBDBDB;" points="252.517,177.089 232.634,165.609 232.634,188.569 			"/>
		</g>
	</g>
</g>
<g id="Characters">
	<g>
		<g>
			<g>
				<path style="fill:#FFFFFF;stroke:#263238;stroke-linecap:round;stroke-linejoin:round;stroke-miterlimit:10;" d="
					M533.242,219.79c0,0-6.984,7.936-6.984,10.159s-1.905,4.444-1.905,4.444s-7.619,7.936-6.667,9.841
					c0.952,1.905,3.492,2.54,3.492,2.54s-4.762,15.238-1.905,17.143c2.857,1.905,11.111-0.318,11.111-0.318l-0.317,12.698
					c0,0,11.111-4.762,18.095-2.857c6.984,1.905,6.984,1.905,6.984,1.905s-0.952-10.794,0.318-12.698
					c1.27-1.905,15.873-8.889,17.778-19.048c1.905-10.159,0.952-20.317-9.206-26.032c-10.159-5.714-16.508-6.349-16.508-6.349
					s3.492-5.714-0.952-6.984c-4.444-1.27-16.19,2.857-16.825,8.254S533.242,219.79,533.242,219.79z"/>
				<path style="fill:#263238;stroke:#263238;stroke-linecap:round;stroke-linejoin:round;stroke-miterlimit:10;" d="
					M519.273,263.916c0,0,1.842-0.347,6.142-1.895s7.397-3.096,7.397-3.096l-2.064,12.042l-0.364-7.368
					C530.384,263.599,522.076,266.155,519.273,263.916z"/>
				<path style="fill:#263238;" d="M529.035,235.59c-0.35,1.374-1.19,2.346-1.877,2.171c-0.687-0.175-0.96-1.43-0.61-2.804
					c0.35-1.374,1.19-2.346,1.877-2.171C529.112,232.96,529.385,234.216,529.035,235.59z"/>
				<path style="fill:none;stroke:#263238;stroke-linecap:round;stroke-linejoin:round;stroke-miterlimit:10;" d="M526.258,229.948
					c0,0,3.81-3.81,5.079,0.317"/>
				<path style="fill:none;stroke:#263238;stroke-linecap:round;stroke-linejoin:round;stroke-miterlimit:10;" d="M522.448,250.583
					c0,0,5.079-0.952,7.936-4.762"/>
			</g>
			<path style="fill:#92E3A9;stroke:#263238;stroke-linecap:round;stroke-linejoin:round;stroke-miterlimit:10;" d="
				M573.559,295.345c0,0-6.984-14.286-14.603-19.048c-7.619-4.762-18.413-6.032-29.524-2.222
				c-11.111,3.81-19.682,20.635-20.952,25.397c-1.27,4.762-4.127,9.841-4.127,9.841h70.793L573.559,295.345z"/>
			<path style="fill:#263238;stroke:#263238;stroke-linecap:round;stroke-linejoin:round;stroke-miterlimit:10;" d="
				M573.241,243.599c1.905-10.159,0.952-20.317-9.206-26.032c-10.159-5.714-16.508-6.349-16.508-6.349s3.492-5.714-0.952-6.984
				c-4.444-1.27-16.19,2.857-16.825,8.254s3.492,7.301,3.492,7.301s5.079,2.222,7.302,2.222c2.222,0-4.444,5.397-4.444,7.936
				c0,2.54,5.714,5.397,5.714,5.397s-4.762,7.301-2.857,8.889c1.905,1.587,4.127,1.587,5.079,0.317
				c0.952-1.27,6.667-9.524,9.524-4.762c2.857,4.762-1.587,12.381-3.492,13.651c-1.905,1.27-6.349,1.905-6.349,1.905
				s4.464,8.107,11.119,10.877c0.067-1.636,0.247-3.005,0.627-3.575C556.734,260.742,571.337,253.758,573.241,243.599z"/>
		</g>
		<g>
			<g>
				<path style="fill:#263238;stroke:#263238;stroke-linecap:round;stroke-linejoin:round;stroke-miterlimit:10;" d="
					M366.969,264.019l24.993,21.661c0.365,0.316,0.858,0.442,1.33,0.34l3.419-0.743c1.235-0.268,1.633-1.831,0.677-2.658
					l-24.862-21.51c-0.345-0.298-0.805-0.428-1.255-0.353l-3.55,0.592C366.441,261.561,365.988,263.169,366.969,264.019z"/>
				<path style="fill:#FFFFFF;stroke:#263238;stroke-linecap:round;stroke-linejoin:round;stroke-miterlimit:10;" d="
					M406.249,318.581L394.1,285.248c0,0-0.623-3.738-1.246-4.673c-0.623-0.935-1.869-3.115-1.869-3.115s-1.869-7.477-2.804-7.477
					c-0.935,0-2.181,0.623-2.804,1.869c-0.623,1.246-0.623,6.853-0.623,6.853l-7.788-6.23c0,0-0.935,4.673-0.935,5.919
					s3.427,3.427,3.427,4.673c0,1.246,1.558,4.361,3.115,5.607c1.558,1.246,5.607,2.181,5.607,2.181l2.492,32.398l16.822-1.246
					L406.249,318.581z"/>
				<path style="fill:#92E3A9;stroke:#263238;stroke-linecap:round;stroke-linejoin:round;stroke-miterlimit:10;" d="
					M400.18,301.931c-4.741-0.344-8.532,1.214-10.944,2.65l1.436,18.672l16.822-1.246l-1.246-3.427L400.18,301.931z"/>
			</g>
			<g>
				<path style="fill:#FFFFFF;stroke:#263238;stroke-linecap:round;stroke-linejoin:round;stroke-miterlimit:10;" d="
					M460.861,223.281c0,0-5.079,7.619-5.079,9.841s-1.905,3.492-3.175,4.762c-1.27,1.27-5.397,0.635-5.397,3.81
					c0,3.175,4.127,8.889,4.127,8.889s-0.952,9.841,0.952,13.333c1.905,3.492,11.746,2.54,11.746,2.54l2.54,13.968
					c0,0,12.698-3.492,15.873-3.492c3.175,0,7.619,0,7.619,0l-0.635-14.921c0,0,4.127-5.397,4.127-15.873
					c0-10.476-19.048-24.762-23.492-25.397C465.623,220.107,460.861,223.281,460.861,223.281z"/>
				<path style="fill:#263238;stroke:#263238;stroke-linecap:round;stroke-linejoin:round;stroke-miterlimit:10;" d="
					M454.026,265.29c0,0,1.548,0,5.333-0.688c3.785-0.688,6.709-3.096,6.881-3.612c0.172-0.516-1.204,10.493-1.204,10.493l-1-5.027
					C464.036,266.456,455.918,267.526,454.026,265.29z"/>
				<path style="fill:none;stroke:#263238;stroke-linecap:round;stroke-linejoin:round;stroke-miterlimit:10;" d="M452.29,252.805
					c0,0,3.492,1.27,4.444-1.27"/>
				<path style="fill:#263238;" d="M457.658,238.277c-0.322,1.275-0.997,2.204-1.507,2.075c-0.51-0.129-0.662-1.267-0.34-2.542
					s0.997-2.204,1.507-2.075C457.827,235.864,457.98,237.002,457.658,238.277z"/>
				<path style="fill:none;stroke:#263238;stroke-linecap:round;stroke-linejoin:round;stroke-miterlimit:10;" d="M455.782,233.123
					c0,0,2.54-2.54,3.492,0.952"/>
			</g>
		</g>
		<path style="fill:#92E3A9;stroke:#263238;stroke-linecap:round;stroke-linejoin:round;stroke-miterlimit:10;" d="M493.242,275.345
			c0,0-10.794-3.492-20.635,0c-9.841,3.492-22.857,9.524-26.667,11.746c-3.809,2.222-9.206,5.714-10.159,8.571
			c-0.952,2.857-2.222,12.064-2.222,12.064h78.73c0,0-5.079-26.349-9.524-29.206C498.321,275.662,493.242,275.345,493.242,275.345z"
			/>
		<g>
			<path style="fill:#92E3A9;stroke:#263238;stroke-linecap:round;stroke-linejoin:round;stroke-miterlimit:10;" d="
				M404.691,310.481l-29.906,1.558c0,0-38.629-9.034-44.859-8.411c-6.23,0.623-1.246,15.265-1.558,23.053
				c-0.311,7.788,0.935,20.872,0.935,20.872h75.7L404.691,310.481z"/>
			<path style="fill:none;stroke:#263238;stroke-linecap:round;stroke-linejoin:round;stroke-miterlimit:10;" d="M340.281,307.607
				c6.233,1.13,14.052,2.723,17.37,4.12c5.919,2.492,15.576,5.607,15.576,5.607s21.184-3.115,28.037-3.738"/>
			<path style="fill:none;stroke:#263238;stroke-linecap:round;stroke-linejoin:round;stroke-miterlimit:10;" d="M331.484,306.12
				c0,0,2.13,0.328,5.211,0.856"/>
		</g>
		<g>
			<path style="fill:#FFFFFF;stroke:#263238;stroke-linecap:round;stroke-linejoin:round;stroke-miterlimit:10;" d="
				M438.959,290.544c0,0-33.956-2.181-35.202,2.181s-2.181,52.647-2.181,52.647h128.036l0.049-49.993c0,0-0.623-1.246-4.05-1.246
				c-3.427,0-31.513,0.773-31.513,0.773L438.959,290.544z"/>
			<path style="fill:#C9C9C9;stroke:#263238;stroke-linecap:round;stroke-linejoin:round;stroke-miterlimit:10;" d="
				M417.464,299.578c-1.995,1.425-6.336,39.345-7.061,45.794h119.209l0.049-49.126c-9.084,1.404-34.05,3.956-42.416,3.956
				C478.211,300.201,419.645,298.02,417.464,299.578z"/>
		</g>
		<g>
			<path style="fill:#FFFFFF;stroke:#263238;stroke-linecap:round;stroke-linejoin:round;stroke-miterlimit:10;" d="M541.761,293.97
				c0,0,78.281-4.361,86.692-4.361c8.411,0,9.657,2.492,11.215,5.607c1.558,3.115,1.246,6.23,1.246,7.165
				s-8.099,31.775-8.099,31.775H523.381l1.869-39.875L541.761,293.97z"/>
			<path style="fill:#C9C9C9;stroke:#263238;stroke-linecap:round;stroke-linejoin:round;stroke-miterlimit:10;" d="
				M640.914,302.381c0,0-0.935-3.427-4.361-3.427c-3.178,0-99.25,1.875-111.645,2.644l-1.526,32.558h109.433
				C632.814,334.157,640.914,303.316,640.914,302.381z"/>
		</g>
		<g>
			<path style="fill:#FFFFFF;stroke:#263238;stroke-linecap:round;stroke-linejoin:round;stroke-miterlimit:10;" d="
				M651.505,460.177H302.602V347.965c0-3.487,2.827-6.314,6.314-6.314h336.1c3.584,0,6.49,2.906,6.49,6.49V460.177z"/>
			<path style="fill:#FFFFFF;stroke:#263238;stroke-linecap:round;stroke-linejoin:round;stroke-miterlimit:10;" d="
				M624.238,357.924H420.066v-40.543c0-2.87,2.326-5.196,5.196-5.196h198.976V357.924z"/>
			<path style="fill:#263238;stroke:#263238;stroke-linecap:round;stroke-linejoin:round;stroke-miterlimit:10;" d="
				M633.474,341.651v-23.291c0-3.411-2.765-6.176-6.175-6.176H434.158c-2.682,0-4.856,2.174-4.856,4.856v24.61H406.78
				c-2.621,0-4.746,2.125-4.746,4.746v113.779H652v-112.46c0-3.35-2.716-6.066-6.065-6.066H633.474z"/>
		</g>
		<g>
			<path style="fill:#FFFFFF;stroke:#263238;stroke-linecap:round;stroke-linejoin:round;stroke-miterlimit:10;" d="
				M557.051,281.841c0,0-3.81-9.206-14.921-8.571c-11.111,0.635-12.063,7.302-14.286,14.286c-2.222,6.984-4.444,20.952-4.444,20.952
				s-44.762-15.873-46.349-16.825c-1.587-0.952-5.714-5.079-8.889-7.936c-3.175-2.857-7.619-3.175-10.794-1.905
				c-3.175,1.27-10.794,6.349-12.381,7.619c-1.587,1.27-1.587,1.905,0.318,2.222C447.21,292,455.464,292,455.464,292
				s5.714,1.27,8.571,3.492c2.857,2.222,8.571,2.857,8.571,2.857s20.317,16.19,28.889,22.54
				c8.571,6.349,25.714,17.143,29.841,17.143c4.127,0,9.524,0,10.794-3.175c1.27-3.175,14.921-45.714,14.921-45.714"/>
			<path style="fill:#92E3A9;stroke:#263238;stroke-linecap:round;stroke-linejoin:round;stroke-miterlimit:10;" d="
				M557.051,281.841c-1.293-2.296-5.956-9.084-14.921-8.571c-11.111,0.635-12.063,7.302-14.286,14.286
				c-0.881,2.768-1.761,6.634-2.504,10.292c2.643-1.328,7.076-2.457,13.932-1.086c6.455,1.291,10.687,3.975,13.296,6.303
				c1.983-6.145,4.369-13.334,4.974-15.218"/>
			
				<line style="fill:#FFFFFF;stroke:#263238;stroke-linecap:round;stroke-linejoin:round;stroke-miterlimit:10;" x1="538.717" y1="312.712" x2="541.527" y2="313.5"/>
			
				<line style="fill:#FFFFFF;stroke:#263238;stroke-linecap:round;stroke-linejoin:round;stroke-miterlimit:10;" x1="523.888" y1="308.552" x2="536.946" y2="312.215"/>
		</g>
		<path style="fill:#263238;stroke:#263238;stroke-linecap:round;stroke-linejoin:round;stroke-miterlimit:10;" d="M470.702,209.631
			c0,0-12.063,0-13.333,4.444c-1.27,4.444,8.571,27.301,10.476,29.524c1.905,2.222,5.079,13.016,9.206,16.19
			c4.127,3.175,9.206,4.762,9.206,4.762s4.127,7.302,0,14.921c-4.127,7.619-13.016,11.111-13.651,26.349
			c-0.635,15.238,11.428,22.222,17.778,23.492c6.349,1.27,12.063-4.762,12.063-4.762s-6.667-0.318-3.175-6.349
			c3.492-6.032,13.968-5.714,14.286-20.317c0.318-14.603-6.984-22.857-12.063-25.714c-5.079-2.857-9.206-8.571-9.206-8.571
			s9.206-6.349,12.698-15.238c3.492-8.889,4.444-20.317-1.27-30.477c-3.135-5.573-9.286-8.568-15.374-9.666
			C481.928,207.061,476.798,209.631,470.702,209.631z"/>
		<path style="fill:#FFFFFF;stroke:#263238;stroke-linecap:round;stroke-linejoin:round;stroke-miterlimit:10;" d="M467.528,246.456
			c0,0,3.174-7.302,6.984-5.079c3.81,2.222,0.318,12.381-1.905,13.333s-4.127-1.587-4.127-1.587"/>
	</g>
	
		<line style="fill:#FFFFFF;stroke:#263238;stroke-width:2;stroke-linecap:round;stroke-linejoin:round;stroke-miterlimit:10;" x1="29.557" y1="460.177" x2="687.676" y2="460.177"/>
</g>
</svg>
