<?xml version="1.0" encoding="utf-8"?>
<!-- Generator: Adobe Illustrator 27.5.0, SVG Export Plug-In . SVG Version: 6.00 Build 0)  -->
<svg version="1.1" xmlns="http://www.w3.org/2000/svg" xmlns:xlink="http://www.w3.org/1999/xlink" x="0px" y="0px"
	 viewBox="0 0 750 500" style="enable-background:new 0 0 750 500;" xml:space="preserve">
<g id="BACKGROUND">
	<rect style="fill:#FFFFFF;" width="750" height="500"/>
</g>
<g id="OBJECTS">
	<g>
		<path style="fill:#FFE5D6;" d="M316.805,434.162c-37.503-1.143-75.281-2.321-111.872-10.619
			c-36.591-8.298-72.348-24.276-98.473-51.206c-32.652-33.658-43.103-78.312-39.958-123.819
			c3.463-50.118,4.792-94.717,34.207-138.299c26.178-38.785,67.681-67.45,113.708-75.876c46.028-8.425,95.955,4.208,130.942,35.279
			c22.491,19.974,38.178,46.274,56.458,70.162c18.28,23.889,40.966,46.565,70.081,54.127c27.124,7.044,55.719-0.025,82.683-7.663
			c26.963-7.637,54.927-15.95,82.563-11.304c51.83,8.713,65.448,61.623,60.188,106.652c-5.592,47.86-29.219,94.741-69.752,122.156
			c-51.612,34.908-118.919,25.91-177.785,27.29C405.464,432.083,361.134,433.122,316.805,434.162z"/>
	</g>
	<g>
		<g>
			<path style="fill:#8C9E85;" d="M630.891,314.213L630.891,314.213c5.797,0,10.497-4.699,10.497-10.496v-1.677
				c0-5.435,4.406-9.841,9.841-9.841h0c5.435,0,9.841,4.406,9.841,9.841v14.426c0,5.797-4.7,10.496-10.497,10.496h-19.681V314.213z"
				/>
		</g>
		<g>
			<path style="fill:#8C9E85;" d="M603.624,346.808L603.624,346.808c-4.146,0-7.507-3.361-7.507-7.507v-1.199
				c0-3.887-3.151-7.038-7.038-7.038l0,0c-3.887,0-7.038,3.151-7.038,7.038v10.317c0,4.146,3.361,7.507,7.507,7.507h14.076V346.808z
				"/>
		</g>
		<g>
			<path style="fill:#A4B59D;" d="M604.867,389.651c-5.451-35.656-7.123-71.889-4.978-107.896c0.292-4.911,0.682-9.927,2.638-14.44
				c1.957-4.513,5.791-8.506,10.639-9.34c5.844-1.006,11.671,2.859,14.742,7.932c3.071,5.073,3.952,11.137,4.642,17.027
				c4.118,35.156,3.691,70.667,3.259,106.06L604.867,389.651z"/>
		</g>
		<g>
			<polygon style="fill:#F5AB84;" points="598.344,443.16 589.816,378.664 653.451,378.664 647.547,443.16 			"/>
		</g>
		<g>
			<path style="fill:#FFFFFF;" d="M610.81,278.671c-0.268,0-0.485-0.217-0.485-0.485v-5.303c0-0.268,0.217-0.485,0.485-0.485
				c0.268,0,0.485,0.217,0.485,0.485v5.303C611.294,278.454,611.077,278.671,610.81,278.671z"/>
		</g>
		<g>
			<path style="fill:#FFFFFF;" d="M616.932,291.08c-0.268,0-0.485-0.217-0.485-0.485v-3.718c0-0.268,0.217-0.485,0.485-0.485
				c0.268,0,0.485,0.217,0.485,0.485v3.718C617.417,290.863,617.2,291.08,616.932,291.08z"/>
		</g>
		<g>
			<path style="fill:#FFFFFF;" d="M626.555,303.326c-0.251,0-0.463-0.193-0.483-0.448l-0.386-5.033
				c-0.021-0.267,0.179-0.5,0.446-0.52c0.245-0.046,0.5,0.178,0.52,0.446l0.387,5.033c0.021,0.267-0.179,0.5-0.446,0.52
				C626.581,303.326,626.568,303.326,626.555,303.326z"/>
		</g>
		<g>
			<path style="fill:#FFFFFF;" d="M609.06,314.26c-0.268,0-0.485-0.217-0.485-0.485v-4.373c0-0.268,0.217-0.485,0.485-0.485
				c0.268,0,0.485,0.217,0.485,0.485v4.373C609.545,314.043,609.328,314.26,609.06,314.26z"/>
		</g>
		<g>
			<path style="fill:#FFFFFF;" d="M608.841,298.516c-0.268,0-0.485-0.217-0.485-0.485v-5.686c0-0.268,0.217-0.485,0.485-0.485
				c0.268,0,0.485,0.217,0.485,0.485v5.686C609.326,298.299,609.109,298.516,608.841,298.516z"/>
		</g>
		<g>
			<path style="fill:#FFFFFF;" d="M622.18,279.272c-0.268,0-0.485-0.217-0.485-0.485v-3.062c0-0.268,0.217-0.485,0.485-0.485
				c0.268,0,0.485,0.217,0.485,0.485v3.062C622.665,279.055,622.448,279.272,622.18,279.272z"/>
		</g>
		<g>
			<path style="fill:#FFFFFF;" d="M618.244,322.133c-0.26,0-0.475-0.205-0.485-0.466l-0.218-5.687
				c-0.009-0.267,0.199-0.492,0.467-0.503c0.261,0.005,0.492,0.2,0.503,0.467l0.218,5.685c0.009,0.268-0.199,0.493-0.466,0.504
				C618.256,322.133,618.249,322.133,618.244,322.133z"/>
		</g>
		<g>
			<path style="fill:#FFFFFF;" d="M625.46,331.099c-0.259,0-0.474-0.204-0.485-0.464l-0.219-5.03
				c-0.011-0.267,0.196-0.493,0.464-0.506c0.261-0.003,0.494,0.197,0.506,0.464l0.219,5.03c0.011,0.267-0.196,0.493-0.464,0.506
				C625.474,331.099,625.467,331.099,625.46,331.099z"/>
		</g>
		<g>
			<path style="fill:#FFFFFF;" d="M610.372,357.559c-0.268,0-0.485-0.217-0.485-0.485v-4.811c0-0.268,0.217-0.485,0.485-0.485
				c0.268,0,0.485,0.217,0.485,0.485v4.811C610.857,357.342,610.64,357.559,610.372,357.559z"/>
		</g>
		<g>
			<path style="fill:#FFFFFF;" d="M618.681,364.775c-0.257,0-0.472-0.202-0.484-0.46l-0.219-4.374
				c-0.013-0.268,0.192-0.495,0.459-0.509c0.309-0.031,0.496,0.193,0.509,0.459l0.219,4.374c0.013,0.268-0.192,0.495-0.459,0.509
				C618.697,364.775,618.689,364.775,618.681,364.775z"/>
		</g>
		<g>
			<path style="fill:#FFFFFF;" d="M613.214,335.909c-0.268,0-0.485-0.217-0.485-0.485v-2.842c0-0.268,0.217-0.485,0.485-0.485
				s0.485,0.217,0.485,0.485v2.842C613.699,335.693,613.482,335.909,613.214,335.909z"/>
		</g>
		<g>
			<path style="fill:#FFFFFF;" d="M623.054,352.311c-0.253,0-0.466-0.196-0.483-0.453l-0.219-3.28
				c-0.018-0.267,0.185-0.498,0.452-0.516c0.27-0.018,0.499,0.184,0.516,0.452l0.219,3.28c0.018,0.267-0.185,0.498-0.452,0.516
				C623.076,352.311,623.066,352.311,623.054,352.311z"/>
		</g>
		<g>
			<path style="fill:#FFFFFF;" d="M629.128,363.237c-0.024,0-0.047-0.002-0.071-0.005c-0.265-0.039-0.448-0.285-0.41-0.55
				l0.447-3.06c0.038-0.266,0.286-0.445,0.55-0.41c0.265,0.039,0.448,0.285,0.41,0.55l-0.447,3.06
				C629.572,363.064,629.364,363.237,629.128,363.237z"/>
		</g>
		<g>
			<path style="fill:#FFFFFF;" d="M642.955,321.258c-0.268,0-0.485-0.217-0.485-0.485v-3.936c0-0.268,0.217-0.485,0.485-0.485
				c0.268,0,0.485,0.217,0.485,0.485v3.936C643.44,321.041,643.223,321.258,642.955,321.258z"/>
		</g>
		<g>
			<path style="fill:#FFFFFF;" d="M649.296,312.984c-0.005,0-0.01,0-0.016,0c-0.268-0.009-0.477-0.233-0.469-0.501
				c0.037-1.098,0.074-1.766,0.11-2.434c0.037-0.662,0.073-1.324,0.109-2.412c0.009-0.267,0.204-0.463,0.501-0.469
				c0.268,0.009,0.477,0.233,0.469,0.501c-0.037,1.098-0.074,1.766-0.11,2.434c-0.037,0.662-0.073,1.324-0.109,2.412
				C649.772,312.778,649.557,312.984,649.296,312.984z"/>
		</g>
		<g>
			<path style="fill:#FFFFFF;" d="M653.888,317.031c-0.268,0-0.485-0.217-0.485-0.485v-6.488c0-0.268,0.217-0.485,0.485-0.485
				c0.268,0,0.485,0.217,0.485,0.485v6.488C654.373,316.814,654.156,317.031,653.888,317.031z"/>
		</g>
		<g>
			<path style="fill:#FFFFFF;" d="M649.515,300.703c-0.268,0-0.485-0.217-0.485-0.485v-1.531c0-0.268,0.217-0.485,0.485-0.485
				c0.268,0,0.485,0.217,0.485,0.485v1.531C650,300.486,649.783,300.703,649.515,300.703z"/>
		</g>
		<g>
			<path style="fill:#FFFFFF;" d="M587.847,341.814c-0.268,0-0.485-0.217-0.485-0.485v-2.843c0-0.268,0.217-0.485,0.485-0.485
				c0.268,0,0.485,0.217,0.485,0.485v2.843C588.332,341.597,588.115,341.814,587.847,341.814z"/>
		</g>
		<g>
			<path style="fill:#FFFFFF;" d="M592.257,346.404c-0.257,0-0.472-0.202-0.484-0.46l-0.219-4.373
				c-0.013-0.268,0.192-0.495,0.459-0.509c0.29-0.027,0.496,0.193,0.509,0.459l0.219,4.373c0.013,0.268-0.192,0.495-0.459,0.509
				C592.273,346.404,592.265,346.404,592.257,346.404z"/>
		</g>
		<g>
			<path style="fill:#FFFFFF;" d="M587.192,350.998c-0.268,0-0.485-0.217-0.485-0.485v-2.624c0-0.268,0.217-0.485,0.485-0.485
				c0.268,0,0.485,0.217,0.485,0.485v2.624C587.677,350.781,587.46,350.998,587.192,350.998z"/>
		</g>
		<g>
			<path style="fill:#FFFFFF;" d="M634.846,420.705c-0.112,0-0.224-0.039-0.315-0.117l-8.471-7.267
				c-5.564,2.268-9.809,4.689-12.618,7.198c-0.179,0.159-0.449,0.166-0.634,0.01l-6.992-5.83l-10.32,5.559
				c-0.234,0.125-0.53,0.039-0.657-0.197c-0.127-0.236-0.039-0.53,0.197-0.657l10.609-5.714c0.174-0.094,0.389-0.073,0.541,0.055
				l6.926,5.775c2.936-2.525,7.26-4.95,12.859-7.21c0.167-0.068,0.36-0.037,0.497,0.082l8.343,7.158
				c2.177-2.272,5.422-4.483,9.654-6.577c0.195-0.099,0.436-0.051,0.58,0.116l5.254,6.008c0.177,0.202,0.156,0.508-0.045,0.684
				c-0.2,0.175-0.507,0.156-0.684-0.045l-5.008-5.726c-4.171,2.095-7.317,4.293-9.354,6.537
				C635.109,420.651,634.977,420.705,634.846,420.705z"/>
		</g>
		<g>
			<path style="fill:#FFFFFF;" d="M634.846,426.829c-0.112,0-0.224-0.039-0.315-0.116l-8.471-7.268
				c-5.564,2.267-9.808,4.689-12.618,7.198c-0.179,0.159-0.449,0.166-0.634,0.01l-6.992-5.83l-10.32,5.559
				c-0.234,0.125-0.53,0.039-0.657-0.197c-0.127-0.236-0.039-0.53,0.197-0.657l10.609-5.714c0.174-0.093,0.389-0.073,0.541,0.055
				l6.926,5.775c2.937-2.526,7.26-4.95,12.859-7.209c0.167-0.068,0.36-0.037,0.497,0.081l8.343,7.158
				c2.176-2.273,5.421-4.484,9.654-6.578c0.195-0.098,0.436-0.05,0.58,0.116l5.254,6.008c0.177,0.202,0.156,0.508-0.045,0.684
				c-0.2,0.176-0.507,0.157-0.684-0.046l-5.008-5.726c-4.171,2.095-7.318,4.294-9.354,6.538
				C635.109,426.776,634.977,426.829,634.846,426.829z"/>
		</g>
		<g>
			<path style="fill:#FFFFFF;" d="M635.589,397.596c-0.106,0-0.213-0.035-0.302-0.105l-9.177-7.289
				c-6.033,2.273-10.637,4.702-13.684,7.22c-0.173,0.145-0.426,0.15-0.605,0.009l-7.584-5.854l-11.188,5.579
				c-0.238,0.121-0.53,0.023-0.65-0.218c-0.119-0.24-0.023-0.53,0.218-0.65l11.46-5.714c0.165-0.083,0.364-0.064,0.512,0.05
				l7.521,5.805c3.171-2.535,7.851-4.966,13.918-7.233c0.159-0.058,0.337-0.031,0.471,0.075l9.055,7.192
				c2.349-2.283,5.863-4.504,10.455-6.607c0.188-0.086,0.411-0.042,0.554,0.108l5.675,6.008c0.184,0.195,0.175,0.502-0.019,0.686
				c-0.195,0.186-0.502,0.174-0.686-0.019l-5.437-5.755c-4.533,2.105-7.951,4.313-10.16,6.567
				C635.841,397.547,635.715,397.596,635.589,397.596z"/>
		</g>
		<g>
			<path style="fill:#FFFFFF;" d="M635.589,403.72c-0.106,0-0.213-0.035-0.301-0.105l-9.178-7.289
				c-6.034,2.273-10.638,4.703-13.684,7.221c-0.173,0.144-0.426,0.15-0.605,0.009l-7.584-5.854l-11.188,5.578
				c-0.238,0.121-0.53,0.023-0.65-0.218c-0.119-0.24-0.023-0.53,0.218-0.65l11.46-5.713c0.165-0.083,0.364-0.065,0.512,0.05
				l7.521,5.805c3.171-2.535,7.85-4.967,13.918-7.233c0.159-0.058,0.337-0.03,0.471,0.075l9.055,7.192
				c2.349-2.282,5.863-4.503,10.455-6.607c0.188-0.089,0.411-0.044,0.554,0.107l5.675,6.008c0.184,0.195,0.175,0.502-0.019,0.686
				c-0.195,0.186-0.502,0.174-0.686-0.019l-5.437-5.755c-4.533,2.105-7.951,4.314-10.161,6.568
				C635.841,403.67,635.715,403.72,635.589,403.72z"/>
		</g>
	</g>
	<g>
		<g>
			<g>
				<path style="fill:#C49A6C;" d="M594.587,431.067h-4.849v-5.314c0-2.867-2.332-5.199-5.199-5.199h-44.115
					c-2.867,0-5.2,2.332-5.2,5.199v5.314h-4.849v-5.314c0-5.541,4.508-10.048,10.049-10.048h44.115
					c5.541,0,10.048,4.507,10.048,10.048V431.067z"/>
			</g>
			<g>
				<path style="fill:#876A4A;" d="M533.314,447.22L533.314,447.22c-3.42,0-6.193-2.773-6.193-6.193v-8.06
					c0-3.42,2.773-6.193,6.193-6.193l0,0c3.42,0,6.193,2.773,6.193,6.193v8.06C539.507,444.448,536.734,447.22,533.314,447.22z"/>
			</g>
			<g>
				<path style="fill:#876A4A;" d="M592.163,447.22L592.163,447.22c-3.42,0-6.193-2.773-6.193-6.193v-8.06
					c0-3.42,2.773-6.193,6.193-6.193l0,0c3.42,0,6.193,2.773,6.193,6.193v8.06C598.356,444.448,595.583,447.22,592.163,447.22z"/>
			</g>
		</g>
		<g>
			<g>
				<path style="fill:#C49A6C;" d="M219.866,431.067h-4.849v-5.314c0-2.867-2.333-5.199-5.2-5.199h-44.115
					c-2.867,0-5.199,2.332-5.199,5.199v5.314h-4.849v-5.314c0-5.541,4.508-10.048,10.049-10.048h44.115
					c5.541,0,10.049,4.507,10.049,10.048V431.067z"/>
			</g>
			<g>
				<path style="fill:#876A4A;" d="M158.592,447.22L158.592,447.22c-3.42,0-6.193-2.773-6.193-6.193v-8.06
					c0-3.42,2.773-6.193,6.193-6.193h0c3.42,0,6.193,2.773,6.193,6.193v8.06C164.785,444.448,162.012,447.22,158.592,447.22z"/>
			</g>
			<g>
				<path style="fill:#876A4A;" d="M217.441,447.22L217.441,447.22c-3.42,0-6.193-2.773-6.193-6.193v-8.06
					c0-3.42,2.773-6.193,6.193-6.193l0,0c3.42,0,6.193,2.773,6.193,6.193v8.06C223.634,444.448,220.861,447.22,217.441,447.22z"/>
			</g>
		</g>
		<g>
			<path style="fill:#C49A6C;" d="M564.906,418.885h-4.849V145.396c0-4.327-3.522-7.849-7.849-7.849H198.29
				c-4.328,0-7.849,3.521-7.849,7.849v273.489h-4.849V145.396c0-7.002,5.696-12.698,12.698-12.698h353.917
				c7.002,0,12.699,5.696,12.699,12.698V418.885z"/>
		</g>
	</g>
	<g>
		<g>
			<path style="fill:#7D406D;" d="M148.8,261.607c0.326,0.983,7.607,65.347,10.632,92.169c0.787,6.982-2.723,13.742-8.884,17.12
				l-65.421,35.869l-3.14-8.924l43.913-48.792l-12.987-92.802l31.555-2.436L148.8,261.607z"/>
		</g>
		<g>
			<path style="fill:#98464F;" d="M86.346,390.852l7.839,12.032l-8.979,15.869c0,0,2.225,14.5,2.226,14.503
				c1.107,7.214-3.47,10.336-8.315,4.991c-3.392-3.743-5.229-8.604-7.98-12.779c-2.899-4.401-5.799-8.802-8.698-13.204
				c-1.888-2.866-0.993-6.73,1.964-8.473L86.346,390.852z"/>
		</g>
		<g>
			<path style="fill:#905480;" d="M93.464,255.42c0,0-7.577,13.169,0,32.91c7.577,19.742,28.599,63.718,28.599,63.718l-5.927,85.488
				l15.411-2.287l19.801-82.935l-19.351-98.503L93.464,255.42z"/>
		</g>
		<g>
			<path style="fill:#FF633B;" d="M134.157,167.607c-2.889,0.034-27.603-3.711-27.922-2.744c2.547-7.74,5.094-15.479,7.642-23.219
				c4.745-14.417,13.657-25.963,28.481-31.228c-2.651,4.804-1.576,10.788,0.27,15.955c1.845,5.167,4.419,10.234,4.608,15.718
				c0.174,5.061-1.747,9.803-4.4,14.02c-2.28,3.624-7.56,7.518-8.618,11.497C134.199,167.606,134.178,167.607,134.157,167.607z"/>
		</g>
		<g>
			<path style="fill:#FF7642;" d="M131.857,91.211c-9.354-4.152-18.022-1.519-25.106,5.418c-3.687,3.611-6.496,6.604-7.264,11.643
				c-0.784,5.142-1.936,10.509-6.069,14.074c-2.937,2.533-6.846,3.628-10.042,5.825c-5.495,3.778-8.412,10.968-7.101,17.507
				c0.517,2.578,1.63,5.073,1.578,7.702c-0.088,4.514-3.556,8.235-7.223,10.868c-3.667,2.633-7.84,4.754-10.613,8.316
				c-3.816,4.903-4.251,11.822-2.446,17.767c2.212,7.284,7.33,14.318,13.178,19.146c7.53,6.217,17.702,8.516,27.461,8.183
				c15.341-0.523,31.274-8.2,37.736-22.124c3.292-7.093,4.67-11.743,0.499-18.675c-2.818-4.684-7.105-8.417-9.855-12.961
				c-3.211-5.306-3.452-13.332-2.423-19.248c0.851-4.896,2.833-9.586,5.709-13.636c2.748-3.869,7.025-5.965,9.177-10.241
				c3.446-6.846,5.75-14.734,2.164-21.906C139.154,95.529,135.777,92.951,131.857,91.211z"/>
		</g>
		<g>
			<polygon style="fill:#FFC494;" points="203.638,144.938 209.388,130.579 228.363,127.858 234.869,134.038 219.254,142.813 
				206.837,152.633 			"/>
		</g>
		<g>
			<path style="fill:#8C9E85;" d="M138.671,153.717l2.58,1.962l33.984,25.85l28.639-37.632l9.852,5.104l-27.581,50.979
				c-3.719,5.863-11.304,7.909-17.466,4.711l-30.007-15.572c-11.108-9.139-15.967-24.201-13.124-38.302
				c0.274-1.361,0.814-2.924,2.143-3.327c1.137-0.345,2.305,0.338,3.297,0.992C134.034,150.488,135.624,151.71,138.671,153.717z"/>
		</g>
		<g>
			<path style="fill:#A4B59D;" d="M90.156,254.352c-1.307,3.664,1.211,7.572,5.088,7.895l51.421,4.284
				c3.209,0.386,5.959-2.282,5.671-5.501l-3.124-34.892c-0.316-3.531-0.228-7.087,0.263-10.598l2.938-21.003
				c0.43-3.075,0.809-6.551,0.339-9.643c-0.459-3.015-2.16-4.934-3.908-7.463c-3.362-4.865-6.482-11.242-10.653-15.413
				c-2.411-3.487-4.822-6.974-7.231-10.462c-1.29-1.867-2.662-5.256-5.429-5.265c-0.085,0-15.042-0.048-15.042-0.048
				c-9.233-0.029-17.565,5.54-21.073,14.081l-0.093,0.227c-1.623,3.951-2.131,8.205-1.494,12.366
				c2.587,16.879,9.408,61.594,9.408,61.594L90.156,254.352z"/>
		</g>
		<g>
			<path style="fill:#FFC494;" d="M143.201,111.492c0.674,5.134,0.119,11.128,0.119,14.397c0,1.614-0.354,3.208-1.036,4.671
				l-3.221,6.906c-1.123,2.407-3.647,3.839-6.289,3.568l-4.952-0.508c-2.566-0.263,1.719,17.216-4.741,17.46
				c-1.289,0.049-2.538-0.429-3.703-0.983c-3.202-1.522-10.978-5.87-9.53-10.243c0.571-1.725,2.766-3.669,3.63-5.437
				c1.184-2.421,2.318-4.996,2.065-7.759c-0.454-4.964-4.247-7.431-6.89-10.992c-1.11-1.496-1.217-3.51-0.273-5.115
				c3.571-6.074,4.947,0.533,6.768,2.661c1.201,1.404,3.49,2.061,4.925,0.896c0.633-0.514,0.996-1.28,1.339-2.019
				c2.276-4.905,3.934-11.014,8.628-14.206c2.613-1.82,6.059-3.358,8.869-1.859C141.514,104.321,142.699,107.668,143.201,111.492z"
				/>
		</g>
	</g>
	<g>
		<path style="fill:#98464F;" d="M114.549,455.852l2.194-31.254l16.973,1.063l4.244,20.12c0,0,13.817,7.286,13.82,7.287
			c7.092,3.74,2.132,8.368-3.283,9.007c-4.945,0.583-9.903-0.618-14.834-0.733c-4.806-0.112-9.612-0.223-14.418-0.335
			C116.495,460.944,114.356,458.595,114.549,455.852z"/>
	</g>
	<g>
		<path style="fill:#FF7642;" d="M128.7,105.418c3.328,2.083,6.947,2.051,9.92,4.809c2.954,2.741,4.84,6.691,4.897,10.739
			c3.882-3.724,6.006-9.208,5.643-14.575c-0.573-8.477-5.478-12.203-12.317-15.493c-7.654-3.682-14.395-4.32-20.928,1.874
			c-0.576,0.546-1.154,1.199-1.192,1.992c-0.065,1.367,1.444,2.24,2.774,2.562C122.392,98.509,124.546,102.818,128.7,105.418z"/>
	</g>
	<g>
		<path style="fill:#FFC494;" d="M184.45,237.369l9.397,7.59c0,0,7.228,18.071,15.18,18.794l4.699-3.253v-13.011l-7.228-7.951
			c0,0,6.506,0,5.421-2.169c-1.084-2.169-8.28-2.169-8.28-2.169l-15.935-3.253L184.45,237.369z"/>
	</g>
	<g>
		<path style="fill:#A4B59D;" d="M111.997,164.227l27.905,36.275l52.376,31.354l-6.054,10.026l-52.977-20.779l-37.092-44.134
			c-2.869-3.414-3.179-8.299-0.764-12.048l0,0C99.197,159.01,107.71,158.654,111.997,164.227z"/>
	</g>
	<g>
		<path style="fill:#8C9E85;" d="M149.116,226.976c-2.7-0.849-5.399-1.704-8.103-2.539c-1.352-0.417-2.704-0.835-4.056-1.253
			c-1.208-0.373-2.514-0.909-3.796-0.925c-0.021-0.07-0.058-0.139-0.115-0.205c-10.601-12.226-20.841-24.747-30.586-37.667
			c-2.714-3.598-5.369-7.245-8.151-10.792c-0.206-0.262-0.646,0.08-0.462,0.357c4.447,6.708,9.428,13.09,14.355,19.45
			c4.967,6.412,10.048,12.735,15.232,18.973c2.916,3.509,5.863,6.991,8.861,10.43c0.197,0.226,0.445,0.202,0.631,0.069
			c1.068,0.748,2.489,1.059,3.714,1.454c1.347,0.435,2.695,0.87,4.042,1.305c2.694,0.87,5.395,1.719,8.094,2.575
			C149.562,228.457,149.899,227.223,149.116,226.976z"/>
	</g>
	<g>
		<path style="fill:#8C9E85;" d="M149.57,206.311c-1.857-1.406-3.77-2.705-5.707-3.999c-0.948-0.634-1.897-1.267-2.845-1.901
			c-0.474-0.317-0.948-0.635-1.42-0.955c-0.441-0.3-0.882-0.684-1.4-0.834c-0.33-1.004-0.818-1.971-1.25-2.933
			c-0.442-0.983-0.901-1.957-1.371-2.927c-0.958-1.975-1.952-3.932-2.981-5.871c-1.029-1.938-2.101-3.853-3.207-5.749
			c-1.12-1.92-2.21-3.914-3.538-5.699c-0.309-0.415-0.965-0.063-0.709,0.415c1.055,1.965,2.323,3.824,3.454,5.748
			c1.091,1.856,2.147,3.732,3.177,5.622c1.03,1.89,2.026,3.798,2.988,5.724c0.481,0.962,0.952,1.93,1.427,2.895
			c0.49,0.997,0.923,2.047,1.484,3.007c-0.047,0.102-0.062,0.215,0.02,0.324c0.327,0.43,0.795,0.671,1.245,0.96
			c0.512,0.329,1.022,0.658,1.531,0.991c0.954,0.623,1.909,1.246,2.863,1.869c1.976,1.29,3.947,2.56,5.996,3.73
			C149.604,206.884,149.81,206.492,149.57,206.311z"/>
	</g>
	<g>
		<g>
			<path style="fill:#6E5E4D;" d="M344.976,174.471h-66.511c-1.696,0-3.132-1.1-3.574-2.737c-0.442-1.637,0.245-3.31,1.711-4.164
				l20.712-12.065c0.034-0.02,0.07-0.038,0.107-0.054l5.692-2.428c6.23-2.242,13.033-2.242,19.209-0.02l5.686,2.045
				c0.074,0.026,0.144,0.062,0.21,0.106l18.812,12.536c1.389,0.925,1.974,2.556,1.49,4.153
				C348.036,173.439,346.645,174.471,344.976,174.471z M298.238,157.212l-20.66,12.035c-0.86,0.501-0.985,1.352-0.815,1.982
				c0.171,0.63,0.707,1.303,1.702,1.303h66.511c0.964,0,1.504-0.646,1.687-1.252c0.183-0.605,0.093-1.443-0.71-1.978l-18.714-12.47
				l-5.574-2.005c-5.753-2.069-12.09-2.069-17.843,0L298.238,157.212z"/>
		</g>
		<g>
			<path style="fill:#FF7642;" d="M276.038,311.053c-3.39-5.955-0.009-19.904,0.249-25.882c0.512-11.866,1.024-23.732,1.536-35.598
				l4.694-76.919c0.123-2.846,2.466-5.091,5.316-5.091h46.18c3.476,0,6.349,2.71,6.552,6.18c0,0,1.545,26.373,1.545,26.374
				c1.066,18.196,2.51,36.367,4.069,54.526c1.461,17.013,4.571,34.093,4.768,51.064c0.125,10.715-5.691,8.154-12.392,4.41
				c-9.709-5.423-11.619,1.324-19.411,4.996c-3.577,1.686-7.811,1.206-11.051-1.061c-6.483-4.536-11.537-7.365-17.8-4.402
				c-3.861,1.827-5.282,5.143-10.706,4.052C277.962,313.376,276.82,312.427,276.038,311.053z"/>
		</g>
		<g>
			<path style="fill:#6E5E4D;" d="M312.743,153.272c-0.536,0-0.97-0.434-0.97-0.97v-10.885c0-0.536,0.434-0.97,0.97-0.97
				c0.536,0,0.97,0.434,0.97,0.97v10.885C313.713,152.838,313.279,153.272,312.743,153.272z"/>
		</g>
		<g>
			<path style="fill:#6E5E4D;" d="M312.743,142.387c-3.674,0-6.662-2.989-6.662-6.662c0-3.674,2.989-6.662,6.662-6.662
				c2.548,0,4.835,1.418,5.97,3.702c0.238,0.48,0.043,1.062-0.437,1.3c-0.48,0.24-1.062,0.042-1.3-0.437
				c-0.805-1.619-2.426-2.625-4.232-2.625c-2.604,0-4.723,2.118-4.723,4.723c0,2.604,2.118,4.723,4.723,4.723
				c0.536,0,0.97,0.434,0.97,0.97S313.279,142.387,312.743,142.387z"/>
		</g>
		<g>
			<rect x="293.748" y="195.082" style="fill:#FF633B;" width="0.97" height="111.762"/>
		</g>
		<g>
			
				<rect x="332.149" y="195.072" transform="matrix(0.9998 -0.019 0.019 0.9998 -4.7074 6.3642)" style="fill:#FF633B;" width="0.97" height="111.782"/>
		</g>
		<g>
			
				<rect x="318.009" y="228.236" transform="matrix(0.9999 -0.015 0.015 0.9999 -4.0278 4.7941)" style="fill:#FF633B;" width="0.97" height="86.882"/>
		</g>
		<g>
			<path style="fill:#FFFFFF;" d="M279.87,304.997c-0.535,0-1.059-0.068-1.569-0.22c-1.691-0.503-3.021-1.874-3.953-4.079
				c-0.104-0.246,0.011-0.53,0.258-0.635c0.247-0.101,0.531,0.011,0.635,0.259c0.825,1.95,1.916,3.104,3.336,3.525
				c3.045,0.905,7.026-1.784,9.936-3.746c3.652-2.464,8.287-3.583,12.77-3.108c2.661,0.283,4.829,1.431,6.926,2.54
				c1.808,0.957,3.678,1.946,5.841,2.352c3.836,0.716,6.687-0.854,9.704-2.518c1.953-1.077,3.972-2.192,6.365-2.753
				c3.485-0.819,7.011-0.458,11.435,1.173c0.736,0.271,1.492,0.636,2.291,1.022c2.221,1.075,4.52,2.186,6.573,1.362
				c0.142-0.058,0.302-0.044,0.432,0.035c0.13,0.08,0.215,0.215,0.231,0.367l0.107,1.082c0.026,0.266-0.169,0.504-0.435,0.531
				c-0.268,0.015-0.504-0.169-0.53-0.436l-0.047-0.482c-2.271,0.585-4.641-0.565-6.752-1.586c-0.778-0.375-1.513-0.73-2.204-0.986
				c-4.234-1.56-7.59-1.91-10.878-1.139c-2.262,0.532-4.222,1.614-6.117,2.66c-3.034,1.675-6.17,3.407-10.352,2.622
				c-2.308-0.432-4.244-1.457-6.116-2.448c-2.108-1.116-4.1-2.169-6.576-2.433c-4.256-0.452-8.659,0.61-12.08,2.917
				C286.442,302.668,282.989,304.997,279.87,304.997z"/>
		</g>
	</g>
	<g>
		<g>
			<g>
				<g>
					<path style="fill:#A4B59D;" d="M448.652,280.609c-3.027,2.635-6.599,4.714-9.508,5.676c-4.708,1.555-4.113-1.258-5.221,3.924
						c-1.42,6.64,0,15.174,0,21.954c0,12.868,0,25.737,0,38.605c0,6.912-6.349,10.829-12.729,10.16
						c-3.153-0.329-6.03-2.028-8.939-3.472v-21.234c-2.814-1.412-5.659-2.58-8.844-2.06c-4.48,0.722-8.069,5.011-12.602,4.767
						c-3.514-0.191-6.338-3.089-9.661-4.151v21.234c-0.467-0.149-0.945-0.255-1.433-0.319c-2.569-0.329-5.085,0.722-7.41,1.858
						c-2.314,1.125-4.693,2.378-7.273,2.484c-4.873,0.202-7.549-4.937-7.549-9.268c0,0,0-64.561,0-64.561
						c0,1.368-23.853-5.604-25.036-13.734c-0.607-4.173,2.531-11.686,3.387-15.903c2.658-13.108,5.316-26.216,7.974-39.324
						c3.557-17.541,7.114-35.081,10.671-52.622c2.304-6.169,8.186-10.267,14.779-10.267h53.052c6.912,0,13.016,4.501,15.055,11.094
						c4.976,16.093,5.84,34.727,8.628,51.308c2.179,12.958,4.358,25.916,6.537,38.874c0.736,4.376,3.108,10.769,2.511,15.169
						C454.572,274.248,451.932,277.755,448.652,280.609z"/>
				</g>
				<g>
					
						<rect x="304.367" y="229.975" transform="matrix(0.043 -0.9991 0.9991 0.043 114.2001 580.1401)" style="fill:#8C9E85;" width="111.109" height="0.97"/>
				</g>
				<g>
					
						<rect x="429.778" y="174.838" transform="matrix(0.9978 -0.0658 0.0658 0.9978 -14.2245 28.7947)" style="fill:#8C9E85;" width="0.97" height="111.243"/>
				</g>
			</g>
			<g>
				<path style="fill:#A67B4C;" d="M412.254,154.324v181.653c-2.814-1.412-5.659-2.58-8.844-2.06
					c-4.48,0.722-8.069,5.011-12.602,4.767c-3.514-0.191-6.338-3.09-9.661-4.151v-180.21H412.254z"/>
			</g>
			<g>
				<path style="fill:#8C9E85;" d="M412.254,154.324v181.653c-2.814-1.412-5.659-2.58-8.844-2.06
					c-4.48,0.722-8.069,5.011-12.602,4.767c-3.514-0.191-6.338-3.09-9.661-4.151v-180.21H412.254z"/>
			</g>
		</g>
		<g>
			<g>
				<path style="fill:#6E5E4D;" d="M381.758,156.2c-0.376,0-0.735-0.221-0.892-0.59c-0.21-0.493,0.019-1.063,0.512-1.273
					l5.692-2.429c6.229-2.242,13.032-2.242,19.208-0.02l5.687,2.045c0.504,0.181,0.765,0.737,0.584,1.241
					c-0.183,0.504-0.735,0.766-1.242,0.584l-5.686-2.045c-5.752-2.069-12.09-2.068-17.844,0l-5.639,2.408
					C382.015,156.175,381.885,156.2,381.758,156.2z"/>
			</g>
			<g>
				<path style="fill:#6E5E4D;" d="M396.701,152.159c-0.536,0-0.97-0.434-0.97-0.97v-10.885c0-0.536,0.434-0.97,0.97-0.97
					s0.97,0.434,0.97,0.97v10.885C397.671,151.725,397.237,152.159,396.701,152.159z"/>
			</g>
			<g>
				<path style="fill:#6E5E4D;" d="M396.701,141.274c-3.674,0-6.662-2.989-6.662-6.662c0-3.674,2.988-6.662,6.662-6.662
					c2.548,0,4.835,1.418,5.969,3.701c0.239,0.48,0.043,1.062-0.437,1.3c-0.482,0.24-1.062,0.042-1.301-0.437
					c-0.804-1.619-2.426-2.625-4.232-2.625c-2.604,0-4.723,2.118-4.723,4.723c0,2.604,2.119,4.723,4.723,4.723
					c0.536,0,0.97,0.434,0.97,0.97C397.671,140.84,397.237,141.274,396.701,141.274z"/>
			</g>
		</g>
	</g>
	<g>
		<g>
			<g>
				<path style="fill:#C49A6C;" d="M534.712,233.213h-19.599v43.327c0,5.616-4.544,10.16-10.16,10.16h-56.11
					c-5.616,0-10.171-4.544-10.171-10.16v-43.327h-23.368c-2.463,0-4.172-2.463-3.323-4.777l23.686-63.722
					c2.304-6.168,8.186-10.266,14.779-10.266h53.052c6.912,0,13.016,4.502,15.055,11.095l19.535,63.085
					C538.799,230.899,537.1,233.213,534.712,233.213z"/>
			</g>
			<g>
				
					<rect x="412.055" y="203.767" transform="matrix(0.084 -0.9965 0.9965 0.084 200.5488 626.6608)" style="fill:#A67B4C;" width="58.12" height="0.97"/>
			</g>
			<g>
				
					<rect x="510.972" y="175.064" transform="matrix(0.9921 -0.1254 0.1254 0.9921 -21.5721 65.7347)" style="fill:#A67B4C;" width="0.97" height="58.375"/>
			</g>
			<g>
				<path style="fill:#A67B4C;" d="M496.098,155.774c0,10.479-8.493,18.972-18.972,18.972c-10.468,0-18.962-8.493-18.962-18.972
					c0-0.446,0.011-0.892,0.053-1.327h37.828C496.088,154.882,496.098,155.328,496.098,155.774z"/>
			</g>
			<g>
				<path style="fill:#FFFFFF;" d="M487.372,260.707c-16.527,0-33.05-2.518-48.819-7.505c-0.256-0.081-0.397-0.353-0.316-0.608
					c0.08-0.257,0.354-0.395,0.608-0.316c24.384,7.71,50.588,9.488,75.787,5.131c0.258-0.044,0.514,0.132,0.561,0.396
					c0.045,0.263-0.132,0.514-0.396,0.561C505.743,259.928,496.555,260.707,487.372,260.707z"/>
			</g>
			<g>
				<path style="fill:#FFFFFF;" d="M483.938,268.874c-15.729,0-31.501-3.152-45.785-9.356c-0.245-0.107-0.358-0.393-0.252-0.638
					c0.107-0.246,0.394-0.354,0.638-0.252c23.706,10.297,51.55,12.116,76.393,4.99c0.26-0.079,0.526,0.075,0.6,0.332
					s-0.075,0.526-0.333,0.6C505.115,267.443,494.535,268.874,483.938,268.874z"/>
			</g>
		</g>
		<g>
			<g>
				<path style="fill:#6E5E4D;" d="M458.218,157.54c-0.398,0-0.77-0.246-0.913-0.642c-0.181-0.504,0.08-1.059,0.584-1.241
					l9.664-3.475c6.179-2.223,12.981-2.222,19.156,0l9.664,3.475c0.505,0.181,0.766,0.737,0.585,1.241
					c-0.182,0.503-0.739,0.767-1.241,0.584l-9.665-3.475c-5.753-2.069-12.091-2.069-17.843,0l-9.664,3.475
					C458.438,157.522,458.327,157.54,458.218,157.54z"/>
			</g>
			<g>
				<path style="fill:#6E5E4D;" d="M477.132,152.452c-0.536,0-0.97-0.434-0.97-0.97v-10.885c0-0.536,0.434-0.97,0.97-0.97
					s0.97,0.434,0.97,0.97v10.885C478.102,152.018,477.668,152.452,477.132,152.452z"/>
			</g>
			<g>
				<path style="fill:#6E5E4D;" d="M477.132,141.568c-3.674,0-6.662-2.989-6.662-6.662c0-3.674,2.988-6.662,6.662-6.662
					c2.548,0,4.835,1.418,5.969,3.701c0.239,0.48,0.043,1.062-0.437,1.3c-0.482,0.24-1.063,0.043-1.301-0.437
					c-0.804-1.619-2.426-2.624-4.232-2.624c-2.604,0-4.722,2.118-4.722,4.722c0,2.604,2.119,4.723,4.722,4.723
					c0.536,0,0.97,0.434,0.97,0.97S477.668,141.568,477.132,141.568z"/>
			</g>
		</g>
	</g>
	<g>
		<g>
			<circle style="fill:#A4B59D;" cx="499.372" cy="395.581" r="32.23"/>
		</g>
		<g>
			<circle style="fill:#905480;" cx="441.115" cy="405.408" r="25.149"/>
		</g>
		<g>
			<g>
				<rect x="398.413" y="392.076" style="fill:#98464F;" width="114.757" height="58.804"/>
			</g>
			<g>
				<rect x="430.263" y="392.076" style="fill:#AB4F59;" width="114.757" height="58.804"/>
			</g>
			<g>
				<polygon style="fill:#98464F;" points="430.263,392.076 446.641,405.408 558.704,405.408 545.02,392.076 				"/>
			</g>
			<g>
				<polygon style="fill:#AB4F59;" points="398.413,392.076 385.392,405.598 421.363,405.598 430.263,392.076 				"/>
			</g>
		</g>
	</g>
	<g>
		<g>
			<polygon style="fill:#8C9E85;" points="225.935,450.88 201.256,450.88 212.883,368.677 234.869,368.677 			"/>
		</g>
		<g>
			<path style="fill:#8C9E85;" d="M249.86,392.259c-11.029,0-20.002-10.579-20.002-23.581c0-13.003,8.973-23.582,20.002-23.582
				c11.029,0,20.002,10.579,20.002,23.582C269.862,381.68,260.889,392.259,249.86,392.259z M249.86,346.066
				c-10.494,0-19.032,10.143-19.032,22.612c0,12.468,8.538,22.611,19.032,22.611c10.495,0,19.032-10.143,19.032-22.611
				C268.892,356.209,260.354,346.066,249.86,346.066z"/>
		</g>
		<g>
			<path style="fill:#8C9E85;" d="M239.115,392.259c-11.029,0-20.002-10.579-20.002-23.581c0-13.003,8.973-23.582,20.002-23.582
				c11.029,0,20.002,10.579,20.002,23.582C259.117,381.68,250.144,392.259,239.115,392.259z M239.115,346.066
				c-10.494,0-19.032,10.143-19.032,22.612c0,12.468,8.538,22.611,19.032,22.611c10.494,0,19.032-10.143,19.032-22.611
				C258.148,356.209,249.61,346.066,239.115,346.066z"/>
		</g>
		<g>
			<polygon style="fill:#A4B59D;" points="279.472,368.677 228.058,368.677 225.935,450.88 290.089,450.88 			"/>
		</g>
		<g>
			<path style="fill:#FFFFFF;" d="M287.385,424.035c-14.007,0-27.749-6.333-36.84-16.999c-9.186-10.778-13.251-25.547-10.873-39.507
				c0.045-0.264,0.296-0.442,0.559-0.397c0.264,0.046,0.441,0.296,0.396,0.56c-2.329,13.681,1.653,28.153,10.655,38.715
				c9.003,10.562,22.646,16.765,36.537,16.656c0.002,0,0.003,0,0.005,0c0.266,0,0.483,0.214,0.485,0.48
				c0.002,0.268-0.213,0.487-0.48,0.49C287.681,424.034,287.533,424.035,287.385,424.035z"/>
		</g>
	</g>
	<g>
		<g>
			<path style="fill:#7D406D;" d="M323.577,401.636h-62.663c-7.466,0-13.519,6.053-13.519,13.519v22.206
				c0,7.466,6.053,13.519,13.519,13.519h62.663c7.466,0,13.519-6.053,13.519-13.519v-22.206
				C337.096,407.689,331.044,401.636,323.577,401.636z"/>
		</g>
		<g>
			<path style="fill:#7D406D;" d="M300.739,426.743c-11.029,0-20.002-10.579-20.002-23.582c0-13.003,8.973-23.581,20.002-23.581
				c11.029,0,20.002,10.579,20.002,23.581C320.741,416.164,311.768,426.743,300.739,426.743z M300.739,380.549
				c-10.494,0-19.032,10.143-19.032,22.612c0,12.468,8.538,22.613,19.032,22.613c10.494,0,19.032-10.144,19.032-22.613
				C319.771,390.692,311.233,380.549,300.739,380.549z"/>
		</g>
		<g>
			<path style="fill:#905480;" d="M334.194,401.636h-62.663c-7.466,0-13.519,6.053-13.519,13.519v22.206
				c0,7.466,6.053,13.519,13.519,13.519h62.663c7.466,0,13.519-6.053,13.519-13.519v-22.206
				C347.713,407.689,341.66,401.636,334.194,401.636z"/>
		</g>
		<g>
			<rect x="258.012" y="425.773" style="fill:#7D406D;" width="89.701" height="0.97"/>
		</g>
		<g>
			<path style="fill:#FFFFFF;" d="M305.92,423.536h-6.115c-1.578,0-2.857-1.279-2.857-2.857l0,0c0-1.578,1.279-2.857,2.857-2.857
				h6.115c1.578,0,2.857,1.279,2.857,2.857l0,0C308.777,422.257,307.498,423.536,305.92,423.536z"/>
		</g>
	</g>
	<g>
		<path style="fill:#F5AB84;" d="M127.822,140.526l-7.557-5.914c0,0-1.726,10.278,7.425,12.878L127.822,140.526z"/>
	</g>
	<g>
		<g>
			<path style="fill:#8C9E85;" d="M647.088,412.648c-4.578-3.297-8.069-8.077-9.818-13.44c-0.756-2.319-1.014-5.283,0.894-6.803
				c1.598-1.273,4.061-0.825,5.65,0.459c1.589,1.284,2.51,3.197,3.38,5.045c-4.182-6.393-4.707-15.012-1.331-21.865
				c0.992-2.014,2.618-4.069,4.86-4.182c2.78-0.141,4.73,2.735,5.536,5.399c0.806,2.664,1.19,5.683,3.236,7.57
				c-0.631-4.213-1.233-8.684,0.445-12.6c1.678-3.916,6.558-6.781,10.308-4.759c3.081,1.662,4,5.671,3.882,9.17
				c-0.118,3.499-0.926,7.077,0.026,10.445c0.5-3.411,1.085-7.018,3.32-9.643c2.235-2.625,6.725-3.636,9.091-1.129
				c1.242,1.316,1.602,3.228,1.716,5.034c0.326,5.198-0.977,10.487-3.68,14.94c1.222-1.629,2.5-3.306,4.285-4.286
				c1.785-0.98,4.232-1.065,5.69,0.357c1.654,1.613,1.39,4.318,0.8,6.552c-1.596,6.042-4.719,11.674-8.998,16.229L647.088,412.648z"
				/>
		</g>
		<g>
			<polygon style="fill:#FF7642;" points="639.301,450.923 632.796,408.73 696.767,408.73 691.346,452.342 			"/>
		</g>
		<g>
			<path style="fill:#FFFFFF;" d="M695.441,418.114h-62.103c-0.268,0-0.485-0.217-0.485-0.485c0-0.268,0.217-0.485,0.485-0.485
				h62.103c0.268,0,0.485,0.217,0.485,0.485C695.926,417.897,695.709,418.114,695.441,418.114z"/>
		</g>
		<g>
			<path style="fill:#FFFFFF;" d="M693.276,440.613h-55.33c-0.268,0-0.485-0.217-0.485-0.485c0-0.268,0.217-0.485,0.485-0.485h55.33
				c0.268,0,0.485,0.217,0.485,0.485C693.761,440.396,693.544,440.613,693.276,440.613z"/>
		</g>
	</g>
	<g>
		<path style="fill:#FFFFFF;" d="M545.519,436.817h-45.592c-0.261,0-0.475-0.206-0.485-0.468l-0.555-15.722
			c-0.005-0.132,0.045-0.259,0.136-0.354c0.091-0.095,0.217-0.148,0.349-0.148h45.553c0.268,0,0.485,0.217,0.485,0.485
			c0,0.268-0.217,0.485-0.485,0.485h-45.051l0.521,14.752h45.124c0.268,0,0.485,0.217,0.485,0.485
			C546.004,436.6,545.787,436.817,545.519,436.817z"/>
	</g>
	<g>
		<path style="fill:#FFFFFF;" d="M150.031,257.72c-19.917,0-39.779-2.512-59.072-7.472c-0.259-0.067-0.416-0.331-0.349-0.591
			c0.067-0.259,0.331-0.414,0.59-0.349c19.822,5.096,40.239,7.593,60.717,7.434c0.001,0,0.002,0,0.004,0
			c0.266,0,0.483,0.215,0.485,0.481c0.002,0.268-0.213,0.487-0.481,0.489C151.294,257.717,150.661,257.72,150.031,257.72z"/>
	</g>
	<g>
		<path style="fill:#FFFFFF;" d="M178.392,238.317c-0.109,0-0.219-0.037-0.31-0.112c-0.206-0.171-0.234-0.477-0.063-0.683
			l8.128-9.762c0.171-0.205,0.477-0.233,0.683-0.063c0.206,0.172,0.234,0.477,0.063,0.683l-8.128,9.761
			C178.669,238.258,178.531,238.317,178.392,238.317z"/>
	</g>
	<g>
		<path style="fill:#FFFFFF;" d="M212.619,158.195c-0.086,0-0.173-0.023-0.252-0.071l-13.106-7.976
			c-0.229-0.139-0.302-0.438-0.162-0.666s0.437-0.302,0.666-0.162l13.106,7.976c0.229,0.139,0.302,0.438,0.162,0.666
			C212.943,158.112,212.783,158.195,212.619,158.195z"/>
	</g>
	<g>
		<path style="fill:#FFFFFF;" d="M122.314,164.077c-0.612,0-1.249-0.062-1.907-0.19c-7.548-1.464-14.239-8.047-16.649-16.381
			c-0.074-0.257,0.074-0.526,0.332-0.6c0.258-0.073,0.526,0.074,0.601,0.331c2.311,7.993,8.702,14.302,15.901,15.698
			c4.099,0.792,7.182-1.172,8.039-5.134c0.713-3.295-0.06-6.396-0.879-9.678l-0.241-0.975c-0.064-0.26,0.096-0.522,0.356-0.586
			c0.255-0.064,0.522,0.096,0.586,0.356l0.24,0.97c0.81,3.246,1.647,6.602,0.886,10.118
			C128.751,161.835,125.987,164.077,122.314,164.077z"/>
	</g>
	<g>
		<path style="fill:#FFFFFF;" d="M135.257,419.031c-0.049,0-0.099-0.008-0.149-0.024c-5.286-1.705-10.77-2.835-16.3-3.359
			c-0.267-0.026-0.462-0.262-0.437-0.529c0.025-0.266,0.262-0.457,0.528-0.438c5.6,0.53,11.153,1.676,16.506,3.402
			c0.255,0.082,0.395,0.355,0.313,0.61C135.653,418.901,135.462,419.031,135.257,419.031z"/>
	</g>
	<g>
		<path style="fill:#FFFFFF;" d="M101.567,397.712c-0.115,0-0.229-0.04-0.322-0.122c-3.903-3.46-7.272-7.465-10.013-11.901
			c-0.141-0.227-0.07-0.527,0.158-0.668c0.227-0.138,0.528-0.07,0.667,0.158c2.691,4.356,5.999,8.288,9.831,11.685
			c0.2,0.177,0.219,0.484,0.041,0.685C101.834,397.657,101.701,397.712,101.567,397.712z"/>
	</g>
</g>
</svg>
