<?xml version="1.0" encoding="utf-8"?>
<!-- Generator: Adobe Illustrator 27.5.0, SVG Export Plug-In . SVG Version: 6.00 Build 0)  -->
<svg version="1.1" id="_x3C_Layer_x3E_" xmlns="http://www.w3.org/2000/svg" xmlns:xlink="http://www.w3.org/1999/xlink" x="0px"
	 y="0px" viewBox="0 0 3071 1660" style="enable-background:new 0 0 3071 1660;" xml:space="preserve">
<rect style="fill:#FFFFFF;" width="3071" height="1660"/>
<g>
	<path style="opacity:0.6;fill:#D2E4FF;" d="M2771.707,1504.267l-465.052-1.515l-304.417-0.997l-684.866-2.243l-283.902-0.931
		l-100.238-0.325l-240.263-0.787l-235.24-0.767l-183.621,3.087c0,0-48.693-89.224-76.006-213.228
		c-0.892-4.074-1.764-8.188-2.617-12.338c-17.707-86.684-24.341-190.7,2.617-296.901c2.885-11.37,6.154-22.759,9.846-34.158
		c0.68-2.128,1.38-4.256,2.099-6.385c9.31-27.687,21.082-55.382,35.701-82.829c9.73-18.273,20.746-36.44,33.122-54.404
		c1.266-1.842,2.551-3.672,3.845-5.513c7.228-10.229,14.907-20.391,23.065-30.477c11.878-14.715,24.792-29.248,38.769-43.58
		c27.313-28.014,54.319-52.344,80.94-73.416c6.654-5.282,13.298-10.354,19.902-15.214c0.375-0.278,0.758-0.557,1.132-0.834
		c15.301-11.227,30.467-21.408,45.489-30.61c3.067-1.879,6.126-3.72,9.184-5.521c119.326-70.272,229.449-79.964,324.914-71.173
		c108.53,9.979,198.1,43.869,260.691,39.785c63.32-4.133,107.333-64.893,174.373-138.528c4.276-4.697,8.638-9.443,13.114-14.236
		c81.612-87.402,198.063-188.446,416.065-234.185c62.438-13.096,130.619-22.079,200.17-25.788
		c14.496-0.776,29.039-1.323,43.609-1.629c8.744-0.183,17.497-0.278,26.25-0.288c21.656-0.029,43.313,0.489,64.835,1.582
		c7.64,0.383,15.262,0.844,22.864,1.38c93.135,6.529,182.866,24.149,258.573,55.661c104.648,43.533,182.522,113.583,205.645,217.504
		c1.257,5.638,2.349,11.369,3.278,17.209c4.938,31.108,5.168,65.055,0.039,102.05c-2.252,16.288-5.561,33.17-9.961,50.657
		c-0.46,1.83-0.93,3.671-1.428,5.521c-2.311,8.791-4.899,17.745-7.775,26.843c-0.479,1.534-0.969,3.067-1.467,4.602
		c-17.188,53.053-43.936,111.244-81.621,174.948c-123.813,209.259,38.203,245.717,184.592,328.7
		C2709.748,1198.382,2812.423,1288.91,2771.707,1504.267z"/>
	<path style="opacity:0.6;fill:#D2E4FF;" d="M2306.655,207.124l-0.639,1292.824l-2031.909-0.159c0,0-48.693-89.224-76.006-213.228
		c-0.892-4.074-1.764-8.188-2.617-12.338c-17.707-86.684-24.341-190.7,2.617-296.901c2.885-11.37,6.154-22.759,9.846-34.158
		c1.016-1.648,1.726-3.058,2.099-4.16c9.31-27.773,21.082-55.546,35.701-83.068c9.73-18.321,20.746-36.536,33.122-54.56
		c1.266-1.84,2.551-3.681,3.845-5.521c7.228-10.258,14.907-20.448,23.065-30.563c11.878-14.763,24.792-29.335,38.769-43.706
		c27.313-28.089,54.319-52.486,80.94-73.626c7.037-5.589,14.055-10.958,21.034-16.086
		C586.93,528.519,716.226,514.11,826.109,524.263c108.53,10.009,198.1,43.994,260.691,39.899
		c67.356-4.41,112.874-73.089,187.487-153.195c81.612-87.652,198.063-188.974,416.065-234.846
		c62.438-13.125,130.619-22.136,200.17-25.865c14.496-0.776,29.039-1.323,43.609-1.629c8.744-0.183,17.497-0.278,26.25-0.288
		c21.656-0.029,43.313,0.489,64.835,1.582c7.64,0.393,15.262,0.853,22.864,1.38C2141.217,157.857,2230.948,175.526,2306.655,207.124
		z"/>
	<rect x="1896.485" y="599.901" style="fill:#AFCDFB;" width="40.269" height="899.613"/>
	<rect x="1114.13" y="599.901" style="fill:#AFCDFB;" width="40.268" height="899.613"/>
	<rect x="1293.012" y="652.717" style="fill:#AFCDFB;" width="238.183" height="847.231"/>
	<rect x="1531.194" y="652.717" style="fill:#699FF0;" width="6.711" height="847.072"/>
	<rect x="1551.222" y="652.717" style="fill:#AFCDFB;" width="238.183" height="847.231"/>
	<g>
		<path style="fill:#699FF0;" d="M1494.104,1009.834c-5.536,0-10.065,4.529-10.065,10.065v27.321
			c0,5.536,4.529,10.065,10.065,10.065s10.065-4.529,10.065-10.065v-27.321C1504.169,1014.363,1499.64,1009.834,1494.104,1009.834z"
			/>
		<path style="fill:#699FF0;" d="M1586.137,1009.834c-5.536,0-10.066,4.529-10.066,10.065v27.321c0,5.536,4.53,10.065,10.066,10.065
			s10.065-4.529,10.065-10.065v-27.321C1596.202,1014.363,1591.673,1009.834,1586.137,1009.834z"/>
	</g>
	<path style="fill:#2E3552;" d="M2905.229,1507.118H148.39c-1.722,0-3.131-1.409-3.131-3.131v-1.068c0-1.722,1.409-3.13,3.131-3.13
		h2756.839c1.722,0,3.131,1.408,3.131,3.13v1.068C2908.359,1505.709,2906.95,1507.118,2905.229,1507.118z"/>
	<path style="fill:#AFCDFB;" d="M2118.553,710.296v-86.64c0-1.936-1.584-3.519-3.52-3.519h-0.509c-1.935,0-3.519,1.583-3.519,3.519
		v86.329c-26.66,1.009-47.984,24.167-47.984,52.604h99.587C2162.608,735.563,2143.349,713.306,2118.553,710.296z"/>
	<g>
		<path style="fill:#AFCDFB;" d="M725.956,710.296v-86.64c0-1.936-1.583-3.519-3.519-3.519h-0.51c-1.934,0-3.517,1.583-3.517,3.519
			v86.329c-26.661,1.009-47.985,24.167-47.985,52.604h99.588C770.013,735.563,750.753,713.306,725.956,710.296z"/>
		<path style="fill:#AFCDFB;" d="M972.308,710.296v-86.64c0-1.936-1.583-3.519-3.518-3.519h-0.509c-1.936,0-3.518,1.583-3.518,3.519
			v86.329c-26.662,1.009-47.986,24.167-47.986,52.604h99.588C1016.365,735.563,997.104,713.306,972.308,710.296z"/>
		<path style="fill:#AFCDFB;" d="M489.834,710.296v-86.64c0-1.936-1.583-3.519-3.519-3.519h-0.509c-1.935,0-3.518,1.583-3.518,3.519
			v86.329c-26.661,1.009-47.985,24.167-47.985,52.604h99.588C533.891,735.563,514.63,713.306,489.834,710.296z"/>
	</g>
	<g>
		<path style="fill:#E2915A;" d="M1217.448,1015.015c2.398,6.717,4.165,12.385,4.918,16.464c0.776,4.285-1.317,13.882-4.627,25.118
			c-4.698,15.964-11.797,35.251-16.447,47.453c-0.005,0.007-0.007,0.01-0.012,0.016c-0.003,0.002-0.003,0.003-0.006,0.006
			c-0.002,0.002-0.002,0.004-0.003,0.006c-1.994,2.67-13.213,17.396-20.867,21.371c-8.428,4.376-13.075,23.067-13.075,23.067
			s0.954,3.863,7.176,1.834c6.221-2.028,18.493-0.797,25.323-13.632c5.914-11.113,13.558-21.418,15.504-23.987
			c0.063-0.081,0.126-0.159,0.181-0.223c0.047-0.063,0.085-0.121,0.132-0.186c0.023-0.031,0.039-0.058,0.061-0.076
			c9.677-12.337,25.184-32.944,34.652-49.77c0.986-1.76,1.908-3.463,2.758-5.118L1217.448,1015.015z"/>
		<path style="fill:#FFB27D;" d="M1445.182,1452.814l-8.992,8.427c-6.347-9.529-74.393-73.051-113.152-108.876
			c-11.906-11.006-21.053-19.395-24.791-22.808c-11.734-10.708-43.38-132.882-59.189-196.326c-5.636-22.605-9.26-37.753-9.26-37.753
			s72.696-1.4,89.07,14.955c5.55,5.541,9.116,24.504,11.398,48.403c5.378,56.39,3.585,140.254,3.585,140.254
			c2.742,1.142,5.599,2.771,8.532,4.822C1384.967,1333.719,1445.182,1452.814,1445.182,1452.814z"/>
		<path style="fill:#35488B;" d="M1398.717,1426.561c0,0,16.472-2.548,28.408-16.461c0,0,4.925,17.952,5.816,18.83
			c0.89,0.878,15.555,12.125,18.387,14.168c2.832,2.044,7.605,9.034,8.261,11.406l-7.238,5.669c0,0-8.025,1.609-18.789,14.6
			l-30.463,23.855c0,0-5.598-2.81-4.739-6.052s14.171-20.24,15.451-24.005c1.279-3.765,1.521-18.592-0.396-21.558
			C1411.499,1444.05,1398.717,1426.561,1398.717,1426.561z"/>
		<path style="fill:#E2915A;" d="M1334.053,1285.095c-14.87,5.071-31.301,13.977-43.563,29.595
			c-14.534-36.66-38.385-129.076-51.434-181.458c6.683-2.493,15.867-2.685,28.397,0.086c26.027,5.752,46.792,14.955,62.812,25.52
			C1334.301,1201.124,1334.301,1258.865,1334.053,1285.095z"/>
		<g>
			<polygon style="fill:#C65447;" points="1075.798,1144.973 1051.402,1288.521 1160.551,1301.729 1178.021,1157.343 			"/>
			<polygon style="fill:#F1A34F;" points="1094.748,1147.266 1087.133,1293.019 1255.536,1313.395 1258.744,1167.109 			"/>
			<g>
				<path style="fill:#AA413E;" d="M1182.027,1134.147c-15.956-2.434-26.291,8.707-32.213,18.687
					c-6.565,11.065-9.135,22.762-9.242,23.254c-0.166,0.775,0.176,1.529,0.766,1.683c0.59,0.15,1.203-0.349,1.371-1.124
					c0.025-0.116,2.573-11.682,8.871-22.261c8.322-13.986,18.965-19.738,31.624-17.104c8.598,1.789,14.52,6.511,17.604,14.032
					c5.771,14.079-0.251,33.543-0.313,33.737c-0.236,0.752,0.029,1.561,0.594,1.807c0.567,0.245,1.215-0.162,1.453-0.912
					c0.268-0.846,6.483-20.891,0.252-36.11c-3.389-8.278-9.805-13.453-19.067-15.381
					C1183.153,1134.334,1182.586,1134.232,1182.027,1134.147z"/>
			</g>
			<polygon style="fill:#AA413E;" points="1087.079,1146.477 1069.623,1290.727 1087.154,1292.848 1094.748,1147.266 			"/>
		</g>
		<path style="fill:#7F1E17;" d="M1318.813,781.457c0.78-1.509,9.771-17.497,35.384-6.477c0,0-13.092-4.366-17.802,0.073
			c0,0,11.613-2.754,17.466,2.652c5.852,5.405,4.212,19.351,2.385,23.329c-1.827,3.979-11.665,14.947-16.539,13.977
			c-1.846-0.368-3.697-1.376-5.286-2.484c0.307,2.358,0.501,4.894,0.537,7.64c0.322,25.388-19.562,40.675-27.025,34.431
			c-4.787-4.004-10.726,4.586-10.726,4.586l-32.805-67.964C1264.402,791.219,1302.9,760.084,1318.813,781.457z"/>
		<path style="fill:#FFB27D;" d="M1301.632,894.134c-0.879-7.317-2.881-23.992-1.51-44.885l-2.592,4.377l-30.947,4.157
			c0,0,0.098,9.667-0.442,18.73c-0.423,7.084-1.272,11.323-2.797,15.263C1260.946,891.968,1300.21,894.477,1301.632,894.134z"/>
		<path style="fill:#E2915A;" d="M1266.58,857.785c0,0,0.099,9.664-0.442,18.729c17.138,0.578,27.148-14.468,31.39-22.888
			L1266.58,857.785z"/>
		<path style="fill:#FFB27D;" d="M1257.784,860.915c0,0,39.642,8.579,44.604-16.189c4.963-24.769,13.422-40.345-11.679-46.869
			c-25.101-6.526-31.928,1.938-35.595,9.803C1251.448,815.523,1247.601,858.045,1257.784,860.915z"/>
		<path style="fill:#7F1E17;" d="M1259.043,794.119c7.632-6.227,11.952-3.666,14.109-0.906c24.12-7.621,34.608,12.84,34.608,12.84
			c-0.882,18.306,9.909,31.043,9.909,31.043s-8.143,3.033-23.998-4.593c-4.843-2.33-8.678-6.867-11.676-12.038
			c4.505,12.684,12.083,22.686,12.083,22.686c-18.124-13.205-20.609-42.566-20.822-45.661c-2.862,1.697-8.593,5.479-10.976,9.832
			c-3.24,5.913-6.72,18.724-10.417,17.526C1251.864,824.848,1247.596,803.458,1259.043,794.119z"/>
		<path style="fill:#FFB27D;" d="M1263.344,891.776c0,0-48.957,44.573-48.859,94.756c0.039,20.511,1.409,52.093,3.809,61.675
			c2.398,9.581,4.291,62.727,4.291,62.727l92.037,9.417c0,0-22.56-33.806-11.522-103.994c11.037-70.188-1.467-122.223-1.467-122.223
			L1263.344,891.776z"/>
		<path style="fill:#FFB27D;" d="M1268.948,1342.347c-0.929-7.616-2.472-15.212-4.743-22.698c-0.259-0.868-0.363-1.766-0.049-2.612
			c0.002-0.006,0.004-0.014,0.015-0.025c1.031-2.775,3.596-9.727,6.979-19.549c9.345-27.097,34.576-120.209,41.297-141.932
			c13.77-44.504-3.105-68.554-3.105-68.554s-64.555,7.972-85.267-3.275c0,0-10.456,159.494-9.534,197.203
			c0.49,19.945,2.215,37.033,5.849,48.118c1.245,3.802,2.139,9.878,2.763,17.485c3.665,44.85-2.219,142.932-2.219,142.932
			l6.954,4.974C1227.888,1494.413,1278.059,1417.161,1268.948,1342.347z"/>
		<path style="fill:#C65447;" d="M1355.699,1283.724c0,0-3.979,1.323-16.068-1.524c-7.189-1.688-17.245-4.842-31.041-10.622
			c-7.459-3.125-15.847-5.541-24.484-7.4c-34.264-7.373-72.524-6.098-72.524-6.098s2.905-147.079,2.905-172.006
			c0-24.925-17.896-139.087,35.473-180.065c0,0,28.116-17.354,51.671-11.87c0,0,8.676,21.177,12.29,70.981
			c0.259,3.576,0.498,7.305,0.699,11.188c2.685,51.461,1.026,111.943,7.689,126.545c3.365,7.371,7.344,23.946,11.36,44.213
			C1344.54,1201.882,1355.699,1283.724,1355.699,1283.724z"/>
		<path style="fill:#AA413E;" d="M1333.669,1147.064c-0.854,0.24-1.735,0.307-2.655,0.201
			c-28.512-3.278-52.642-56.801-59.188-104.734c-6.549-47.935,13.268-92.033,13.268-92.033l28.827,14.62
			c0.259,3.576,0.498,7.305,0.699,11.188c2.685,51.461,1.026,111.943,7.689,126.545
			C1325.674,1110.223,1329.652,1126.798,1333.669,1147.064z"/>
		<g>
			<path style="fill:#163560;" d="M1344.996,1154.857l-10.912-32.066c-2.038-5.99-8.606-9.224-14.597-7.186l-10.152,3.455
				c-0.021,0.007-0.042,0.011-0.062,0.018l-52.031,17.706c-5.989,2.038-9.223,8.606-7.185,14.597l10.915,32.073
				c2.038,5.99,8.606,9.224,14.597,7.185l52.03-17.706c0.02-0.007,0.038-0.017,0.058-0.022l10.155-3.455
				C1343.803,1167.416,1347.035,1160.848,1344.996,1154.857z"/>
			<path style="fill:#1C468A;" d="M1323.87,1126.263c-2.038-5.989-8.607-9.223-14.597-7.185l-52.031,17.706
				c-5.989,2.038-9.223,8.606-7.185,14.597l9.717,28.553l73.812-25.119L1323.87,1126.263z"/>
			<path style="fill:#163560;" d="M1296.203,1161.167c-0.512-1.505-2.146-2.309-3.649-1.796c-1.503,0.511-2.308,2.145-1.796,3.648
				s2.146,2.308,3.65,1.796C1295.91,1164.304,1296.715,1162.67,1296.203,1161.167z"/>
		</g>
		<g>
			<path style="fill:#1C468A;" d="M1258.396,1148.318c-9.558-43.771-2.116-203.467,0.081-220.346
				c1.071-8.229,5.078-21.279,14.141-25.165c7.348-3.15,15.489-2,20.093,2.676c4.454,4.524,14.346,5.164,20.001,110.946
				c2.767,51.743,3.817,103.368,3.828,103.883l-3.835,0.077c-0.011-0.516-1.06-52.084-3.822-103.763
				c-1.622-30.329-3.508-54.754-5.605-72.598c-3.646-31.039-7.239-30.934-11.166-34.591c-4.006-3.73-10.909-6.476-17.257-3.755
				c-8.134,3.487-12.041,15.625-13.021,22.848c-1.798,13.252-8.785,177.318,0.311,218.969L1258.396,1148.318z"/>
		</g>
		<path style="fill:#FFB27D;" d="M1334.483,1067.102c-14.438,0.997-26.354-2.521-35.116-6.729c-0.882,2.626-1.898,5.436-3.01,8.351
			c-5.913,15.553-14.49,34.23-20.06,46.032c-2.106,2.408-14.508,16.337-22.485,19.724c-8.742,3.712-14.821,21.987-14.821,21.987
			s0.652,3.925,7.013,2.384c6.358-1.541,18.499,0.636,26.302-11.633c7.126-11.202,16.101-21.362,17.606-23.044
			c10.604-11.545,27.737-30.966,38.513-47.063C1330.803,1073.572,1332.863,1070.198,1334.483,1067.102z"/>
		<path style="fill:#35488B;" d="M1221.089,1440.373c0,0,14.54,8.148,32.515,4.554c0,0-7.189,17.171-7.03,18.412
			s4.771,19.136,5.741,22.491s0.418,11.802-0.528,14.074h-9.194c0,0-7.311-3.682-23.794-0.09h-38.692c0,0-2.674-5.663,0-7.687
			c2.675-2.023,23.636-7.198,26.965-9.374c3.329-2.174,12.66-13.7,12.979-17.216
			C1220.369,1462.023,1221.089,1440.373,1221.089,1440.373z"/>
		<path style="fill:#C65447;" d="M1336.718,1062.299c-1.697,4.266-4.621,9.347-8.293,14.811
			c-17.228,1.094-26.805-3.518-32.067-8.387c4.17-10.948,7.008-20.354,6.557-24.687c-1.945-18.444-21.666-70.425-28.654-103.364
			c-3.327-15.703-3.768-27.083,1.984-28.463c0,0,13.191-4.967,29.422,16.978c0.911,1.228,1.831,2.541,2.751,3.94
			C1325.885,959.597,1346.045,1038.802,1336.718,1062.299z"/>
		<path style="fill:#AA413E;" d="M1339.631,1282.199c-7.189-1.688-17.245-4.842-31.041-10.622c-7.459-3.125-15.847-5.541-24.484-7.4
			c5.81-11.821,25.481-51.193,30.514-52.277C1319.509,1210.845,1334.205,1259.048,1339.631,1282.199z"/>
	</g>
	<g>
		<polygon style="fill:#659BDB;" points="2003.198,971.72 1999.74,1120.023 2054.256,1120.023 2054.256,971.72 		"/>
		<polygon style="fill:#7CA8E8;" points="2094.574,971.72 2012.663,971.72 2017.598,1120.023 2101.709,1120.023 		"/>
		<path style="fill:#DFE5F4;" d="M2076.404,978.635c-0.087-0.426-0.5-0.697-0.928-0.613c-0.425,0.087-0.699,0.502-0.613,0.928
			c0.023,0.109,2.178,11.121-3.408,18.25c-2.984,3.81-7.671,5.872-13.928,6.131c-9.214,0.38-16.102-3.603-20.469-11.845
			c-3.303-6.234-3.857-12.692-3.862-12.757c-0.035-0.432-0.413-0.752-0.847-0.72c-0.432,0.034-0.754,0.414-0.721,0.846
			c0.023,0.274,0.576,6.806,4.018,13.323c3.104,5.879,9.196,12.748,20.713,12.748c0.404,0,0.814-0.008,1.232-0.026
			c6.742-0.277,11.824-2.545,15.105-6.737C2078.729,990.453,2076.501,979.113,2076.404,978.635z"/>
		<polygon style="fill:#488ACC;" points="2008.841,971.86 2008.841,1120.024 2017.598,1120.024 2012.663,971.72 		"/>
		<polygon style="fill:#8CB3ED;" points="2047.936,1016.122 2042.958,1119.901 2121.41,1119.901 2121.41,1016.122 		"/>
		<polygon style="fill:#9FC1F4;" points="2179.43,1016.122 2061.557,1016.122 2068.655,1120.023 2189.697,1120.023 		"/>
		<g>
			<path style="fill:#7CA8E8;" d="M2124.401,1047.875c-11.517,0-17.608-6.87-20.713-12.748c-3.44-6.519-3.995-13.049-4.017-13.323
				c-0.034-0.433,0.287-0.812,0.72-0.847c0.433-0.032,0.811,0.288,0.846,0.721c0.006,0.066,0.56,6.523,3.863,12.756
				c4.367,8.241,11.255,12.226,20.468,11.846c6.258-0.259,10.943-2.321,13.928-6.131c5.586-7.129,3.432-18.141,3.409-18.251
				c-0.087-0.425,0.188-0.84,0.612-0.926c0.428-0.086,0.841,0.187,0.928,0.611c0.098,0.479,2.326,11.819-3.707,19.528
				c-3.28,4.192-8.362,6.459-15.105,6.737C2125.217,1047.866,2124.805,1047.875,2124.401,1047.875z"/>
		</g>
		<polygon style="fill:#7CA8E8;" points="2056.055,1016.22 2056.055,1119.901 2068.655,1119.901 2061.557,1016.122 		"/>
		<g>
			<g>
				<g>
					<path style="fill:#7CA8E8;" d="M2122.78,1074.972c0-1.665,1.159-3.009,2.874-3.009c1.697,0,2.84,1.328,2.84,3.009
						c0,1.647-1.16,3.008-2.874,3.008C2123.923,1077.979,2122.78,1076.652,2122.78,1074.972z M2132.546,1072.098h1.999
						l-8.588,11.765h-2L2132.546,1072.098z M2126.73,1074.972c0-0.79-0.438-1.479-1.11-1.479c-0.706,0-1.075,0.672-1.075,1.479
						c0,0.79,0.437,1.479,1.109,1.479C2126.36,1076.451,2126.73,1075.762,2126.73,1074.972z M2130.007,1080.988
						c0-1.663,1.161-3.009,2.874-3.009c1.698,0,2.842,1.328,2.842,3.009c0,1.646-1.16,3.01-2.875,3.01
						C2131.15,1083.998,2130.007,1082.669,2130.007,1080.988z M2133.957,1080.988c0-0.79-0.438-1.479-1.109-1.479
						c-0.706,0-1.075,0.673-1.075,1.479c0,0.79,0.437,1.479,1.108,1.479C2133.588,1082.468,2133.957,1081.778,2133.957,1080.988z"/>
				</g>
			</g>
			<g>
				<g>
					<path style="fill:#7CA8E8;" d="M2143.365,1089.563c0-1.664,1.158-3.008,2.874-3.008c1.696,0,2.84,1.327,2.84,3.008
						c0,1.647-1.16,3.009-2.874,3.009C2144.508,1092.571,2143.365,1091.243,2143.365,1089.563z M2153.13,1086.688h1.999
						l-8.588,11.766h-2L2153.13,1086.688z M2147.314,1089.563c0-0.79-0.438-1.479-1.109-1.479c-0.706,0-1.076,0.672-1.076,1.479
						c0,0.791,0.438,1.479,1.11,1.479C2146.944,1091.042,2147.314,1090.354,2147.314,1089.563z M2150.592,1095.58
						c0-1.664,1.159-3.009,2.874-3.009c1.697,0,2.841,1.328,2.841,3.009c0,1.646-1.16,3.009-2.874,3.009
						C2151.734,1098.589,2150.592,1097.261,2150.592,1095.58z M2154.541,1095.58c0-0.79-0.437-1.479-1.108-1.479
						c-0.706,0-1.075,0.673-1.075,1.479c0,0.79,0.437,1.479,1.108,1.479C2154.172,1097.059,2154.541,1096.37,2154.541,1095.58z"/>
				</g>
			</g>
			<g>
				<g>
					<path style="fill:#7CA8E8;" d="M2143.365,1059.645c0-1.665,1.158-3.009,2.874-3.009c1.696,0,2.84,1.326,2.84,3.009
						c0,1.646-1.16,3.008-2.874,3.008C2144.508,1062.652,2143.365,1061.324,2143.365,1059.645z M2153.13,1056.77h1.999
						l-8.588,11.766h-2L2153.13,1056.77z M2147.314,1059.645c0-0.791-0.438-1.479-1.109-1.479c-0.706,0-1.076,0.672-1.076,1.479
						c0,0.79,0.438,1.479,1.11,1.479C2146.944,1061.123,2147.314,1060.435,2147.314,1059.645z M2150.592,1065.661
						c0-1.663,1.159-3.009,2.874-3.009c1.697,0,2.841,1.328,2.841,3.009c0,1.646-1.16,3.009-2.874,3.009
						C2151.734,1068.67,2150.592,1067.341,2150.592,1065.661z M2154.541,1065.661c0-0.791-0.437-1.479-1.108-1.479
						c-0.706,0-1.075,0.673-1.075,1.479c0,0.79,0.437,1.479,1.108,1.479C2154.172,1067.14,2154.541,1066.451,2154.541,1065.661z"/>
				</g>
			</g>
			<g>
				<g>
					<path style="fill:#7CA8E8;" d="M2102.73,1059.645c0-1.665,1.16-3.009,2.874-3.009c1.697,0,2.841,1.326,2.841,3.009
						c0,1.646-1.16,3.008-2.875,3.008C2103.873,1062.652,2102.73,1061.324,2102.73,1059.645z M2112.496,1056.77h1.999l-8.588,11.766
						h-2L2112.496,1056.77z M2106.68,1059.645c0-0.791-0.437-1.479-1.109-1.479c-0.706,0-1.075,0.672-1.075,1.479
						c0,0.79,0.437,1.479,1.109,1.479C2106.31,1061.123,2106.68,1060.435,2106.68,1059.645z M2109.958,1065.661
						c0-1.663,1.16-3.009,2.874-3.009c1.697,0,2.84,1.328,2.84,3.009c0,1.646-1.159,3.009-2.874,3.009
						C2111.101,1068.67,2109.958,1067.341,2109.958,1065.661z M2113.908,1065.661c0-0.791-0.438-1.479-1.11-1.479
						c-0.706,0-1.075,0.673-1.075,1.479c0,0.79,0.437,1.479,1.109,1.479C2113.538,1067.14,2113.908,1066.451,2113.908,1065.661z"/>
				</g>
			</g>
			<g>
				<g>
					<path style="fill:#7CA8E8;" d="M2104.875,1089.563c0-1.664,1.16-3.008,2.874-3.008c1.697,0,2.841,1.327,2.841,3.008
						c0,1.647-1.16,3.009-2.875,3.009C2106.018,1092.571,2104.875,1091.243,2104.875,1089.563z M2114.641,1086.688h2l-8.589,11.766
						h-2L2114.641,1086.688z M2108.825,1089.563c0-0.79-0.438-1.479-1.11-1.479c-0.705,0-1.075,0.672-1.075,1.479
						c0,0.791,0.438,1.479,1.109,1.479C2108.455,1091.042,2108.825,1090.354,2108.825,1089.563z M2112.103,1095.58
						c0-1.664,1.159-3.009,2.874-3.009c1.697,0,2.841,1.328,2.841,3.009c0,1.646-1.16,3.009-2.874,3.009
						C2113.246,1098.589,2112.103,1097.261,2112.103,1095.58z M2116.053,1095.58c0-0.79-0.438-1.479-1.109-1.479
						c-0.707,0-1.076,0.673-1.076,1.479c0,0.79,0.438,1.479,1.109,1.479C2115.683,1097.059,2116.053,1096.37,2116.053,1095.58z"/>
				</g>
			</g>
		</g>
	</g>
	<g>
		<rect x="2061.313" y="1289.695" style="fill:#9FC1F4;" width="219.172" height="209.73"/>
		<rect x="2007.541" y="1289.701" style="fill:#BDD8FF;" width="219.172" height="209.717"/>
		<rect x="1983.774" y="1119.663" style="fill:#9FC1F4;" width="177.686" height="170.032"/>
		<rect x="2027.373" y="1119.663" style="fill:#BDD8FF;" width="177.687" height="170.032"/>
		<polygon style="fill:#AFCDFB;" points="2205.06,1289.701 2007.541,1381.836 2007.541,1289.701 		"/>
	</g>
	<g>
		<path style="fill:#7CA8E8;" d="M2228.909,1266.488l-7.943-65.725h-20.512c-0.743-4.293-2.092-10.287-4.466-16.309
			c-6.012-15.26-15.658-23.128-28.006-22.757c-12.124,0.366-22.259,7.801-29.308,21.497c-3.61,7.016-5.524,13.907-6.375,17.568
			h-28.326l33.485,88.938h70.873C2220.765,1289.701,2230.4,1278.831,2228.909,1266.488z M2137.414,1200.764
			c2.332-9.23,10.389-33.492,30.718-34.107c18.481-0.579,25.098,22.431,27.261,34.107H2137.414z"/>
		<path style="fill:#9DC0F4;" d="M2103.974,1200.764h107.897l-15.517,68.125c-2.773,12.175-13.6,20.813-26.086,20.813h-65.585
			c-14.275,0-24.438-13.869-20.136-27.48L2103.974,1200.764z"/>
		<path style="fill:#88ADE2;" d="M2191.859,1200.764c-0.744-4.293-2.093-10.287-4.466-16.309
			c-6.014-15.26-15.658-23.128-28.008-22.757c-12.122,0.366-22.257,7.801-29.307,21.497c-3.61,7.016-5.524,13.907-6.374,17.568
			h-19.731c0,0,0.827,26.664,36.379,27.904c35.553,1.239,71.519-27.904,71.519-27.904H2191.859z M2128.818,1200.764
			c2.333-9.23,10.389-33.492,30.719-34.107c18.481-0.579,25.098,22.431,27.261,34.107H2128.818z"/>
	</g>
	<g>
		<g>
			<path style="fill:#BDD8FF;" d="M757.096,1463.211c0,0,8.82-93.955-2.692-145.982c0,0-4.126-13.275,3.928-39.16
				c13.379-42.991,9.655-113.369,4.624-123.23c-1.893-3.709-7.431-8.082-14.67-12.554c-21.685-13.39-56.827-26.948-56.827-26.948
				s-24.457,39.372-24.334,63.922c0.118,23.534,40.701,133.391,42.253,150.289c1.551,16.899,2.371,61.916,29.649,133.664
				c0,0-1.022,11.783-2.538,14.207c-1.515,2.424-7.878,10.606-15.151,13.333c-7.272,2.728-28.158,1.478-29.773,9.038h73.386
				c0,0,1.035-11.494-1.793-18.952C760.328,1473.378,757.096,1463.211,757.096,1463.211z"/>
			<path style="fill:#AFCDFB;" d="M758.331,1278.068c-45.835-28.852-80.523-119.469-80.523-119.469l70.477-16.315
				c7.239,4.472,12.777,8.845,14.67,12.554C767.986,1164.698,762.543,1233.241,758.331,1278.068z"/>
			<path style="fill:#BDD8FF;" d="M871.845,1476.206c-2.021-4.444-10.221-15.651-10.221-15.651
				c-20.606-125.124-47.273-127.008-47.746-141.554c-0.157-4.8,2.218-20.164,5.303-39.37c6.243-38.995,15.389-93.844,12.141-108.359
				c-1.474-6.576-3.844-14.624-6.431-22.643c-5.946-18.388-13.037-36.624-13.037-36.624l-81.141,25.261
				c0,0,25.406,143.511,28.807,179.868c2.721,29.073,81.82,143.421,81.82,143.421c-1.011,6.57,4.242,18.076,3.838,24.136
				c-0.404,6.061,2.849,15.099,2.849,15.099s36.287,0.01,37.636,0C887.283,1499.777,873.865,1480.65,871.845,1476.206z"/>
			<path style="fill:#BDD8FF;" d="M847.508,1053.232c-5.377-8.929-9.059-43.531-12.828-62.365l0.005-0.002
				c0,0-2.243-16.648-10.11-25.88c-5.258-6.158-33.407-9.109-33.407-9.109c-0.002,0.017-0.004,0.032-0.005,0.048
				c-0.891-0.189-1.768-0.372-2.624-0.543c-2.728-0.545-5.304-2.139-5.607-4.902c-0.012-0.14-0.029-0.279-0.042-0.419
				c-0.352-3.4-0.424-6.872-0.381-9.886c-0.007-0.042-0.007-0.084,0-0.127c0.071-4.921,0.447-8.575,0.447-8.575l-0.091-0.013
				l-29.498-4.739c-0.404,9.206-0.938,16.067-1.502,21.176c-0.43,3.916-3.612,6.958-7.54,7.194c-0.58,0.034-1.188,0.08-1.777,0.117
				c0-0.002,0-0.01,0-0.01s-19.015-0.741-26.292,1.48c-8.19,2.501-26.363,22.312-26.363,22.312s0.042,0.033,0.104,0.082
				c-21.811,21.415-45.101,51.852-43.812,57.655c1.818,8.182,32.742,54.635,43.956,63.194h11.221c0,0-24.872-56.729-25.195-61.328
				c-0.277-3.951,21.307-18.559,39.191-31.343c0.304,0.899,0.09,1.971-0.371,3.259c-0.006,0.005-0.006,0.011-0.006,0.011
				c-1.564,4.349-5.936,11.163-2.578,22.121c8.202,26.799,7.673,30.429,7.673,30.429c0.177,0.132,0.363,0.257,0.544,0.385
				c0.42,3.548,0.944,7.252,1.627,11.183c0,0-1.527,3.794-15.339,17.935l41.703,17.369l63.243,2.061c0,0-3.018-8.43-6.146-17.055
				c-2.866-7.915-5.836-15.987-6.643-17.837c-0.375-0.861-0.456-3.681-0.32-7.878c0.636-0.107,7.337-20.121,11.652-33.685
				c0.702-2.199,1.114-3.875,1.309-5.444l0.005-0.041c3.75,18.051,8.44,36.03,13.566,45.149
				c9.873,17.559,53.481,62.543,53.481,62.543l9.198-8.158C887.956,1129.596,863.182,1079.264,847.508,1053.232z"/>
			<path style="fill:#AFCDFB;" d="M782.89,950.06c-12.267-1.654-29.522-23.34-29.522-23.34l29.589,3.922
				c0,0-0.036,0.291-0.091,0.817c-0.145,1.473-0.424,4.771-0.356,8.588c-0.007,0.043-0.007,0.085,0,0.127
				C782.466,943.188,782.537,946.659,782.89,950.06z"/>
			<path style="fill:#BDD8FF;" d="M791.768,932.142c0,0-34.471,11.504-41.304-10.072c-6.833-21.576-15.885-34.623,5.835-42.881
				c21.719-8.256,28.623-1.384,32.656,5.263C792.987,891.098,800.558,928.594,791.768,932.142z"/>
			<path style="fill:#AFCDFB;" d="M819.181,1279.631c-15.316-29.231-37.54-104.922-37.54-104.922s25.353-11.734,43.25-26.08
				c2.587,8.019,4.957,16.066,6.431,22.643C834.569,1185.787,825.424,1240.636,819.181,1279.631z"/>
			<path style="fill:#9FC1F4;" d="M831.321,1171.275c0,0-24.279,0.8-48.486,7.43c-16.115,4.412-32.206,11.406-41.079,22.467
				c0,0-23.073-24.951-50.576-31.158h-0.007c-7.509-1.696-15.351-1.994-23.146,0c0,0,0.686-25.49,33.334-70.091
				c2.164-2.958,4.473-6.001,6.927-9.128c0,0,31.347,18.067,82.747,6.86c4.691-1.024,9.559-2.29,14.575-3.842
				c0,0,11.789,28.425,15.577,39.837C823.83,1141.602,831.321,1171.275,831.321,1171.275z"/>
			<path style="fill:#BDD8FF;" d="M887.956,1129.596c0,0,15.505,4.014,17.626,6.179c2.122,2.165,8.197,18.98,6.061,19.136
				c-11.11,0.809-16.97-5.152-16.97-5.152c-6.717-7.393-16.754-8.572-16.256-13.983
				C878.915,1130.364,887.956,1129.596,887.956,1129.596z"/>
			<path style="fill:#89B0E8;" d="M704.84,1094.634c0,0,22.161,16.677,45.648,17.349c23.488,0.673,55.134-14.893,55.134-14.893
				L704.84,1094.634z"/>
			<path style="fill:#BDD8FF;" d="M690.141,1099.921c0,0-11.229,14.181-11.229,16.757c0,2.575,2.273,13.333,5.001,13.484
				c2.728,0.152,3.637-8.787,5.757-10.455c2.122-1.666,9.697-4.8,10.758-7.702c1.061-2.903,0.934-12.084,0.934-12.084H690.141z"/>
			<path style="fill:#9FC1F4;" d="M724.074,955.458c0,0-34.628,1.795-77.94,30.999c0,0-11.114,5.24-5.871,14.976
				c5.24,9.734,17.191,14.953,17.191,14.953s5.271,19.305,24.928,20.24c0,0,6.178,3.932,15.726,1.124
				c0,0,10.483-11.981,11.045-13.854c0,0,12.729,49.422,11.045,51.105c-1.685,1.686-20.626,11.181-18.831,15.793
				c1.795,4.613,32.31,17.717,55.147,16.219c22.84-1.497,55.974-5.615,51.481-14.414c-4.493-8.798-9.267-21.621-8.705-22.371
				c0.561-0.748,11.699-31.73,11.699-31.73s-5.803,32.012-2.808,35.007c2.996,2.995,27.693,1.179,33.51-9.547
				c0,0,11.785-1.124,19.933-8.985c0,0,16.011-4.868,20.128-14.977c0,0-39.687-83.711-70.014-84.538
				c-30.326-0.826-34.257,7.879-48.578,7.036C748.839,961.652,737.731,953.257,724.074,955.458z"/>
			<g>
				<rect x="907.166" y="1289.216" style="fill:#9FC1F4;" width="98.345" height="94.108"/>
				<rect x="931.297" y="1289.216" style="fill:#BDD8FF;" width="98.346" height="94.108"/>
			</g>
			<g>
				<rect x="950.081" y="1383.324" style="fill:#9FC1F4;" width="121.308" height="116.081"/>
				<rect x="920.319" y="1383.328" style="fill:#BDD8FF;" width="121.308" height="116.073"/>
				<polygon style="fill:#AFCDFB;" points="1029.643,1383.328 920.319,1434.322 920.319,1383.328 				"/>
			</g>
			<g>
				<rect x="487.828" y="1120.868" style="fill:#9FC1F4;" width="98.346" height="378.921"/>
				<rect x="511.959" y="1120.868" style="fill:#BDD8FF;" width="98.346" height="378.921"/>
				<rect x="530.745" y="1383.324" style="fill:#9FC1F4;" width="121.308" height="116.081"/>
				<rect x="500.983" y="1383.328" style="fill:#BDD8FF;" width="121.308" height="116.073"/>
				<polygon style="fill:#AFCDFB;" points="610.306,1383.328 500.983,1434.322 500.983,1383.328 				"/>
			</g>
			<g>
				<path style="fill:#77A4E5;" d="M563.505,1062.534c-0.555-2.39-1.804-6.891-4.164-11.479
					c-4.606-8.949-11.229-13.807-19.15-14.047c-8.069-0.241-14.372,4.899-18.301,14.87c-1.553,3.938-2.432,7.852-2.917,10.655
					h-13.404l-5.19,42.947c-0.975,8.065,5.321,15.168,13.445,15.168h46.311l21.88-58.115H563.505z M522.279,1062.534
					c1.413-7.629,5.735-22.663,17.813-22.285c13.284,0.402,18.549,16.255,20.072,22.285H522.279z"/>
				<path style="fill:#9FC1F4;" d="M594.708,1102.693l-12.693-40.159h-12.893c-0.555-2.39-1.803-6.891-4.165-11.479
					c-4.605-8.949-11.228-13.807-19.15-14.047c-8.067-0.241-14.37,4.899-18.3,14.87c-1.552,3.938-2.431,7.852-2.917,10.655h-13.077
					l10.139,44.516c1.813,7.955,8.887,13.6,17.046,13.6h42.854C590.879,1120.649,597.519,1111.587,594.708,1102.693z
					 M527.896,1062.534c1.413-7.629,5.736-22.663,17.813-22.285c13.283,0.402,18.547,16.255,20.07,22.285H527.896z"/>
			</g>
			<g>
				<path style="fill:#77A4E5;" d="M604.373,1325.21c-0.556-2.391-1.805-6.892-4.166-11.479
					c-4.605-8.95-11.229-13.808-19.148-14.047c-8.07-0.242-14.373,4.897-18.302,14.87c-1.552,3.937-2.431,7.85-2.916,10.655h-13.404
					l-5.189,42.946c-0.976,8.065,5.321,15.168,13.445,15.168h46.31l21.881-58.114H604.373z M563.146,1325.21
					c1.414-7.63,5.736-22.664,17.813-22.286c13.284,0.402,18.549,16.256,20.073,22.286H563.146z"/>
				<path style="fill:#9FC1F4;" d="M635.576,1365.369l-12.693-40.159h-12.894c-0.555-2.391-1.804-6.892-4.164-11.479
					c-4.605-8.95-11.228-13.808-19.15-14.047c-8.068-0.242-14.371,4.897-18.301,14.87c-1.551,3.937-2.431,7.85-2.916,10.655H552.38
					l10.138,44.516c1.813,7.955,8.887,13.599,17.046,13.599h42.855C631.747,1383.324,638.387,1374.262,635.576,1365.369z
					 M568.764,1325.21c1.412-7.63,5.735-22.664,17.813-22.286c13.283,0.402,18.547,16.256,20.071,22.286H568.764z"/>
			</g>
		</g>
		<g>
			<path style="fill:#7CA8E8;" d="M1008.012,1277.58l-4.053-33.539h-10.467c-0.379-2.19-1.066-5.246-2.277-8.322
				c-3.069-7.786-7.99-11.801-14.293-11.612c-6.186,0.188-11.357,3.98-14.955,10.97c-1.844,3.583-2.819,7.099-3.252,8.965H944.26
				l17.087,45.385h36.166C1003.857,1289.426,1008.774,1283.879,1008.012,1277.58z M961.323,1244.041
				c1.19-4.71,5.302-17.09,15.676-17.404c9.432-0.296,12.807,11.446,13.911,17.404H961.323z"/>
			<path style="fill:#9FC1F4;" d="M989.106,1244.041c-0.379-2.19-1.066-5.246-2.277-8.322c-3.069-7.786-7.99-11.801-14.292-11.612
				c-6.186,0.188-11.358,3.98-14.954,10.97c-1.846,3.583-2.82,7.099-3.254,8.965H944.26l-9.913,31.361
				c-2.195,6.946,2.991,14.023,10.274,14.023h33.468c6.372,0,11.896-4.407,13.311-10.62l7.918-34.765H989.106z M956.938,1244.041
				c1.189-4.71,5.301-17.09,15.674-17.404c9.432-0.296,12.808,11.446,13.911,17.404H956.938z"/>
			<path style="fill:#AECFFF;" d="M944.26,1244.041c0,0,0.421,13.606,18.563,14.24c18.143,0.633,36.495-14.24,36.495-14.24H944.26z"
				/>
		</g>
		<g>
			<path style="fill:#7CA8E8;" d="M1049.594,1371.479l-4.053-33.539h-10.468c-0.38-2.191-1.065-5.247-2.277-8.321
				c-3.069-7.787-7.991-11.803-14.292-11.613c-6.185,0.187-11.358,3.98-14.954,10.97c-1.845,3.583-2.82,7.098-3.254,8.965h-14.455
				l17.088,45.384h36.166C1045.438,1383.324,1050.355,1377.777,1049.594,1371.479z M1002.906,1337.94
				c1.189-4.71,5.301-17.091,15.674-17.405c9.432-0.295,12.808,11.447,13.911,17.405H1002.906z"/>
			<path style="fill:#8BB1EA;" d="M1030.688,1337.94c-0.38-2.191-1.066-5.247-2.277-8.321c-3.068-7.787-7.991-11.803-14.293-11.613
				c-6.186,0.187-11.357,3.98-14.954,10.97c-1.845,3.583-2.819,7.098-3.253,8.965h-10.069l-9.912,31.361
				c-2.196,6.945,2.989,14.022,10.274,14.022h33.468c6.371,0,11.896-4.407,13.312-10.62l7.918-34.764H1030.688z M998.519,1337.94
				c1.19-4.71,5.301-17.091,15.675-17.405c9.432-0.295,12.808,11.447,13.911,17.405H998.519z"/>
		</g>
	</g>
	<g>
		<g>
			<path style="fill:#77A4E5;" d="M500.253,1318.471c0,0-31.216,23.213-37.303,21.805c-6.087-1.407,22.813-25.058,22.813-25.058
				c-10.876-5.229-44.682-1.95-44.682-1.95s-11.262,36.313-16.814,33.45c-5.552-2.862,11.612-31.646,11.612-31.646
				c-12.114-0.73-26.97,8.264-26.97,8.264c-20.339,16.062,1.336,41.349,1.336,41.349s-4.174,12.501-17.017,23.884
				c0,0-18.344,13.565-19.618,37.806l3.329,0.297c0,0,5.336-22.803,15.022-33.41c0.363-0.374,0.85-0.871,1.433-1.459
				c1.555-1.44,2.64-2.519,3.375-3.324c4.775-4.59,11.384-10.445,14.566-11.012c0,0-0.158-0.583-0.136-1.594
				c0.043,0.511,0.089,1.035,0.136,1.594c1.088,12.78,25.883,23.941,41.137,26.237c15.253,2.295,10.537-3.976,5.281-13.271
				c-5.256-9.297-21.888-13.458-25.682-17.739c-3.795-4.281,4.051-4.292,13.241-0.094s10.448,15.39,25.191,22.45
				s36.926-17.403,36.926-17.403c-11.749-0.597-28.527-13.357-27.921-17.262c0.607-3.904,28.482,6.736,33.247,7.247
				c4.766,0.51,15.607-5.417,17.285-24.611S500.253,1318.471,500.253,1318.471z"/>
			<path style="fill:#77A4E5;" d="M352.852,1287.372c0,0-12.872-16.091-26.663-20.228c0,0,7.355,39.076,0,39.995
				c-7.355,0.919-5.058-44.134-5.058-44.134s-36.317-17.469-50.569-16.09c0,0,22.526,38.157,15.171,37.237
				c-7.355-0.919-32.64-39.536-32.64-39.536s-37.238-6.896-43.214,15.171c-5.977,22.066,3.678,33.101,9.194,34.479
				s40.915,0.92,39.996,5.517c-0.92,4.598-24.825,11.953-38.157,7.815c0,0,14.711,36.318,34.02,34.479
				c19.308-1.839,25.284-13.791,37.237-14.71c11.952-0.921,20.688,2.298,14.711,5.517c-5.977,3.218-26.204,1.053-35.858,9.261
				s-17.47,13.265,0.46,16.942c17.929,3.678,50.109,1.379,56.546-12.412c0.281-0.604,0.547-1.173,0.805-1.725
				c-0.389,1.14-0.805,1.725-0.805,1.725c3.313,1.933,8.28,11.155,11.724,18.22c0.489,1.198,1.257,2.843,2.401,5.083
				c0.408,0.893,0.747,1.645,0.998,2.208c6.454,15.775,3.077,43.357,3.077,43.357l3.83,1.029c8.488-27.521-6.4-50.13-6.4-50.13
				c-9.653-17.929-9.194-33.559-9.194-33.559S368.943,1313.575,352.852,1287.372z"/>
		</g>
		<path style="fill:#9FC1F4;" d="M476.769,1408.944h2.07v-2.73H295.83v2.73h2.973c1.091,36.207,23.798,66.975,55.657,79.846h-45.948
			c-6.066,0-10.984,4.917-10.984,10.983l0,0h180.517l0,0c0-6.066-4.917-10.983-10.983-10.983h-45.949
			C452.971,1475.919,475.679,1445.151,476.769,1408.944z"/>
		<path style="fill:#9FC1F4;" d="M553.543,1209.901c-7.878-29.088-56.964-19.997-56.964-19.997s-33.33,50.903-43.026,52.115
			c-9.695,1.212,19.998-49.086,19.998-49.086c-18.785-1.818-66.659,21.211-66.659,21.211s3.03,59.387-6.666,58.175
			s0-52.722,0-52.722c-18.18,5.454-35.147,26.664-35.147,26.664c-21.211,34.542,24.239,59.994,24.239,59.994
			s0.605,20.604-12.12,44.237c0,0-19.625,29.803-8.437,66.08l5.049-1.356c0,0-4.413-35.992,3.917-56.838
			c0.34-0.769,0.837-1.876,1.455-3.228c1.516-2.966,2.536-5.151,3.182-6.733c4.537-9.307,11.076-21.438,15.439-23.982
			c0,0-0.549-0.771-1.062-2.273c0.34,0.729,0.69,1.478,1.062,2.273c8.483,18.18,50.903,21.21,74.537,16.361
			c23.634-4.848,13.333-11.514,0.606-22.333c-12.727-10.818-39.391-7.967-47.268-12.208c-7.878-4.242,3.636-8.484,19.392-7.272
			c15.756,1.212,23.634,16.968,49.085,19.392c25.452,2.424,44.845-45.449,44.845-45.449c-17.574,5.453-49.086-4.242-50.298-10.302
			c-1.212-6.061,45.449-5.454,52.722-7.272C548.695,1253.533,561.42,1238.99,553.543,1209.901z"/>
		<path style="fill:#AFCDFB;" d="M387.851,1488.963h-22.128c-32.876-13.088-56.116-45.209-56.116-82.751h22.12
			C331.727,1443.762,354.966,1475.875,387.851,1488.963z"/>
	</g>
	<path style="fill:#699FF0;" d="M2515.579,441.674c-0.931-5.84-2.022-11.571-3.279-17.209H1261.174
		c-67.04,73.636-111.053,134.396-174.373,138.528c-62.592,4.084-152.161-29.806-260.691-39.785
		c-95.465-8.791-205.588,0.901-324.914,71.173c-3.058,1.802-6.116,3.642-9.184,5.521h2012.217c0.498-1.85,0.968-3.691,1.428-5.521
		c4.4-17.487,7.709-34.369,9.961-50.657C2520.746,506.728,2520.516,472.782,2515.579,441.674z"/>
	<path style="fill:#82B378;" d="M2812.251,1331.687c26.634-17.483,49.435-36.32,36.274-42.876
		c-14.148-7.05-40.005,14.979-61.274,37.359c-5.269-0.766-10.798-1.351-16.601-1.737c-2.894-0.192-5.75-0.337-8.587-0.459
		c36.962-65.878,100.444-76.011,100.024-99.046c-0.224-12.262-19.522-29.912-65.237,1.238
		c-26.519,18.069-39.96,63.164-46.478,97.492c-137.941-1.352-207.206,79.619-256.463,68.061
		c-51.614-12.111-99.934-15.476-159.235-6.056c-26.401,4.193-47.581,17.99-70.608,32.126c6.945-45.12,10.93-111.999-29.219-100.807
		c-42.369,11.811-13.761,77.071,6.492,114.078c-4.557,2.453-9.251,4.82-14.126,7.044c-29.207-34.335-96.316-103.347-142.941-74.844
		c-48.458,29.623,75.818,59.625,131.821,79.512c-17.24,6.61-36.84,11.156-60.422,11.522c-86.756,1.345-113.43,44.98-113.43,44.98
		l820.256,0.15C2885.119,1480.744,2915.1,1363.266,2812.251,1331.687z"/>
	<g>
		<path style="fill:#EBF3FA;" d="M1481.039,481.129h46.508v9.998h-35.527v17.05h31.51v9.998h-31.51v25.44h-10.98V481.129z"/>
		<path style="fill:#EBF3FA;" d="M1564.953,543.615v-5.802c-3.213,3.838-8.123,6.783-15.265,6.783
			c-8.927,0-16.782-5.088-16.782-14.729c0-10.442,8.124-15.442,19.104-15.442c5.713,0,9.373,0.804,13.032,1.964v-0.893
			c0-6.517-4.106-10.088-11.604-10.088c-5.268,0-9.194,1.161-13.479,2.947l-2.945-8.66c5.177-2.319,10.266-3.927,17.941-3.927
			c13.927,0,20.711,7.32,20.711,19.906v27.94H1564.953z M1565.221,523.887c-2.767-1.071-6.605-1.873-10.801-1.873
			c-6.784,0-10.802,2.767-10.802,7.497c0,4.464,4.018,6.963,9.105,6.963c7.142,0,12.497-4.017,12.497-9.908V523.887z"/>
		<path style="fill:#EBF3FA;" d="M1584.684,537.456l4.82-7.319c5.088,3.838,10.623,5.802,15.443,5.802
			c4.642,0,7.319-1.964,7.319-5.267c0-3.481-4.552-4.73-9.729-6.249c-0.268-0.089-0.535-0.178-0.804-0.269
			c-6.962-2.052-14.729-4.909-14.729-14.103c0-8.926,7.409-14.371,16.782-14.371c5.891,0,12.318,2.053,17.317,5.355l-4.285,7.677
			c-4.553-2.767-9.372-4.463-13.301-4.463c-4.195,0-6.605,1.964-6.605,4.91c0,3.213,4.553,4.641,9.73,6.337
			c0.269,0.09,0.625,0.179,0.892,0.268c6.875,2.143,14.641,5.268,14.641,13.926c0,9.908-7.677,14.818-17.496,14.818
			C1597.985,544.508,1590.576,542.098,1584.684,537.456z"/>
		<path style="fill:#EBF3FA;" d="M1633.158,478.45h10.802v25.352c3.036-4.463,7.409-8.302,14.729-8.302
			c10.623,0,16.782,7.142,16.782,18.122v29.993h-10.801v-26.779c0-7.321-3.66-11.516-10.088-11.516
			c-6.247,0-10.622,4.374-10.622,11.693v26.602h-10.802V478.45z"/>
		<path style="fill:#EBF3FA;" d="M1688.686,478.986h11.605v10.266h-11.605V478.986z M1689.133,496.482h10.801v47.133h-10.801
			V496.482z"/>
		<path style="fill:#EBF3FA;" d="M1711.45,520.138c0-13.479,10.712-24.638,25.174-24.638c14.46,0,25.083,10.979,25.083,24.638
			c0,13.391-10.711,24.549-25.262,24.549C1722.073,544.687,1711.45,533.707,1711.45,520.138z M1750.906,520.138
			c0-8.302-5.98-15.175-14.461-15.175c-8.659,0-14.193,6.784-14.193,15.175c0,8.213,5.98,15.176,14.372,15.176
			C1745.371,535.313,1750.906,528.44,1750.906,520.138z"/>
		<path style="fill:#EBF3FA;" d="M1772.691,496.482h10.802v7.319c3.034-4.463,7.408-8.302,14.729-8.302
			c10.623,0,16.782,7.142,16.782,18.122v29.993h-10.801v-26.779c0-7.321-3.66-11.516-10.088-11.516
			c-6.248,0-10.622,4.374-10.622,11.693v26.602h-10.802V496.482z"/>
		<path style="fill:#EBF3FA;" d="M1853.305,512.372c0-17.586,13.568-32.314,32.76-32.314c19.192,0,32.582,14.55,32.582,32.314
			c0,17.586-13.568,32.314-32.76,32.314C1866.694,544.687,1853.305,530.137,1853.305,512.372z M1907.132,512.372
			c0-12.14-8.837-22.228-21.245-22.228c-12.409,0-21.068,9.908-21.068,22.228c0,12.14,8.838,22.228,21.246,22.228
			S1907.132,524.691,1907.132,512.372z"/>
		<path style="fill:#EBF3FA;" d="M1930.166,526.477v-29.994h10.802v26.78c0,7.319,3.661,11.515,10.087,11.515
			c6.249,0,10.623-4.373,10.623-11.693v-26.602h10.802v47.133h-10.802v-7.32c-3.035,4.464-7.408,8.302-14.729,8.302
			C1936.326,544.597,1930.166,537.456,1930.166,526.477z"/>
		<path style="fill:#EBF3FA;" d="M1988.283,530.582v-24.816h-5.981v-9.283h5.981v-12.943h10.802v12.943h12.675v9.283h-12.675v23.121
			c0,4.195,2.142,5.891,5.802,5.891c2.41,0,4.553-0.534,6.695-1.606v8.838c-2.678,1.518-5.714,2.409-9.73,2.409
			C1993.907,544.418,1988.283,540.938,1988.283,530.582z"/>
		<path style="fill:#EBF3FA;" d="M2023.277,478.45h10.801v65.165h-10.801V478.45z"/>
		<path style="fill:#EBF3FA;" d="M2045.596,520.049c0-13.48,9.552-24.549,23.031-24.549c14.996,0,22.584,11.784,22.584,25.352
			c0,0.714-0.09,2.499-0.179,3.034h-34.636c1.16,7.677,6.605,11.963,13.569,11.963c5.266,0,9.016-1.964,12.765-5.625l6.338,5.625
			c-4.463,5.355-10.623,8.837-19.281,8.837C2056.13,544.687,2045.596,534.777,2045.596,520.049z M2080.499,516.746
			c-0.714-6.963-4.82-12.407-11.962-12.407c-6.605,0-11.248,5.087-12.229,12.407H2080.499z"/>
		<path style="fill:#EBF3FA;" d="M2104.337,530.582v-24.816h-5.981v-9.283h5.981v-12.943h10.801v12.943h12.676v9.283h-12.676v23.121
			c0,4.195,2.142,5.891,5.803,5.891c2.409,0,4.552-0.534,6.694-1.606v8.838c-2.679,1.518-5.712,2.409-9.73,2.409
			C2109.961,544.418,2104.337,540.938,2104.337,530.582z"/>
	</g>
	<path style="fill:#AFCDFB;" d="M2505.656,594.381c-0.46,1.83-0.93,3.671-1.428,5.521c-2.311,8.791-4.899,17.745-7.775,26.843
		c-0.479,1.534-0.969,3.067-1.467,4.602H445.391c0.375-0.278,0.758-0.557,1.132-0.834c15.301-11.227,30.467-21.408,45.489-30.61
		c3.067-1.879,6.126-3.72,9.184-5.521H2505.656z"/>
	<g>
		<path style="fill:#233862;" d="M2580.869,831.096c0,0-21.723-26.098-40.332-24.729c-4.691-4.942-15.348-12.945-30.369-5.037
			c-20.639,10.865-48.638,4.474-56.368,38.347c-7.729,33.873,17.09,57.243,0,67.746c-30.419,18.694,1.438,73.019,31.416,74.297
			c29.978,1.278,60.999-44.898,60.999-44.898l-1.367-57.979L2580.869,831.096z"/>
		<path style="fill:#163560;" d="M2551.87,1420.348c13.887,39.147,22.662,52.532,22.662,52.532l17.575,1.118
			c0,0-4.534-17.582-8.115-59.27c-2.503-29.146-2.167-63.904,6.222-97.856c28.822-116.676,14.633-198.254,14.633-198.254
			l-73.53,15.754l-3.425,0.734c2.931,34.177,6.448,80.625,9.118,116.952c2.412,32.67,4.132,57.151,4.132,57.151
			C2529.768,1341.354,2539.085,1384.319,2551.87,1420.348z"/>
		<path style="fill:#1C468A;" d="M2467.895,1386.119c-9.853,46.017-8.105,86.018-8.105,86.018l13.641,5.176
			c0,0,8.021-37.513,26.646-71.38c19.173-34.865,35.908-65.381,42.182-77.174c24.908-46.772,25.952-218.685,25.952-218.685
			l-75.727-3.756c-7.615,12.803-10.936,33.803-11.725,57.68c-1.992,60.261,12.174,138.838,14.29,150.202
			c0,0.007,0,0.014,0.008,0.028c0.166,0.877-0.091,1.742-0.499,2.538C2479.492,1346.592,2474.261,1356.386,2467.895,1386.119z"/>
		<path style="fill:#D9935C;" d="M2601.272,1127.207c-19.039-0.221-70.846-1.207-83.299-5.358
			c-15.339-5.119-18.857-20.132-18.857-21.733c0-0.345,1.257-7.391,3.25-18.301c3.979-8.36,5.964-13.393,6.087-18.713
			c0.068-2.599-0.315-5.264-1.12-8.408c-1.649-6.413-5.063-14.84-10.114-28.808c-1.783-4.909-3.001-9.961-3.759-15.061
			c-5.972-40.179-4.187-83.715,31.703-86.56c4.017-1.064,10.824-15.578,10.738-38.951l1.812,0.355l30.399,6.021
			c0,0-0.69,9.567-0.71,18.579c-0.019,7.506,0.432,14.629,2.139,15.53c2.186,0.191,3.48,0.326,3.48,0.326s0.027,0.038,0.086,0.115
			c5.79,0.374,21.157,1.744,23.19,5.896l-5.618,17.064l-1.63,4.966c4.305,9.241,8.312,19.94,10.296,30.745
			c0.557,3.058,0.949,6.116,1.15,9.164c0.173,2.598,0.183,5.072,0.067,7.469c-1.218,27.85-18.742,44.684,0.105,104.926
			C2603.373,1115.109,2603.354,1121.925,2601.272,1127.207z"/>
		<path style="fill:#D9935C;" d="M2579.546,1064.637c30.435,0.926,74.246-34.122,74.246-34.122l-5.996-9.22
			c-11.067,7.373-50.266,14.29-50.266,14.29c2.746-8.868,4.849-17.071,6.411-24.639c10.639-51.428-3.52-73.644-7.643-78.811
			c-0.664-0.837-1.072-1.225-1.072-1.225s-0.125,0.36-0.353,1.045c-0.505,1.473-1.509,4.447-2.836,8.543
			C2582.14,971.001,2554.112,1063.869,2579.546,1064.637z"/>
		<path style="fill:#EE9849;" d="M2601.272,1127.207c-9.484,12.854-65.417,12.85-77.87,8.699
			c-15.339-5.119-24.286-34.189-24.286-35.791c0-0.345,1.257-7.391,3.25-18.301c1.361-7.516,3.078-16.873,4.967-27.121
			c8.292-45.029,19.863-107.324,19.863-107.324s25.165,21.791,41.961,17.257c16.796-4.534,21.35-15.98,21.35-15.98
			s0.058,0.191,0.173,0.556c1.112,3.566,7.219,23.439,8.455,33.64c0.057,0.479,0.125,1.17,0.211,2.071
			c0.288,3.24,0.709,9.088,1.218,16.633c-1.218,27.85-18.742,44.684,0.105,104.926
			C2603.373,1115.109,2603.354,1121.925,2601.272,1127.207z"/>
		<path style="fill:#CB7D45;" d="M2568.115,891.688c0,0-0.691,9.568-0.713,18.581c-17.013-0.479-26.006-15.999-29.689-24.601
			L2568.115,891.688z"/>
		<path style="fill:#233862;" d="M2534.572,882.358c0,0-8.916-14.088-11.056-26.133c-1.527-8.601,2.853-40.477,34.886-35.886
			c0,0,9.304,0.916,18.049,6.823c6.955,4.697,16.992,14.838,5.77,42.654l-2.916,9.397L2534.572,882.358z"/>
		<path style="fill:#D9935C;" d="M2573.796,900.223c0,0-40.252,0.664-40.279-24.41c-0.027-25.072-5.241-41.873,20.457-43.357
			c25.698-1.484,30.703,8.078,32.747,16.445C2588.766,857.267,2584.267,899.404,2573.796,900.223z"/>
		<path style="fill:#233862;" d="M2585.524,834.959c-6.212-7.529-10.908-5.893-13.546-3.631
			c-43.66-25.985-51.856,34.096-51.856,34.096s7.337,4.531,24.25,0.183c5.167-1.328,9.779-5.001,13.7-9.454
			c-6.846,11.473-16.162,19.74-16.162,19.74c20.234-9.353,28.338-37.513,29.125-40.41c2.457,2.206,7.301,7,8.777,11.699
			c2.006,6.384,2.909,19.528,6.74,19.081C2586.553,866.263,2594.855,846.269,2585.524,834.959z"/>
		<path style="fill:#283250;" d="M2631.339,1499.721c0.055,0.055,0.079,0.085,0.079,0.085h4.154
			c-0.356-0.054-0.725-0.085-1.099-0.085H2631.339z"/>
		<path style="fill:#D9935C;" d="M2647.796,1021.295c0.461-1.155,6.225-18.217,10.605-20.523c4.382-2.305,12.451-4.841,14.295-3.919
			c1.845,0.922,5.304,13.834,0,20.521c-5.303,6.686-18.904,13.142-18.904,13.142L2647.796,1021.295z"/>
		<path style="fill:#D86713;" d="M2550.944,1218.032c-7.728,16.93-24.082,103.096-27.715,125.49
			c-30.382-3.125-53.178-18.368-69.428-35.116c8.666-32.758,17.295-71.699,19.433-103.346c0.508-7.554,1.304-16.824,2.311-27.341
			c4.073-42.747,11.677-106.029,18.205-158.276c6.422-51.404,11.761-92.748,11.761-92.748l16.021-1.984
			c0,0,19.951,17.223,23.373,76.019C2548.327,1059.535,2569.331,1177.729,2550.944,1218.032z"/>
		<path style="fill:#D86713;" d="M2625.188,1079.085c6.401-20.852,3.274-50.423,3.274-50.423s-6.666,1.721-10.737,0.269
			c-1.258-5.97-2.618-11.909-4.048-17.749v-0.008c3.355-45.322-12.622-75.791-18.451-80.264c-5.828-4.473-22.335-4.861-22.209-4.786
			c0,0,11.596,34.324,15.975,47.686c9.348,28.52,1.26,62.299,3.596,116.718c3.41,79.477,11.431,151.563,11.431,151.563
			s23.561-89.888,21.643-153.8C2625.571,1085.289,2625.412,1082.216,2625.188,1079.085z"/>
		<path style="fill:#1C468A;" d="M2473.43,1477.313c0,0,15.047,11.704,21.165,13.941c6.119,2.237,14.431,4.351,14.428,8.467h-29.08
			c0,0-7.908-3.674-11.223-2.088c-5.351,2.559-9.832,2.162-13.522,2.173c-3.691,0.011-3.936-12.387-0.819-16.7
			s5.411-10.969,5.411-10.969L2473.43,1477.313z"/>
		<path style="fill:#163560;" d="M2592.107,1473.998c0,0,16.682,15.019,22.801,17.256c6.12,2.237,14.432,4.351,14.428,8.467h-29.08
			c0,0-7.908-3.674-11.223-2.088c-5.351,2.559-9.831,2.162-13.522,2.173c-3.69,0.011-3.935-12.387-0.819-16.7
			c3.116-4.313-0.159-10.226-0.159-10.226L2592.107,1473.998z"/>
		<g>
			<g>
				<path style="fill:#3675C1;" d="M2431.688,1163.815c-13.609-1.714-22.351,9.618-27.338,19.631
					c-5.53,11.102-7.651,22.654-7.738,23.14c-0.138,0.766,0.158,1.488,0.661,1.614c0.504,0.122,1.023-0.393,1.162-1.157
					c0.021-0.114,2.125-11.537,7.428-22.152c7.01-14.033,16.044-20.106,26.846-18.058c7.337,1.392,12.411,5.765,15.082,12.997
					c5.001,13.534-0.018,32.832-0.068,33.024c-0.197,0.745,0.034,1.525,0.517,1.743c0.485,0.215,1.036-0.209,1.233-0.954
					c0.223-0.839,5.401-20.712,0.003-35.344c-2.936-7.958-8.433-12.755-16.337-14.255
					C2432.648,1163.952,2432.166,1163.876,2431.688,1163.815z"/>
			</g>
			<polygon style="fill:#4A84D8;" points="2427.117,1197.518 2418.622,1373.948 2483.479,1377.071 2487.858,1200.441 			"/>
			<path style="fill:#699FF0;" d="M2447.885,1198.517c0.39-6.383,0.057-13.804-2.31-20.217c-2.936-7.959-8.433-12.755-16.337-14.255
				c-0.49-0.093-0.974-0.169-1.45-0.229c-13.61-1.714-22.351,9.618-27.338,19.631c-2.165,4.344-3.804,8.754-5.006,12.546
				l-16.292-0.784l-16.982,176.021l100.064,4.819l14.364-176.149L2447.885,1198.517z M2401.963,1184.891
				c7.01-14.033,16.043-20.106,26.846-18.058c7.336,1.392,12.411,5.765,15.082,12.997c2.141,5.793,2.442,12.64,2.087,18.595
				l-48.544-2.337C2398.564,1192.626,2400.056,1188.707,2401.963,1184.891z"/>
			<polygon style="fill:#3675C1;" points="2481.138,1200.285 2472.651,1376.55 2462.234,1376.049 2476.599,1199.899 			"/>
		</g>
		<path style="fill:#D9935C;" d="M2504.575,1014.268c-2.167,7.819-4.44,16.136-6.541,23.922
			c-3.378,12.558-6.274,23.771-7.462,29.373c-3.627,17.206-43.483,83.349-43.483,83.349h-0.009c0,0-1.203,0.806-2.614,4.831
			s-12.683,25.373-17.513,25.373c-4.839,0-5.844-7.255-6.848-11.878c-1.004-4.632,4.433-10.475,8.251-12.89
			c3.07-1.934,6.033-7.877,7.097-10.159c9.362-23.307,20.143-68.492,23.712-76.816c1.296-3.029,3.785-17.322,7.056-35.748
			c2.473-13.953,5.395-30.271,8.557-45.85C2483.575,994.281,2494.806,1003.486,2504.575,1014.268z"/>
		<g>
			<path style="fill:#F1A34F;" d="M2641.703,1014.868l17.03,5.67c0.627,0.21,1.306-0.129,1.515-0.758l12.836-38.548
				c0.209-0.628-0.131-1.306-0.758-1.515l-17.031-5.671c-0.627-0.209-1.306,0.13-1.516,0.758l-12.834,38.549
				C2640.736,1013.981,2641.074,1014.658,2641.703,1014.868z"/>
			<path style="fill:#D86713;" d="M2646.259,1016.385l15.272,5.086c1.113,0.37,2.315-0.232,2.687-1.345l12.25-36.79
				c0.37-1.113-0.231-2.316-1.345-2.686l-15.272-5.086c-1.112-0.37-2.315,0.231-2.687,1.345l-12.25,36.79
				C2644.544,1014.812,2645.145,1016.014,2646.259,1016.385z"/>
		</g>
		<path style="fill:#D9935C;" d="M2673.734,998.582c0,0-3.459-7.148-9.799-4.267c-6.342,2.883-3.574,13.72,0.115,17.523
			c3.689,3.805,4.727,5.534,4.727,5.534L2673.734,998.582z"/>
		<path style="fill:#BA550F;" d="M2475.545,1177.72c4.073-42.747,11.677-106.029,18.205-158.276
			c5.406-4.237,11.015-5.858,11.015-5.858S2540.734,1117.794,2475.545,1177.72z"/>
		<path style="fill:#D86713;" d="M2505.511,926.695c0,0-13.92,2.628-21.733,14.281c-9.339,13.928-24.925,117.436-33.074,135.172
			c-8.148,17.735-11.983,25.405-11.983,25.405s-4.313,27.526,23.009,43.722c0,0,33.074-60.02,37.388-68.647
			C2503.431,1068,2517.232,945.136,2505.511,926.695z"/>
	</g>
	<g>
		<path style="fill:#FFB27D;" d="M1819.889,1104.375c0,0,0.637,13.818,2.291,19.771c1.654,5.953,15.232,20.407,20.324,17.146
			c5.091-3.262,0.506-15.256,2.053-19.858c1.546-4.603-5.55-21.411-8.517-24.808
			C1833.072,1093.23,1819.889,1104.375,1819.889,1104.375z"/>
		<path style="fill:#E58638;" d="M1736.921,863.635c0,0,76.395,98.632,91.471,152.906s15.076,93.472,15.076,93.472
			s-9.648,3.849-24.725,3.432c0,0-21.106-78.431-31.962-86.159c-10.854-7.729-72.139-91.553-67.729-116.277
			C1723.462,886.283,1736.921,863.635,1736.921,863.635z"/>
		<path style="fill:#FFB27D;" d="M1528.19,1016.475c0,0-16.618-0.959-23.967,0c-7.351,0.958-26.523,12.782-23.329,18.215
			c3.196,5.432,18.18,2.26,23.471,4.325c5.29,2.065,26.382-3.048,30.855-5.604C1539.693,1030.854,1528.19,1016.475,1528.19,1016.475
			z"/>
		<path style="fill:#163560;" d="M1728.442,1469.641c0,0-1.515,24.418-6.049,30.16h-69.772c0.441-2.436,2.416-8.446,11.14-9.971
			c11.025-1.917,29.479-9.663,36.152-24.234C1706.939,1450.266,1728.442,1469.641,1728.442,1469.641z"/>
		<path style="fill:#163560;" d="M1861.293,1460.121c0,0,7.781,29.742,1.898,30.918c-0.781,0.156-28.578,3.054-36.015,4.985
			c-12.144,3.155-32.896,3.728-32.896,3.728c-2.566,0.381-4.552-2.231-3.474-4.592c1.182-2.59,3.652-5.483,8.783-7.047
			c10.703-3.263,28.063-13.219,32.897-28.498C1837.574,1443.54,1861.293,1460.121,1861.293,1460.121z"/>
		<path style="fill:#163560;" d="M1695.637,1144.399c0,0,17.543,61.39,67.824,167.994c50.282,106.605,61.22,154.111,61.22,154.111
			l39.035-5.951c0,0-14.712-121.492-38.463-175.29c-23.752-53.797-28.591-201.012-28.591-201.012L1695.637,1144.399z"/>
		<path style="fill:#1C468A;" d="M1667.47,1091.579c0,0-1.397,95.059,15.051,211.773c16.445,116.716,10.872,166.259,10.872,166.259
			l39.391,1.31c0,0,23.541-116.758,16.791-175.177c-6.75-58.418,32.235-200.46,32.235-200.46L1667.47,1091.579z"/>
		<path style="fill:#FFB27D;" d="M1745.195,869.13l-18.578,13.76l-26.851-5.652c0.372-2.449,2.144-12.597,3.758-21.789
			c0.098-0.542,0.194-1.084,0.286-1.614c1.383-7.821,2.577-14.54,2.577-14.54l25.078-12.5l9.351-4.659
			c-0.024,0.164-0.725,8.68-0.822,9.922C1738.24,854.133,1745.195,869.13,1745.195,869.13z"/>
		<path style="fill:#E58638;" d="M1701.645,862.187c0.59-0.248,36.526-10.853,40.431-9.564c3.904,1.289,6.216,8.842,6.216,8.842
			l-58.781,13.29C1689.51,874.755,1694.136,865.348,1701.645,862.187z"/>
		<path style="fill:#EE9849;" d="M1798.417,1103.314c-6.092,27.789-107.472,31.084-133.604,5.859
			c-2.972-2.875-3.118-16.252-1.998-34.288c2.192-35.239,9.235-88.247,9.509-115.329c0.134-13.078,1.931-26.455,4.325-38.602
			c5.093-25.889,12.859-46.203,12.859-46.203s49.517-16.008,58.782-13.285C1792.928,874.582,1804.508,1075.525,1798.417,1103.314z"
			/>
		<path style="fill:#E58638;" d="M1662.815,1074.886c2.192-35.239,9.235-88.247,9.509-115.329
			c0.134-13.078,1.931-26.455,4.325-38.602l29.787-5.257C1706.437,915.698,1735.559,1034.651,1662.815,1074.886z"/>
		<path style="fill:#FCA56B;" d="M1738.111,832.447c-5.506,10.538-26.028,19.65-34.587,23.001c0.098-0.542,0.194-1.084,0.286-1.614
			c1.383-7.821,2.577-14.54,2.577-14.54l25.078-12.5C1737.01,826.709,1740.384,828.109,1738.111,832.447z"/>
		<path style="fill:#FFB27D;" d="M1694.2,837.826c0,0,45.245,14.113,53.601-14.197c8.355-28.312,19.822-45.558-8.712-55.766
			c-28.533-10.208-37.36-1.069-42.447,7.703C1691.554,784.337,1682.646,833.425,1694.2,837.826z"/>
		<path style="fill:#163560;" d="M1698.7,772.373c0,0,8.205,33.41,15.019,31.979c6.813-1.43,12.992-2.49,11.994,7.441
			c-0.997,9.932-10.445,21.398,10.553,23.156c20.996,1.757,51.182-52.393,45.414-62.647
			C1765.036,742.721,1674.645,736.285,1698.7,772.373z"/>
		<path style="fill:#EE9849;" d="M1689.51,874.755c0,0-54.268,90.713-82.069,103.114c-27.802,12.401-83.405,33.211-83.405,33.211
			s0.321,23.609,10.547,27.443c10.225,3.835,87.559-15.978,97.145-18.533c9.587-2.558,78.101-51.023,86.458-63.912
			C1726.541,943.188,1724.242,876.977,1689.51,874.755z"/>
	</g>
</g>
</svg>
