<?xml version="1.0" encoding="utf-8"?>
<!-- Generator: Adobe Illustrator 27.5.0, SVG Export Plug-In . SVG Version: 6.00 Build 0)  -->
<svg version="1.1" xmlns="http://www.w3.org/2000/svg" xmlns:xlink="http://www.w3.org/1999/xlink" x="0px" y="0px"
	 viewBox="0 0 500 500" style="enable-background:new 0 0 500 500;" xml:space="preserve">
<g id="Background_Simple">
	<g>
		<path style="fill:#92E3A9;" d="M334.476,37.629c0,0-77.766-27.5-154.204,16.571C103.834,98.272,65.171,185.594,31.977,255.547
			c-33.194,69.952-14.249,141.03,44.006,173.367c58.255,32.337,97.968-15.514,179.76-17.959
			c81.792-2.445,103.772,9.193,171.707-37.019c67.935-46.211,80.361-155.135,26.94-235.639
			C400.969,57.793,334.476,37.629,334.476,37.629z"/>
		<path style="opacity:0.7;fill:#FFFFFF;" d="M334.476,37.629c0,0-77.766-27.5-154.204,16.571
			C103.834,98.272,65.171,185.594,31.977,255.547c-33.194,69.952-14.249,141.03,44.006,173.367
			c58.255,32.337,97.968-15.514,179.76-17.959c81.792-2.445,103.772,9.193,171.707-37.019
			c67.935-46.211,80.361-155.135,26.94-235.639C400.969,57.793,334.476,37.629,334.476,37.629z"/>
	</g>
</g>
<g id="Plants">
	<path style="fill:#C7C7C7;" d="M436.838,339.939l39.623-29.861l-44.791,22.395l25.841-44.217l-34.454,39.623l9.365-45.042
		l4.417,1.028l-3.943-3.307l2.037-9.796l34.064,3.915l-44.217-14.356l45.365-8.039h-51.107l39.623-29.861l-44.791,22.395
		l20.245-34.641l20.526,4.78l-15.65-13.125l0.719-1.231l-0.922,1.061l-1.949-1.635l43.646,5.017c0.762,0.088,0.999-1,0.269-1.237
		l-38.172-12.394l38.242-6.777c0.765-0.135,0.666-1.262-0.111-1.262h-43.874l34.693-26.146c0.548-0.413,0.022-1.261-0.591-0.954
		l-39.27,19.635l22.805-39.022c0.346-0.591-0.463-1.171-0.912-0.654l-30.506,35.082l11.115-53.455
		c0.108-0.521-0.63-0.748-0.834-0.257l-20.617,49.693l-1.789-46.952c-0.036-0.949-1.433-0.974-1.504-0.027l-3.598,48.128
		l-20.93-46.493c-0.316-0.701-1.373-0.315-1.162,0.425l14.626,51.236l-36.55-39.871l30.464,46.768l-0.087,1.164l-43.662-31.15
		l36.559,34.649l-36.849-17.067c-0.316-0.173-0.592,0.281-0.294,0.483l22.659,15.289l1.539,9.062l-20.658-2.691
		c-0.395-0.051-0.512,0.52-0.129,0.628l21.468,6.074l0.959,5.647l-18.827,3.144l-5.977-8.585l26.989,54.553l-41.425-27.066
		l38.554,35.68l-42.749-17.5l38.729,20.945l-40.128-3.464l38.979,9.207l-27.092,6.177l28.241-2.157l-18.95,12.633l33.126-8.919
		l10.78,37.76c0.033,2.98,0.084,6.677,0.141,10.6l-32.359-35.3l31.956,49.059l-45.241-32.277l42.37,40.89l-47.964-26.207
		l43.945,29.652l-39.749-5.178l38.601,10.921l-30.909,5.162l32.057-1.142l-18.95,12.633l26.518-7.14
		c-0.056,4.979-0.126,10.846-0.195,16.627c-0.085,7.145-0.166,14.033-0.215,18.613h-11.444c-1.797,0-3.485,0.957-4.408,2.497
		l-12.293,20.487c-1.946,3.243-2.5,7.198-1.519,10.852l5.462,20.35c0.854,3.182,3.739,5.395,7.033,5.395h55.986
		c3.288,0,6.181-2.219,7.034-5.395l5.461-20.35c0.981-3.653,0.428-7.608-1.519-10.852l-12.293-20.488
		c-0.929-1.549-2.603-2.496-4.409-2.496H413.16c0.052-10.663,0.122-25.009,0.192-40.012l41.287,9.615l-17.802-14.93l49.959,5.743
		l-44.217-14.356l45.365-8.039H436.838z M434.757,270.743l-3.502,8.441l-12.219-10.248L434.757,270.743z M431.842,209.649
		l-18.512,21.288c-0.072-10.081-0.142-19.296-0.191-25.644L431.842,209.649z M395.24,289.315
		c-0.677-3.387-0.289-10.318,0.106-15.111l9.759,2.273c-0.609,1.853-0.789,4.113-1.076,7.888c-0.077,1.012-0.163,2.138-0.268,3.397
		c-0.311,3.726-0.898,4.514-1.872,5.821c-0.729,0.977-1.635,2.193-2.62,4.657c-0.541,1.351-1.071,4.552-1.57,8.706l-0.785-1.743
		C396.721,299.325,396.156,293.894,395.24,289.315z M402.053,299.353c0.84-2.099,1.584-3.098,2.24-3.978
		c1.291-1.731,2.101-3.092,2.457-7.363c0.105-1.268,0.191-2.401,0.27-3.42c0.286-3.755,0.448-5.881,1.017-7.432l1.346,0.314
		l-3.554,47.536l-5.697-12.655C400.754,305.974,401.418,300.941,402.053,299.353z M405.254,240.224l4.969-23.897
		c0.041,5.43,0.086,11.604,0.132,18.032L405.254,240.224z M407.163,206.691l-12.245,29.513l-0.988-25.95L407.163,206.691z
		 M392.829,181.355l0.941,1.445l-0.911-0.65L392.829,181.355z M389.974,211.319l-1.946,26.034l-7.507-23.489L389.974,211.319z
		 M379.202,209.739l-1.531-4.79l9.207-0.328L379.202,209.739z M371.029,184.164l15.85,10.695l-12.972-1.69L371.029,184.164z
		 M375.343,197.663l10.388,2.939l-8.97,1.498L375.343,197.663z M354.967,205.758l19.236-0.685l1.22,7.186l-7.494,4.996l7.978-2.148
		l4.655,27.415L354.967,205.758z M392.284,274.814c-0.38,4.906-0.692,11.556,0.015,15.09c0.457,2.286,0.819,4.803,1.094,7.482
		l-9.183-20.398L392.284,274.814z M397.038,401.92c0.048-4.573,0.13-11.447,0.214-18.578c0.072-6.11,0.146-12.317,0.204-17.472
		l12.895-3.472c-0.069,14.827-0.138,28.977-0.19,39.522H397.038z M413.623,278.46l16.353,3.808l-16.444,39.635
		c0.067-16.038,0.114-29.202,0.114-34.592C413.645,285.054,413.637,282.028,413.623,278.46z"/>
</g>
<g id="Clock">
	<g>
		<circle style="fill:none;stroke:#263238;stroke-linecap:round;stroke-miterlimit:10;" cx="370.5" cy="76.5" r="38.5"/>
		<circle style="fill:none;stroke:#263238;stroke-linecap:round;stroke-miterlimit:10;" cx="370.5" cy="76.5" r="34.764"/>
		<polyline style="fill:none;stroke:#263238;stroke-linecap:round;stroke-miterlimit:10;" points="384.286,80.783 370.5,76.5 
			386.827,52.828 		"/>
		<circle style="fill:#263238;stroke:#263238;stroke-miterlimit:10;" cx="370.5" cy="76.5" r="1.952"/>
		<circle style="fill:none;stroke:#263238;stroke-linecap:round;stroke-miterlimit:10;" cx="357.051" cy="58.799" r="7.045"/>
		<path style="fill:none;stroke:#263238;stroke-linecap:round;stroke-miterlimit:10;" d="M360.07,71.044
			c0,0.834-0.676,1.51-1.51,1.51s-1.51-0.676-1.51-1.51c0-0.834,0.676-1.51,1.51-1.51S360.07,70.21,360.07,71.044z"/>
	</g>
</g>
<g id="Dresser">
	<g>
		<polyline style="fill:none;stroke:#263238;stroke-miterlimit:10;" points="46.965,76 245.377,76 245.377,461.026 35.115,461.026 
			35.115,76 41.016,76 		"/>
		<g>
			<rect x="175.29" y="84.334" style="fill:none;stroke:#263238;stroke-miterlimit:10;" width="63.716" height="368.358"/>
			<rect x="107.933" y="84.334" style="fill:none;stroke:#263238;stroke-miterlimit:10;" width="60.075" height="368.358"/>
			<line style="fill:none;stroke:#263238;stroke-miterlimit:10;" x1="100.651" y1="184.522" x2="100.651" y2="177.829"/>
			<polyline style="fill:none;stroke:#263238;stroke-miterlimit:10;" points="100.651,171.879 100.651,84.334 41.486,84.334 
				41.486,452.692 100.651,452.692 100.651,192.703 			"/>
		</g>
	</g>
</g>
<g id="Clothe_1_">
	<g>
		<path style="fill:none;stroke:#263238;stroke-width:4;stroke-linejoin:round;stroke-miterlimit:10;" d="M135.583,461.112v-231.26
			c0-5.04,4.086-9.126,9.126-9.126h149.26c5.04,0,9.126,4.086,9.126,9.126v230.9"/>
		<g>
			<g>
				<g>
					<path style="fill:#FFFFFF;stroke:#263238;stroke-linecap:round;stroke-linejoin:round;stroke-miterlimit:10;" d="
						M312.441,262.852l-4.402-3.043c-6.156-4.256-11.131-10.489-14.331-17.955l-3.669-8.561h-0.551h-4.723h-0.551l-3.669,8.561
						c-3.2,7.466-8.175,13.7-14.331,17.955l-4.402,3.043c-2.461,1.701-3.97,4.791-3.97,8.129h26.923h4.723h26.923
						C316.412,267.643,314.903,264.553,312.441,262.852z M288.762,267.381h-3.271h-21.9c0-2.7,4.304-5.2,6.008-6.576l3.048-2.462
						c4.262-3.443,7.707-8.486,9.923-14.526l2.541-6.926h0.382h3.271h0.382l2.541,6.926c2.216,6.04,5.66,11.083,9.923,14.526
						l3.048,2.462c1.704,1.376,5.927,3.876,5.927,6.576H288.762z"/>
					<path style="fill:none;stroke:#263238;stroke-linecap:round;stroke-linejoin:round;stroke-miterlimit:10;" d="M287.093,233.152
						v-6.284c0,0,3.591-2.693,3.591-6.583c0-3.89-2.992-5.386-6.284-4.189"/>
				</g>
				<g>
					<path style="fill:#FFFFFF;stroke:#263238;stroke-linecap:round;stroke-linejoin:round;stroke-miterlimit:10;" d="
						M270.362,253.367c0,0,6.672,7.694,15.057,7.825c8.904,0.14,19.366-7.652,19.366-7.652s3.089,2.814,7.75,5.356
						c4.66,2.542,7.723,6.261,10.168,12.71c2.726,7.191,8.742,26.74,8.742,26.74l-17.325,0.848l2.373,39.294H258.87l3.902-40.032
						h-16.821c0,0,5.574-26.425,8.116-31.509C256.609,261.861,270.362,253.367,270.362,253.367z"/>
				</g>
			</g>
			
				<line style="fill:none;stroke:#263238;stroke-linecap:round;stroke-linejoin:round;stroke-miterlimit:10;" x1="262.772" y1="298.455" x2="263.653" y2="277.453"/>
			
				<line style="fill:none;stroke:#263238;stroke-linecap:round;stroke-linejoin:round;stroke-miterlimit:10;" x1="314.12" y1="299.193" x2="312.763" y2="278.797"/>
		</g>
		<g>
			<g>
				<g>
					<path style="fill:#FFFFFF;stroke:#263238;stroke-linecap:round;stroke-linejoin:round;stroke-miterlimit:10;" d="
						M303.472,262.852l-4.402-3.043c-6.156-4.256-11.131-10.489-14.331-17.955l-3.669-8.561h-0.551h-4.723h-0.551l-3.669,8.561
						c-3.2,7.466-8.175,13.7-14.331,17.955l-4.402,3.043c-2.461,1.701-3.97,4.791-3.97,8.129h26.923h4.723h26.923
						C307.442,267.643,305.933,264.553,303.472,262.852z M279.792,267.381h-3.27h-21.9c0-2.7,4.304-5.2,6.008-6.576l3.048-2.462
						c4.262-3.443,7.707-8.486,9.922-14.526l2.541-6.926h0.382h3.27h0.382l2.541,6.926c2.216,6.04,5.66,11.083,9.923,14.526
						l3.048,2.462c1.704,1.376,5.927,3.876,5.927,6.576H279.792z"/>
					<path style="fill:none;stroke:#263238;stroke-linecap:round;stroke-linejoin:round;stroke-miterlimit:10;" d="M278.123,233.152
						v-6.284c0,0,3.591-2.693,3.591-6.583c0-3.89-2.992-5.386-6.284-4.189"/>
				</g>
				<g>
					<path style="fill:#6B6B6B;stroke:#263238;stroke-linecap:round;stroke-linejoin:round;stroke-miterlimit:10;" d="
						M261.392,253.367c0,0,6.672,7.694,15.057,7.825c8.904,0.14,19.365-7.652,19.365-7.652s3.09,2.814,7.75,5.356
						c4.66,2.542,7.724,6.261,10.168,12.71c2.726,7.191,8.742,26.74,8.742,26.74l-17.325,0.848l2.373,39.294H249.9l3.902-40.032
						h-16.821c0,0,5.574-26.425,8.116-31.509C247.639,261.861,261.392,253.367,261.392,253.367z"/>
				</g>
			</g>
			
				<line style="fill:none;stroke:#263238;stroke-linecap:round;stroke-linejoin:round;stroke-miterlimit:10;" x1="253.802" y1="298.455" x2="254.683" y2="277.453"/>
			
				<line style="fill:none;stroke:#263238;stroke-linecap:round;stroke-linejoin:round;stroke-miterlimit:10;" x1="305.15" y1="299.193" x2="303.793" y2="278.797"/>
		</g>
		<g>
			<polygon style="fill:#FFFFFF;stroke:#263238;stroke-linecap:round;stroke-linejoin:round;stroke-miterlimit:10;" points="
				253.906,242.271 269.516,243.018 269.516,309.881 250.98,309.881 			"/>
			<g>
				<path style="fill:#FFFFFF;stroke:#263238;stroke-linecap:round;stroke-linejoin:round;stroke-miterlimit:10;" d="
					M287.707,261.48l-4.402-3.043c-6.156-4.256-11.131-10.489-14.331-17.956l-3.669-8.561h-0.551h-4.723h-0.551l-3.669,8.561
					c-3.2,7.466-8.175,13.7-14.331,17.956l-4.402,3.043c-2.461,1.701-3.97,4.791-3.97,8.129h26.923h4.723h26.923
					C291.678,266.272,290.168,263.182,287.707,261.48z M264.028,266.01h-3.271h-21.9c0-2.7,4.304-5.2,6.008-6.576l3.048-2.462
					c4.262-3.443,7.707-8.486,9.923-14.526l2.541-6.926h0.382h3.271h0.382l2.541,6.926c2.216,6.04,5.66,11.083,9.922,14.526
					l3.048,2.462c1.704,1.376,5.927,3.876,5.927,6.576H264.028z"/>
				<path style="fill:none;stroke:#263238;stroke-linecap:round;stroke-linejoin:round;stroke-miterlimit:10;" d="M262.359,231.781
					v-6.284c0,0,3.591-2.693,3.591-6.583c0-3.89-2.992-5.386-6.284-4.189"/>
			</g>
			<g>
				<path style="fill:#FFFFFF;stroke:#263238;stroke-linecap:round;stroke-linejoin:round;stroke-miterlimit:10;" d="
					M253.906,242.271l6.779,59.665l8.29-61.455c0,0,14.165,14.5,18.826,17.042c4.66,2.542,8.897,5.932,10.168,12.711
					c1.271,6.779,8.05,74.567,8.05,74.567l-15.676,0.847l1.416,38.337h-63.274l3.813-40.032H217.47c0,0,9.321-73.296,11.863-78.381
					C231.875,260.49,253.906,242.271,253.906,242.271z"/>
			</g>
			<path style="fill:#FFFFFF;stroke:#263238;stroke-linecap:round;stroke-linejoin:round;stroke-miterlimit:10;" d="
				M253.906,242.271l8.328,63.637l-1.986,2.648l-18.536-54.947C241.712,253.61,247.564,244.173,253.906,242.271z"/>
			<path style="fill:#FFFFFF;stroke:#263238;stroke-linecap:round;stroke-linejoin:round;stroke-miterlimit:10;" d="
				M268.975,240.482L257.6,324.445l25.818-71.497C283.418,252.948,268.893,239.068,268.975,240.482z"/>
			<path style="fill:#FFFFFF;stroke:#263238;stroke-linecap:round;stroke-linejoin:round;stroke-miterlimit:10;" d="
				M229.333,265.574c0,0-12.115,58.871-14.763,72.773c-2.648,13.902-3.972,36.41-3.972,36.41l23.17,0.662l6.62-99.301"/>
			<path style="fill:#FFFFFF;stroke:#263238;stroke-linecap:round;stroke-linejoin:round;stroke-miterlimit:10;" d="
				M296.459,265.574c0,0,12.115,58.871,14.763,72.773c2.648,13.902,3.972,36.41,3.972,36.41l-23.17,0.662l-6.62-99.301"/>
			
				<line style="fill:#FFFFFF;stroke:#263238;stroke-linecap:round;stroke-linejoin:round;stroke-miterlimit:10;" x1="257.6" y1="324.445" x2="257.6" y2="384.688"/>
		</g>
		<g>
			<g>
				<path style="fill:#FFFFFF;stroke:#263238;stroke-linecap:round;stroke-linejoin:round;stroke-miterlimit:10;" d="
					M263.023,262.852l-4.402-3.043c-6.156-4.256-11.131-10.489-14.331-17.955l-3.669-8.561h-0.551h-4.723h-0.551l-3.669,8.561
					c-3.2,7.466-8.175,13.7-14.331,17.955l-4.402,3.043c-2.461,1.701-3.97,4.791-3.97,8.129h26.923h4.723h26.923
					C266.993,267.643,265.484,264.553,263.023,262.852z M239.343,267.381h-3.27h-21.9c0-2.7,4.304-5.2,6.008-6.576l3.048-2.462
					c4.262-3.443,7.707-8.486,9.923-14.526l2.541-6.926h0.382h3.27h0.382l2.54,6.926c2.216,6.04,5.66,11.083,9.923,14.526
					l3.048,2.462c1.704,1.376,5.927,3.876,5.927,6.576H239.343z"/>
				<path style="fill:none;stroke:#263238;stroke-linecap:round;stroke-linejoin:round;stroke-miterlimit:10;" d="M237.674,233.152
					v-6.284c0,0,3.591-2.693,3.591-6.583c0-3.89-2.992-5.386-6.284-4.189"/>
			</g>
			<g>
				<path style="fill:#263238;stroke:#263238;stroke-linecap:round;stroke-linejoin:round;stroke-miterlimit:10;" d="
					M229.221,243.643L236,263.132l8.29-21.279c0,0,14.165,14.5,18.826,17.042c4.66,2.542,8.897,5.932,10.168,12.71
					c1.271,6.779,8.05,74.568,8.05,74.568l-15.676,0.847l1.416,38.337h-63.274l3.813-40.032h-14.829c0,0,9.321-73.297,11.863-78.381
					C207.19,261.861,229.221,243.643,229.221,243.643z"/>
				<polygon style="fill:#FFFFFF;stroke:#263238;stroke-linecap:round;stroke-linejoin:round;stroke-miterlimit:10;" points="
					222.866,248.303 226.679,269.064 234.729,255.506 229.645,241.101 				"/>
				<polygon style="fill:#FFFFFF;stroke:#263238;stroke-linecap:round;stroke-linejoin:round;stroke-miterlimit:10;" points="
					244.29,241.854 237.271,255.93 244.474,269.911 250.405,246.609 				"/>
				
					<line style="fill:none;stroke:#263238;stroke-linecap:round;stroke-linejoin:round;stroke-miterlimit:10;" x1="265.658" y1="347.021" x2="262.268" y2="282.622"/>
				
					<line style="fill:none;stroke:#263238;stroke-linecap:round;stroke-linejoin:round;stroke-miterlimit:10;" x1="207.614" y1="345.326" x2="213.545" y2="282.622"/>
			</g>
		</g>
		<g>
			<g>
				<path style="fill:#FFFFFF;stroke:#263238;stroke-linecap:round;stroke-linejoin:round;stroke-miterlimit:10;" d="
					M240.065,262.852l-4.402-3.043c-6.156-4.256-11.131-10.489-14.331-17.955l-3.669-8.561h-0.551h-4.723h-0.551l-3.669,8.561
					c-3.2,7.466-8.175,13.7-14.331,17.955l-4.402,3.043c-2.461,1.701-3.97,4.791-3.97,8.129h26.923h4.723h26.923
					C244.036,267.643,242.526,264.553,240.065,262.852z M216.386,267.381h-3.27h-21.9c0-2.7,4.304-5.2,6.008-6.576l3.048-2.462
					c4.262-3.443,7.707-8.486,9.922-14.526l2.541-6.926h0.382h3.27h0.382l2.541,6.926c2.216,6.04,5.66,11.083,9.923,14.526
					l3.048,2.462c1.704,1.376,5.927,3.876,5.927,6.576H216.386z"/>
				<path style="fill:none;stroke:#263238;stroke-linecap:round;stroke-linejoin:round;stroke-miterlimit:10;" d="M214.717,233.152
					v-6.284c0,0,3.591-2.693,3.591-6.583c0-3.89-2.992-5.386-6.284-4.189"/>
			</g>
			<g>
				<path style="fill:#6B6B6B;stroke:#263238;stroke-linecap:round;stroke-linejoin:round;stroke-miterlimit:10;" d="
					M206.264,243.643l6.779,19.489l8.29-21.279c0,0,14.165,14.5,18.826,17.042c4.661,2.542,8.897,5.932,10.168,12.71
					c1.271,6.779,8.05,74.568,8.05,74.568l-15.676,0.847l1.416,38.337h-63.274l3.813-40.032h-14.829c0,0,9.321-73.297,11.863-78.381
					C184.233,261.861,206.264,243.643,206.264,243.643z"/>
				<polygon style="fill:#FFFFFF;stroke:#263238;stroke-linecap:round;stroke-linejoin:round;stroke-miterlimit:10;" points="
					199.909,248.303 203.722,269.064 211.772,255.506 206.688,241.101 				"/>
				<polygon style="fill:#FFFFFF;stroke:#263238;stroke-linecap:round;stroke-linejoin:round;stroke-miterlimit:10;" points="
					221.333,241.854 214.314,255.93 221.517,269.911 227.448,246.609 				"/>
				
					<line style="fill:none;stroke:#263238;stroke-linecap:round;stroke-linejoin:round;stroke-miterlimit:10;" x1="242.701" y1="347.021" x2="239.311" y2="282.622"/>
				
					<line style="fill:none;stroke:#263238;stroke-linecap:round;stroke-linejoin:round;stroke-miterlimit:10;" x1="184.656" y1="345.326" x2="190.588" y2="282.622"/>
			</g>
		</g>
		<g>
			<g>
				<g>
					<path style="fill:#FFFFFF;stroke:#263238;stroke-linecap:round;stroke-linejoin:round;stroke-miterlimit:10;" d="
						M218.9,262.852l-4.402-3.043c-6.156-4.256-11.131-10.489-14.331-17.955l-3.669-8.561h-0.551h-4.723h-0.551l-3.669,8.561
						c-3.2,7.466-8.175,13.7-14.331,17.955l-4.402,3.043c-2.461,1.701-3.97,4.791-3.97,8.129h26.923h4.723h26.923
						C222.87,267.643,221.361,264.553,218.9,262.852z M195.221,267.381h-3.271h-21.9c0-2.7,4.304-5.2,6.008-6.576l3.048-2.462
						c4.262-3.443,7.707-8.486,9.923-14.526l2.541-6.926h0.382h3.271h0.382l2.541,6.926c2.216,6.04,5.66,11.083,9.923,14.526
						l3.048,2.462c1.704,1.376,5.927,3.876,5.927,6.576H195.221z"/>
					<path style="fill:none;stroke:#263238;stroke-linecap:round;stroke-linejoin:round;stroke-miterlimit:10;" d="M193.551,233.152
						v-6.284c0,0,3.591-2.693,3.591-6.583c0-3.89-2.992-5.386-6.284-4.189"/>
				</g>
				<g>
					<path style="fill:#A1A1A1;stroke:#263238;stroke-linecap:round;stroke-linejoin:round;stroke-miterlimit:10;" d="
						M176.82,253.367c0,0,6.672,7.694,15.057,7.825c8.904,0.14,19.365-7.652,19.365-7.652s3.089,2.814,7.75,5.356
						c4.66,2.542,7.723,6.261,10.168,12.71c2.726,7.191,8.742,26.74,8.742,26.74l-17.325,0.848l2.373,39.294h-57.623l3.902-40.032
						H152.41c0,0,5.574-26.425,8.116-31.509C163.067,261.861,176.82,253.367,176.82,253.367z"/>
				</g>
			</g>
			
				<line style="fill:none;stroke:#263238;stroke-linecap:round;stroke-linejoin:round;stroke-miterlimit:10;" x1="169.23" y1="298.455" x2="170.111" y2="277.453"/>
			
				<line style="fill:none;stroke:#263238;stroke-linecap:round;stroke-linejoin:round;stroke-miterlimit:10;" x1="220.579" y1="299.193" x2="219.221" y2="278.797"/>
		</g>
		<g>
			<g>
				<g>
					<path style="fill:#FFFFFF;stroke:#263238;stroke-linecap:round;stroke-linejoin:round;stroke-miterlimit:10;" d="
						M203.058,262.852l-4.402-3.043c-6.156-4.256-11.131-10.489-14.331-17.955l-3.669-8.561h-0.551h-4.723h-0.551l-3.669,8.561
						c-3.2,7.466-8.175,13.7-14.331,17.955l-4.402,3.043c-2.461,1.701-3.97,4.791-3.97,8.129h26.923h4.723h26.923
						C207.028,267.643,205.519,264.553,203.058,262.852z M179.378,267.381h-3.27h-21.9c0-2.7,4.304-5.2,6.008-6.576l3.048-2.462
						c4.262-3.443,7.707-8.486,9.922-14.526l2.541-6.926h0.382h3.27h0.382l2.541,6.926c2.216,6.04,5.66,11.083,9.923,14.526
						l3.048,2.462c1.704,1.376,5.927,3.876,5.927,6.576H179.378z"/>
					<path style="fill:none;stroke:#263238;stroke-linecap:round;stroke-linejoin:round;stroke-miterlimit:10;" d="M177.709,233.152
						v-6.284c0,0,3.591-2.693,3.591-6.583c0-3.89-2.992-5.386-6.284-4.189"/>
				</g>
				<g>
					<path style="fill:#FFFFFF;stroke:#263238;stroke-linecap:round;stroke-linejoin:round;stroke-miterlimit:10;" d="
						M160.978,253.367c0,0,6.672,7.694,15.057,7.825c8.904,0.14,19.366-7.652,19.366-7.652s3.089,2.814,7.75,5.356
						c4.66,2.542,7.723,6.261,10.168,12.71c2.726,7.191,8.742,26.74,8.742,26.74l-17.325,0.848l2.373,39.294h-57.623l3.902-40.032
						h-16.821c0,0,5.574-26.425,8.116-31.509C147.225,261.861,160.978,253.367,160.978,253.367z"/>
				</g>
			</g>
			
				<line style="fill:none;stroke:#263238;stroke-linecap:round;stroke-linejoin:round;stroke-miterlimit:10;" x1="153.388" y1="298.455" x2="154.269" y2="277.453"/>
			
				<line style="fill:none;stroke:#263238;stroke-linecap:round;stroke-linejoin:round;stroke-miterlimit:10;" x1="204.737" y1="299.193" x2="203.379" y2="278.797"/>
		</g>
	</g>
	<g>
		<path style="fill:none;stroke:#263238;stroke-width:4;stroke-linejoin:round;stroke-miterlimit:10;" d="M219.967,461.112v-231.26
			c0-5.04-4.086-9.126-9.126-9.126H61.582c-5.04,0-9.126,4.086-9.126,9.126v230.9"/>
		<g>
			<g>
				<g>
					<path style="fill:#FFFFFF;stroke:#263238;stroke-linecap:round;stroke-linejoin:round;stroke-miterlimit:10;" d="
						M43.109,262.852l4.402-3.043c6.156-4.256,11.131-10.489,14.331-17.955l3.669-8.561h0.551h4.723h0.551l3.669,8.561
						c3.2,7.466,8.175,13.7,14.331,17.955l4.402,3.043c2.461,1.701,3.97,4.791,3.97,8.129H70.785h-4.723H39.138
						C39.138,267.643,40.647,264.553,43.109,262.852z M66.788,267.381h3.27h21.9c0-2.7-4.304-5.2-6.008-6.576l-3.048-2.462
						c-4.262-3.443-7.707-8.486-9.922-14.526l-2.541-6.926h-0.382h-3.27h-0.382l-2.541,6.926c-2.215,6.04-5.66,11.083-9.923,14.526
						l-3.048,2.462c-1.704,1.376-5.927,3.876-5.927,6.576H66.788z"/>
					<path style="fill:none;stroke:#263238;stroke-linecap:round;stroke-linejoin:round;stroke-miterlimit:10;" d="M68.457,233.152
						v-6.284c0,0-3.591-2.693-3.591-6.583c0-3.89,2.992-5.386,6.284-4.189"/>
				</g>
				<g>
					<path style="fill:#FFFFFF;stroke:#263238;stroke-linecap:round;stroke-linejoin:round;stroke-miterlimit:10;" d="
						M85.188,253.367c0,0-6.672,7.694-15.057,7.825c-8.904,0.14-19.366-7.652-19.366-7.652s-3.089,2.814-7.75,5.356
						c-4.66,2.542-7.724,6.261-10.168,12.71c-2.726,7.191-8.742,26.74-8.742,26.74l17.325,0.848l-2.373,39.294H96.68l-3.902-40.032
						h16.821c0,0-5.574-26.425-8.116-31.509C98.941,261.861,85.188,253.367,85.188,253.367z"/>
				</g>
			</g>
			
				<line style="fill:none;stroke:#263238;stroke-linecap:round;stroke-linejoin:round;stroke-miterlimit:10;" x1="92.778" y1="298.455" x2="91.897" y2="277.453"/>
			
				<line style="fill:none;stroke:#263238;stroke-linecap:round;stroke-linejoin:round;stroke-miterlimit:10;" x1="41.43" y1="299.193" x2="42.787" y2="278.797"/>
		</g>
		<g>
			<g>
				<g>
					<path style="fill:#FFFFFF;stroke:#263238;stroke-linecap:round;stroke-linejoin:round;stroke-miterlimit:10;" d="
						M52.078,262.852l4.402-3.043c6.156-4.256,11.131-10.489,14.331-17.955l3.669-8.561h0.551h4.723h0.551l3.669,8.561
						c3.2,7.466,8.175,13.7,14.331,17.955l4.402,3.043c2.461,1.701,3.97,4.791,3.97,8.129H79.755h-4.723H48.108
						C48.108,267.643,49.617,264.553,52.078,262.852z M75.758,267.381h3.27h21.9c0-2.7-4.304-5.2-6.008-6.576l-3.048-2.462
						c-4.262-3.443-7.707-8.486-9.922-14.526l-2.541-6.926h-0.382h-3.27h-0.381l-2.541,6.926c-2.215,6.04-5.66,11.083-9.923,14.526
						l-3.048,2.462c-1.704,1.376-5.927,3.876-5.927,6.576H75.758z"/>
					<path style="fill:none;stroke:#263238;stroke-linecap:round;stroke-linejoin:round;stroke-miterlimit:10;" d="M77.427,233.152
						v-6.284c0,0-3.591-2.693-3.591-6.583c0-3.89,2.992-5.386,6.284-4.189"/>
				</g>
				<g>
					<path style="fill:#6B6B6B;stroke:#263238;stroke-linecap:round;stroke-linejoin:round;stroke-miterlimit:10;" d="
						M94.158,253.367c0,0-6.672,7.694-15.057,7.825c-8.904,0.14-19.366-7.652-19.366-7.652s-3.089,2.814-7.75,5.356
						c-4.66,2.542-7.724,6.261-10.168,12.71c-2.726,7.191-8.742,26.74-8.742,26.74l17.325,0.848l-2.373,39.294h57.623l-3.902-40.032
						h16.821c0,0-5.574-26.425-8.116-31.509C107.911,261.861,94.158,253.367,94.158,253.367z"/>
				</g>
			</g>
			
				<line style="fill:none;stroke:#263238;stroke-linecap:round;stroke-linejoin:round;stroke-miterlimit:10;" x1="101.748" y1="298.455" x2="100.867" y2="277.453"/>
			
				<line style="fill:none;stroke:#263238;stroke-linecap:round;stroke-linejoin:round;stroke-miterlimit:10;" x1="50.4" y1="299.193" x2="51.757" y2="278.797"/>
		</g>
		<g>
			<polygon style="fill:#FFFFFF;stroke:#263238;stroke-linecap:round;stroke-linejoin:round;stroke-miterlimit:10;" points="
				101.644,242.271 86.034,243.018 86.034,309.881 104.57,309.881 			"/>
			<g>
				<path style="fill:#FFFFFF;stroke:#263238;stroke-linecap:round;stroke-linejoin:round;stroke-miterlimit:10;" d="M67.843,261.48
					l4.402-3.043c6.156-4.256,11.131-10.489,14.331-17.956l3.669-8.561h0.551h4.723h0.551l3.669,8.561
					c3.2,7.466,8.175,13.7,14.331,17.956l4.402,3.043c2.461,1.701,3.97,4.791,3.97,8.129H95.519h-4.723H63.873
					C63.873,266.272,65.382,263.182,67.843,261.48z M91.522,266.01h3.27h21.9c0-2.7-4.304-5.2-6.008-6.576l-3.048-2.462
					c-4.262-3.443-7.707-8.486-9.922-14.526l-2.541-6.926h-0.382h-3.27h-0.382l-2.541,6.926c-2.215,6.04-5.66,11.083-9.923,14.526
					l-3.048,2.462c-1.704,1.376-5.927,3.876-5.927,6.576H91.522z"/>
				<path style="fill:none;stroke:#263238;stroke-linecap:round;stroke-linejoin:round;stroke-miterlimit:10;" d="M93.191,231.781
					v-6.284c0,0-3.591-2.693-3.591-6.583c0-3.89,2.992-5.386,6.284-4.189"/>
			</g>
			<g>
				<path style="fill:#FFFFFF;stroke:#263238;stroke-linecap:round;stroke-linejoin:round;stroke-miterlimit:10;" d="
					M101.644,242.271l-6.779,59.665l-8.29-61.455c0,0-14.165,14.5-18.826,17.042c-4.661,2.542-8.897,5.932-10.168,12.711
					c-1.271,6.779-8.05,74.567-8.05,74.567l15.676,0.847l-1.416,38.337h63.274l-3.813-40.032h14.829c0,0-9.321-73.296-11.863-78.381
					C123.675,260.49,101.644,242.271,101.644,242.271z"/>
			</g>
			<path style="fill:#FFFFFF;stroke:#263238;stroke-linecap:round;stroke-linejoin:round;stroke-miterlimit:10;" d="
				M101.644,242.271l-8.328,63.637l1.986,2.648l18.536-54.947C113.838,253.61,107.986,244.173,101.644,242.271z"/>
			<path style="fill:#FFFFFF;stroke:#263238;stroke-linecap:round;stroke-linejoin:round;stroke-miterlimit:10;" d="M86.575,240.482
				l11.375,83.963l-25.818-71.497C72.132,252.948,86.657,239.068,86.575,240.482z"/>
			<path style="fill:#FFFFFF;stroke:#263238;stroke-linecap:round;stroke-linejoin:round;stroke-miterlimit:10;" d="
				M126.217,265.574c0,0,12.115,58.871,14.763,72.773c2.648,13.902,3.972,36.41,3.972,36.41l-23.17,0.662l-6.62-99.301"/>
			<path style="fill:#FFFFFF;stroke:#263238;stroke-linecap:round;stroke-linejoin:round;stroke-miterlimit:10;" d="M59.091,265.574
				c0,0-12.115,58.871-14.763,72.773c-2.648,13.902-3.972,36.41-3.972,36.41l23.17,0.662l6.62-99.301"/>
			
				<line style="fill:#FFFFFF;stroke:#263238;stroke-linecap:round;stroke-linejoin:round;stroke-miterlimit:10;" x1="97.95" y1="324.445" x2="97.95" y2="384.688"/>
		</g>
		<g>
			<g>
				<path style="fill:#FFFFFF;stroke:#263238;stroke-linecap:round;stroke-linejoin:round;stroke-miterlimit:10;" d="
					M92.527,262.852l4.402-3.043c6.156-4.256,11.131-10.489,14.331-17.955l3.669-8.561h0.551h4.723h0.551l3.669,8.561
					c3.2,7.466,8.175,13.7,14.331,17.955l4.402,3.043c2.461,1.701,3.97,4.791,3.97,8.129h-26.923h-4.723H88.557
					C88.557,267.643,90.066,264.553,92.527,262.852z M116.207,267.381h3.27h21.9c0-2.7-4.304-5.2-6.008-6.576l-3.048-2.462
					c-4.262-3.443-7.707-8.486-9.922-14.526l-2.541-6.926h-0.382h-3.27h-0.382l-2.54,6.926c-2.216,6.04-5.66,11.083-9.923,14.526
					l-3.048,2.462c-1.704,1.376-5.927,3.876-5.927,6.576H116.207z"/>
				<path style="fill:none;stroke:#263238;stroke-linecap:round;stroke-linejoin:round;stroke-miterlimit:10;" d="M117.876,233.152
					v-6.284c0,0-3.591-2.693-3.591-6.583c0-3.89,2.992-5.386,6.284-4.189"/>
			</g>
			<g>
				<path style="fill:#263238;stroke:#263238;stroke-linecap:round;stroke-linejoin:round;stroke-miterlimit:10;" d="
					M126.329,243.643l-6.779,19.489l-8.29-21.279c0,0-14.165,14.5-18.826,17.042c-4.66,2.542-8.897,5.932-10.168,12.71
					c-1.271,6.779-8.05,74.568-8.05,74.568l15.676,0.847l-1.416,38.337h63.274l-3.813-40.032h14.829c0,0-9.321-73.297-11.863-78.381
					C148.36,261.861,126.329,243.643,126.329,243.643z"/>
				<polygon style="fill:#FFFFFF;stroke:#263238;stroke-linecap:round;stroke-linejoin:round;stroke-miterlimit:10;" points="
					132.684,248.303 128.871,269.064 120.821,255.506 125.905,241.101 				"/>
				<polygon style="fill:#FFFFFF;stroke:#263238;stroke-linecap:round;stroke-linejoin:round;stroke-miterlimit:10;" points="
					111.26,241.854 118.279,255.93 111.076,269.911 105.145,246.609 				"/>
				
					<line style="fill:none;stroke:#263238;stroke-linecap:round;stroke-linejoin:round;stroke-miterlimit:10;" x1="89.892" y1="347.021" x2="93.282" y2="282.622"/>
				
					<line style="fill:none;stroke:#263238;stroke-linecap:round;stroke-linejoin:round;stroke-miterlimit:10;" x1="147.936" y1="345.326" x2="142.005" y2="282.622"/>
			</g>
		</g>
		<g>
			<g>
				<path style="fill:#FFFFFF;stroke:#263238;stroke-linecap:round;stroke-linejoin:round;stroke-miterlimit:10;" d="
					M115.485,262.852l4.402-3.043c6.156-4.256,11.131-10.489,14.331-17.955l3.669-8.561h0.551h4.723h0.551l3.669,8.561
					c3.2,7.466,8.175,13.7,14.331,17.955l4.402,3.043c2.461,1.701,3.97,4.791,3.97,8.129h-26.923h-4.723h-26.923
					C111.514,267.643,113.024,264.553,115.485,262.852z M139.164,267.381h3.27h21.9c0-2.7-4.304-5.2-6.008-6.576l-3.048-2.462
					c-4.262-3.443-7.707-8.486-9.923-14.526l-2.541-6.926h-0.382h-3.27h-0.382l-2.54,6.926c-2.216,6.04-5.661,11.083-9.923,14.526
					l-3.048,2.462c-1.704,1.376-5.926,3.876-5.926,6.576H139.164z"/>
				<path style="fill:none;stroke:#263238;stroke-linecap:round;stroke-linejoin:round;stroke-miterlimit:10;" d="M140.833,233.152
					v-6.284c0,0-3.591-2.693-3.591-6.583c0-3.89,2.992-5.386,6.284-4.189"/>
			</g>
			<g>
				<path style="fill:#6B6B6B;stroke:#263238;stroke-linecap:round;stroke-linejoin:round;stroke-miterlimit:10;" d="
					M149.286,243.643l-6.779,19.489l-8.29-21.279c0,0-14.165,14.5-18.826,17.042c-4.66,2.542-8.897,5.932-10.168,12.71
					c-1.271,6.779-8.05,74.568-8.05,74.568l15.676,0.847l-1.416,38.337h63.274l-3.813-40.032h14.829c0,0-9.321-73.297-11.863-78.381
					C171.317,261.861,149.286,243.643,149.286,243.643z"/>
				<polygon style="fill:#FFFFFF;stroke:#263238;stroke-linecap:round;stroke-linejoin:round;stroke-miterlimit:10;" points="
					155.641,248.303 151.828,269.064 143.778,255.506 148.862,241.101 				"/>
				<polygon style="fill:#FFFFFF;stroke:#263238;stroke-linecap:round;stroke-linejoin:round;stroke-miterlimit:10;" points="
					134.217,241.854 141.236,255.93 134.033,269.911 128.102,246.609 				"/>
				
					<line style="fill:none;stroke:#263238;stroke-linecap:round;stroke-linejoin:round;stroke-miterlimit:10;" x1="112.849" y1="347.021" x2="116.239" y2="282.622"/>
				
					<line style="fill:none;stroke:#263238;stroke-linecap:round;stroke-linejoin:round;stroke-miterlimit:10;" x1="170.894" y1="345.326" x2="164.962" y2="282.622"/>
			</g>
		</g>
		<g>
			<g>
				<g>
					<path style="fill:#FFFFFF;stroke:#263238;stroke-linecap:round;stroke-linejoin:round;stroke-miterlimit:10;" d="
						M136.65,262.852l4.402-3.043c6.156-4.256,11.131-10.489,14.331-17.955l3.669-8.561h0.551h4.723h0.551l3.669,8.561
						c3.2,7.466,8.175,13.7,14.331,17.955l4.402,3.043c2.461,1.701,3.97,4.791,3.97,8.129h-26.923h-4.723H132.68
						C132.68,267.643,134.189,264.553,136.65,262.852z M160.33,267.381h3.27h21.9c0-2.7-4.304-5.2-6.008-6.576l-3.048-2.462
						c-4.262-3.443-7.707-8.486-9.922-14.526l-2.541-6.926H163.6h-3.27h-0.382l-2.541,6.926c-2.215,6.04-5.66,11.083-9.923,14.526
						l-3.048,2.462c-1.704,1.376-5.927,3.876-5.927,6.576H160.33z"/>
					<path style="fill:none;stroke:#263238;stroke-linecap:round;stroke-linejoin:round;stroke-miterlimit:10;" d="M161.999,233.152
						v-6.284c0,0-3.591-2.693-3.591-6.583c0-3.89,2.992-5.386,6.284-4.189"/>
				</g>
				<g>
					<path style="fill:#A1A1A1;stroke:#263238;stroke-linecap:round;stroke-linejoin:round;stroke-miterlimit:10;" d="
						M178.73,253.367c0,0-6.672,7.694-15.057,7.825c-8.904,0.14-19.365-7.652-19.365-7.652s-3.089,2.814-7.75,5.356
						c-4.661,2.542-7.724,6.261-10.168,12.71c-2.726,7.191-8.742,26.74-8.742,26.74l17.325,0.848l-2.373,39.294h57.623
						l-3.902-40.032h16.821c0,0-5.574-26.425-8.116-31.509C192.483,261.861,178.73,253.367,178.73,253.367z"/>
				</g>
			</g>
			
				<line style="fill:none;stroke:#263238;stroke-linecap:round;stroke-linejoin:round;stroke-miterlimit:10;" x1="186.32" y1="298.455" x2="185.439" y2="277.453"/>
			
				<line style="fill:none;stroke:#263238;stroke-linecap:round;stroke-linejoin:round;stroke-miterlimit:10;" x1="134.971" y1="299.193" x2="136.329" y2="278.797"/>
		</g>
		<g>
			<g>
				<g>
					<path style="fill:#FFFFFF;stroke:#263238;stroke-linecap:round;stroke-linejoin:round;stroke-miterlimit:10;" d="
						M152.492,262.852l4.402-3.043c6.156-4.256,11.131-10.489,14.331-17.955l3.669-8.561h0.551h4.723h0.551l3.669,8.561
						c3.2,7.466,8.175,13.7,14.331,17.955l4.402,3.043c2.461,1.701,3.97,4.791,3.97,8.129h-26.923h-4.723h-26.923
						C148.522,267.643,150.031,264.553,152.492,262.852z M176.172,267.381h3.27h21.9c0-2.7-4.304-5.2-6.008-6.576l-3.048-2.462
						c-4.262-3.443-7.707-8.486-9.922-14.526l-2.541-6.926h-0.382h-3.27h-0.382l-2.541,6.926c-2.215,6.04-5.66,11.083-9.923,14.526
						l-3.048,2.462c-1.704,1.376-5.927,3.876-5.927,6.576H176.172z"/>
					<path style="fill:none;stroke:#263238;stroke-linecap:round;stroke-linejoin:round;stroke-miterlimit:10;" d="M177.841,233.152
						v-6.284c0,0-3.591-2.693-3.591-6.583c0-3.89,2.992-5.386,6.284-4.189"/>
				</g>
				<g>
					<path style="fill:#FFFFFF;stroke:#263238;stroke-linecap:round;stroke-linejoin:round;stroke-miterlimit:10;" d="
						M194.572,253.367c0,0-6.672,7.694-15.057,7.825c-8.904,0.14-19.365-7.652-19.365-7.652s-3.089,2.814-7.75,5.356
						c-4.661,2.542-7.724,6.261-10.168,12.71c-2.726,7.191-8.742,26.74-8.742,26.74l17.325,0.848l-2.373,39.294h57.623
						l-3.902-40.032h16.821c0,0-5.574-26.425-8.116-31.509C208.325,261.861,194.572,253.367,194.572,253.367z"/>
				</g>
			</g>
			
				<line style="fill:none;stroke:#263238;stroke-linecap:round;stroke-linejoin:round;stroke-miterlimit:10;" x1="202.162" y1="298.455" x2="201.281" y2="277.453"/>
			
				<line style="fill:none;stroke:#263238;stroke-linecap:round;stroke-linejoin:round;stroke-miterlimit:10;" x1="150.813" y1="299.193" x2="152.171" y2="278.797"/>
		</g>
	</g>
</g>
<g id="Character">
	<g>
		<g>
			<path style="fill:#FFFFFF;stroke:#263238;stroke-linecap:round;stroke-linejoin:round;stroke-miterlimit:10;" d="
				M282.473,268.943c0,0-2.05,38.069-1.171,48.025c0.879,9.957,3.807,25.477,4.1,29.577c0.293,4.1,3.514,14.935,5.271,21.963
				c1.757,7.028,14.056,43.047,16.692,49.782s2.814,26.521,2.814,26.521s-11.714,9.371-15.52,11.421
				c-3.807,2.05-5.564,1.171-4.978,3.807c0.586,2.636,20.791,0.293,25.477,0.293s11.714,0.879,12.006-2.343
				c0.293-3.221-3.514-13.471-4.393-18.156c-0.879-4.685-1.057-26.521-1.936-39.698c-0.878-13.178-0.878-22.548-5.271-33.676
				c-4.393-11.128-8.785-24.306-8.785-24.306l11.714-64.131L282.473,268.943z"/>
			<path style="fill:#263238;stroke:#263238;stroke-linecap:round;stroke-linejoin:round;stroke-miterlimit:10;" d="
				M309.364,435.832c-0.552-4.639-2.85-13.77-3.837-18.461c-1.49-7.077-13.098-41.835-14.855-48.863
				c-1.757-7.028-4.978-17.863-5.271-21.963c-0.293-4.1-3.221-19.62-4.1-29.577c-0.879-9.957,1.171-48.025,1.171-48.025
				l36.019,9.078l-11.713,64.131c0,0,4.393,13.178,8.785,24.306c4.393,11.128,4.393,20.499,5.271,33.676
				c0.679,10.18,0.657,27.24,1.336,34.698C319.536,435.812,315.19,436.77,309.364,435.832z"/>
			<path style="fill:#666666;stroke:#263238;stroke-linecap:round;stroke-linejoin:round;stroke-miterlimit:10;" d="
				M289.679,460.039c-0.586-2.635,1.171-1.757,4.978-3.807c2.908-1.566,10.427-7.401,13.816-10.07
				c0.974,0.34,2.035,0.911,2.583,1.871c1.171,2.05,1.464,3.221,1.464,3.221l12.862-1.871c1.034,3.579,1.927,6.984,1.78,8.606
				c-0.293,3.221-7.321,2.343-12.006,2.343S290.265,462.674,289.679,460.039z"/>
		</g>
		<g>
			<path style="fill:#FFFFFF;stroke:#263238;stroke-linecap:round;stroke-linejoin:round;stroke-miterlimit:10;" d="
				M345.433,273.629c0,0-2.05,18.449-8.785,35.141c-6.735,16.692-13.239,40.597-13.239,40.597s12.113,13.955,14.748,26.547
				c2.635,12.592,4.054,35.642,4.347,38.57c0.293,2.928,2.928,12.885,7.028,16.985c4.1,4.1,7.321,4.978,5.564,8.199
				c-1.757,3.221-11.421,15.52-13.178,17.57c-1.757,2.05-9.078,3.514-12.299,3.514s-1.171,0,0.293-4.978
				c1.464-4.978,3.221-18.742,3.221-23.134c0-4.393-5.271-20.792-11.128-30.748c-5.857-9.957-14.642-36.898-17.277-43.34
				c-2.636-6.442-6.15-11.714-6.15-15.813s3.221-43.34,3.807-50.368c0.586-7.028,1.464-14.935,1.464-14.935l42.461-7.614
				L345.433,273.629z"/>
			<path style="fill:#666666;stroke:#263238;stroke-linecap:round;stroke-linejoin:round;stroke-miterlimit:10;" d="M329.62,460.752
				c-3.221,0-1.171,0,0.293-4.978c1.297-4.41,2.823-15.707,3.155-21.284c0.881-0.763,4.198-3.445,6.216-2.435
				c2.343,1.171,3.514,2.928,3.514,2.928l5.35-5.192c0.441,0.625,0.902,1.195,1.386,1.678c4.1,4.1,7.321,4.978,5.564,8.199
				c-1.757,3.221-11.421,15.52-13.178,17.57C340.162,459.288,332.841,460.752,329.62,460.752z"/>
			<g>
				<path style="fill:#263238;stroke:#263238;stroke-linecap:round;stroke-linejoin:round;stroke-miterlimit:10;" d="
					M302.386,292.37c0.586-7.028,1.464-14.935,1.464-14.935l45.386-8.072l0.998,6.989c0,0-0.753,12.761-7.488,29.453
					c-6.735,16.692-19.337,43.561-19.337,43.561s12.113,13.955,14.748,26.547c2.635,12.592,4.054,35.642,4.347,38.57
					c0.137,1.371,0.794,4.287,1.868,7.418c-2.621,1.693-6.604,3.391-12.504,4.161c-1.907-6.958-5.738-17.159-9.862-24.17
					c-5.857-9.957-14.642-36.898-17.277-43.34c-2.636-6.442-6.15-11.714-6.15-15.813S301.8,299.398,302.386,292.37z"/>
				<path style="fill:none;stroke:#7D7D7D;stroke-linecap:round;stroke-linejoin:round;stroke-miterlimit:10;" d="M315.813,389.658
					c-5.091-12.749-12.848-27.028-15.411-36.752c-3.539-13.43,1.984-60.536,1.984-60.536"/>
				<path style="fill:none;stroke:#7D7D7D;stroke-linecap:round;stroke-linejoin:round;stroke-miterlimit:10;" d="M319.041,397.675
					c0,0-0.602-1.476-1.602-3.961"/>
			</g>
		</g>
		<path style="fill:#FFFFFF;stroke:#263238;stroke-linecap:round;stroke-linejoin:round;stroke-miterlimit:10;" d="M233.871,166.555
			c0,0-7.378-3.781-9.203-4.299c-1.825-0.517-2.864,1.16-2.155,1.642c0.708,0.482,1.864,1.373,1.864,1.373s-3.35-0.105-2.529,0.973
			c0.821,1.078,1.642,2.156,1.642,2.156s-2.977,0.565-2.229,1.903c0.747,1.338,2.833,1.93,2.833,1.93s-3.051,0.825-1.708,2.051
			c1.343,1.225,5.362,0.956,5.362,0.956s1.607,3.272,4.367,5.463c2.759,2.19,6.37,2.369,6.37,2.369l4.141,4.272l5.532-6.6
			L233.871,166.555z"/>
		<g>
			<g>
				<g>
					<g>
						<path style="fill:#FFFFFF;stroke:#263238;stroke-linecap:round;stroke-linejoin:round;stroke-miterlimit:10;" d="
							M172.266,160.825l5.479-2.615c7.663-3.657,14.36-9.742,19.29-17.528l5.654-8.928l0.617,0.099l5.291,0.852l0.617,0.099
							l2.566,10.251c2.238,8.94,6.687,16.82,12.815,22.697l4.382,4.202c2.45,2.35,3.583,6.083,2.982,9.821l-30.158-4.855
							l-5.291-0.852l-30.158-4.855C166.954,165.476,169.202,162.287,172.266,160.825z M197.973,170.168l3.663,0.59l24.531,3.949
							c0.487-3.024-3.883-6.6-5.544-8.449l-2.97-3.307c-4.153-4.625-7.103-10.895-8.495-18.06l-1.597-8.216l-0.427-0.069
							l-3.663-0.59l-0.427-0.069l-4.095,7.3c-3.571,6.366-8.339,11.394-13.734,14.482l-3.858,2.208
							c-2.157,1.234-7.337,3.273-7.824,6.297L197.973,170.168z"/>
						<path style="fill:none;stroke:#263238;stroke-linecap:round;stroke-linejoin:round;stroke-miterlimit:10;" d="
							M206.014,132.128l1.133-7.038c0,0-3.536-3.664-2.835-8.021c0.701-4.357,4.323-5.493,7.794-3.559"/>
					</g>
					<path style="fill:#92E3A9;stroke:#263238;stroke-linecap:round;stroke-linejoin:round;stroke-miterlimit:10;" d="
						M163.833,201.229l-11.458-2.776c0,0,2.469-22.11,6.819-29.673c3.901-6.783,8.003-10.397,13.682-12.404
						c5.679-2.007,9.647-4.602,9.647-4.602s10.313,10.615,20.312,12.064c9.417,1.365,18.277-6.05,18.277-6.05
						s13.873,11.995,15.804,18.148c1.931,6.153,3.409,36.758,3.409,36.758l-18.841-3.033l5.372,45.545l-0.507-0.082l0.507,1.256
						c0,0-6.077-3.029-17.82-1.854c-11.743,1.174-24.954,3.229-30.532,1.761c-5.578-1.468-22.861-7.984-22.861-7.984
						L163.833,201.229z"/>
				</g>
				
					<line style="fill:none;stroke:#263238;stroke-linecap:round;stroke-linejoin:round;stroke-miterlimit:10;" x1="221.482" y1="209.661" x2="220.19" y2="199.627"/>
				
					<line style="fill:none;stroke:#263238;stroke-linecap:round;stroke-linejoin:round;stroke-miterlimit:10;" x1="163.833" y1="201.229" x2="168.442" y2="177.026"/>
			</g>
			<path style="fill:none;stroke:#263238;stroke-linecap:round;stroke-linejoin:round;stroke-miterlimit:10;" d="M181.438,155.591
				c0,0-1.174,6.752-1.174,14.972"/>
			<path style="fill:none;stroke:#263238;stroke-linecap:round;stroke-linejoin:round;stroke-miterlimit:10;" d="M179.09,156.178
				c0,0-1.174,3.523-1.761,8.514"/>
			<path style="fill:none;stroke:#263238;stroke-linecap:round;stroke-linejoin:round;stroke-miterlimit:10;" d="M212.135,189.827
				c0.228,0.929,0.467,1.85,0.716,2.755"/>
			<path style="fill:none;stroke:#263238;stroke-linecap:round;stroke-linejoin:round;stroke-miterlimit:10;" d="M208.153,166.453
				c0,0,0.965,9.454,3.05,19.289"/>
			<path style="fill:none;stroke:#263238;stroke-linecap:round;stroke-linejoin:round;stroke-miterlimit:10;" d="M211.383,164.398
				c0,0,1.761,4.697,2.936,9.982"/>
			
				<line style="fill:none;stroke:#263238;stroke-linecap:round;stroke-linejoin:round;stroke-miterlimit:10;" x1="173.936" y1="243.761" x2="181.854" y2="185.073"/>
			
				<line style="fill:none;stroke:#263238;stroke-linecap:round;stroke-linejoin:round;stroke-miterlimit:10;" x1="172.734" y1="252.669" x2="173.197" y2="249.237"/>
			
				<line style="fill:none;stroke:#263238;stroke-linecap:round;stroke-linejoin:round;stroke-miterlimit:10;" x1="193.12" y1="163.614" x2="191.511" y2="192.584"/>
		</g>
		<path style="fill:#FFFFFF;stroke:#263238;stroke-linecap:round;stroke-linejoin:round;stroke-miterlimit:10;" d="M247.964,178.98
			c0,0-5.411-6.443-7.551-7.461c-2.14-1.017-9.066-2.374-11.651-3.904c-2.585-1.53-3.316-0.716-1.831,1.409
			c1.485,2.125,6.722,4.228,6.722,4.228s2.238,5.064,4.823,6.594c2.585,1.53,5.908,3.497,5.908,3.497L247.964,178.98z"/>
		<path style="fill:#666666;stroke:#263238;stroke-linecap:round;stroke-linejoin:round;stroke-miterlimit:10;" d="M300.756,178.552
			c0,0-10.316,0-11.833,2.731c-1.517,2.731-8.192,19.115-10.923,23.666c-2.731,4.551-2.731,5.765-2.731,5.765l-27.61-33.678
			l-9.709,8.192c0,0,32.161,53.4,34.589,54.31c2.427,0.91,17.294-11.226,19.115-12.136c1.82-0.91,11.833-44.601,11.833-44.601
			S305.914,180.373,300.756,178.552z"/>
		<g>
			<path style="fill:#FFFFFF;stroke:#263238;stroke-linecap:round;stroke-linejoin:round;stroke-miterlimit:10;" d="
				M299.542,183.103l33.982-8.799c0,0,5.158,28.52,5.158,40.96c0,12.44,8.647,59.62,8.647,59.62s-25.638,7.737-39.898,7.737
				c-14.26,0-23.362-5.158-23.362-5.158s6.978-23.969,7.282-37.016s-1.517-30.644,0-40.96
				C292.867,189.172,299.542,183.103,299.542,183.103z"/>
			<g>
				
					<line style="fill:none;stroke:#263238;stroke-linecap:round;stroke-linejoin:round;stroke-miterlimit:10;" x1="296.23" y1="224.593" x2="306.852" y2="239.464"/>
				
					<line style="fill:none;stroke:#263238;stroke-linecap:round;stroke-linejoin:round;stroke-miterlimit:10;" x1="307.248" y1="245.034" x2="308.711" y2="247.165"/>
				
					<line style="fill:none;stroke:#263238;stroke-linecap:round;stroke-linejoin:round;stroke-miterlimit:10;" x1="299.417" y1="233.622" x2="305.499" y2="242.485"/>
			</g>
		</g>
		<path style="fill:#666666;stroke:#263238;stroke-linecap:round;stroke-linejoin:round;stroke-miterlimit:10;" d="M290.44,190.689
			c0,0-0.91,3.337-2.124,8.799c-1.214,5.461-0.91,9.102-0.303,22.149s0,16.688-4.248,26.7
			c-4.248,10.013-15.911,35.727-15.911,35.727l10.619,9.709c0,0,9.539-24.501,13.18-39.671c3.641-15.17,3.337-36.106,4.551-46.422
			c1.214-10.316,11.226-26.7,11.226-26.7l2.124-3.641c0,0-3.641,1.214-8.799,1.214c-5.158,0-7.889,0.91-7.889,0.91"/>
		<path style="fill:#666666;stroke:#263238;stroke-linecap:round;stroke-linejoin:round;stroke-miterlimit:10;" d="M330.793,173.091
			c0,0-15.474,27.003-18.508,35.802c-3.034,8.799-0.91,13.957-0.303,20.025c0.607,6.068,9.248,69.379,9.248,69.379
			s20.025-6.068,28.217-9.102c8.192-3.034,10.923-6.372,10.923-6.372s-14.824-49.735-14.824-50.949
			c0-1.214,12.858-56.659,10.735-57.873C354.156,172.788,330.793,173.091,330.793,173.091z"/>
		<g>
			<path style="fill:#263238;stroke:#263238;stroke-linecap:round;stroke-linejoin:round;stroke-miterlimit:10;" d="
				M298.229,170.953c0,0,0.419,9.852-1.467,14.463s-4.192,6.498-4.192,6.498s8.385-4.192,11.529-7.546
				c3.144-3.354,6.288-9.013,6.288-9.013l-5.66-9.852L298.229,170.953z"/>
			<g>
				<path style="fill:#FFFFFF;stroke:#263238;stroke-linecap:round;stroke-linejoin:round;stroke-miterlimit:10;" d="
					M286.255,128.437c0,0-2.007,6.309-2.294,10.61c-0.287,4.301,1.258,5.216,0.971,7.797c-0.287,2.581-4.126,7.115-3.552,9.122
					c0.574,2.007,4.015,3.154,4.015,3.154s2.581,10.037,3.441,12.618c0.86,2.581,4.588,1.721,8.316,0.574
					c3.728-1.147,8.029-3.154,8.029-3.154l3.441,8.316l19.5-9.463l-8.316-32.978c0,0-11.471-8.89-18.64-8.89L286.255,128.437z"/>
				<polygon style="fill:#263238;stroke:#263238;stroke-linecap:round;stroke-linejoin:round;stroke-miterlimit:10;" points="
					305.181,169.158 309.886,166.025 307.09,171.897 				"/>
				<path style="fill:#263238;" d="M287.748,148.105c0,1.273,0.469,2.306,1.048,2.306s1.048-1.032,1.048-2.306
					c0-1.273-0.469-2.306-1.048-2.306S287.748,146.832,287.748,148.105z"/>
				<path style="fill:none;stroke:#263238;stroke-linecap:round;stroke-linejoin:round;stroke-miterlimit:10;" d="M292.36,143.494
					c0,0-2.725-4.821-6.288-1.887"/>
				<path style="fill:none;stroke:#263238;stroke-linecap:round;stroke-linejoin:round;stroke-miterlimit:10;" d="M295.085,159.634
					c0,0-2.838,3.619-6.079,1.887"/>
			</g>
			<path style="fill:#FFFFFF;stroke:#263238;stroke-linecap:round;stroke-linejoin:round;stroke-miterlimit:10;" d="
				M317.723,182.901c0,0-0.571,0.513-4.402,1.887c-5.375,1.927-7.127,0.629-7.127,0.629s-1.928-8.199-2.137-11.343
				c-0.21-3.144,0.679-2.645,6.33-3.539c6.312-0.999,15.866-4.889,17.333-4.889c1.467,0,2.371-0.142,2.371,1.745
				c0,1.887,1.887,8.804,1.887,8.804S324.431,180.805,317.723,182.901z"/>
			<path style="fill:#263238;stroke:#263238;stroke-linecap:round;stroke-linejoin:round;stroke-miterlimit:10;" d="M312.637,147.65
				c0,0-3.728,0-5.449-1.147c-1.721-1.147-2.294-3.728-2.294-3.728s-12.331-3.154-17.78-10.037
				c-5.449-6.882-9.176-7.456-6.596-10.61c2.581-3.154,20.36-8.316,26.096-10.61c5.735-2.294,14.338,1.434,22.368,8.03
				c8.03,6.596,7.743,7.456,8.89,15.772c1.147,8.316,8.89,37.28,8.89,37.28l-8.03,1.721c0,0-4.588,9.177-12.904,13.765
				c-8.316,4.588-13.191,5.162-13.191,5.162s6.596-14.625,6.596-27.243C319.233,153.386,312.637,147.65,312.637,147.65z"/>
			<path style="fill:#FFFFFF;stroke:#263238;stroke-linecap:round;stroke-linejoin:round;stroke-miterlimit:10;" d="
				M308.909,150.231c0,0,2.294-11.757,7.743-8.029c5.449,3.728-1.147,16.919-3.154,16.632c-2.007-0.287-3.728-2.581-3.728-2.581"/>
		</g>
		<path style="fill:#FFFFFF;stroke:#263238;stroke-linecap:round;stroke-linejoin:round;stroke-miterlimit:10;" d="M416.177,189.099
			c0,0,8.74-1.748,10.78-1.748c2.039,0,2.622,2.039,1.748,2.331c-0.874,0.291-2.331,0.874-2.331,0.874s3.496,0.874,2.331,1.748
			c-1.165,0.874-2.331,1.748-2.331,1.748s2.913,1.457,1.748,2.622c-1.165,1.165-3.496,1.165-3.496,1.165s2.913,1.748,1.165,2.622
			c-1.748,0.874-5.827-0.583-5.827-0.583s-2.622,2.913-6.118,4.37c-3.496,1.457-7.283,0.583-7.283,0.583l-5.535,3.205l-3.787-8.449
			L416.177,189.099z"/>
		<path style="fill:#666666;stroke:#263238;stroke-linecap:round;stroke-linejoin:round;stroke-miterlimit:10;" d="M345.054,174.001
			c0,0,7.889-2.124,11.226,0c3.337,2.124,4.248,20.025,4.248,20.025l10.013,23.363l28.217-19.115l9.102,13.35
			c0,0-36.106,33.072-39.14,34.285c-3.034,1.214-4.854,0-6.068-1.517c-1.214-1.517-23.059-38.533-23.059-38.533"/>
		<g>
			<polygon style="fill:#666666;stroke:#263238;stroke-linecap:round;stroke-linejoin:round;stroke-miterlimit:10;" points="
				431.664,207.321 413.953,208.168 413.953,284.027 434.983,284.027 			"/>
			<g>
				<path style="fill:#FFFFFF;stroke:#263238;stroke-linecap:round;stroke-linejoin:round;stroke-miterlimit:10;" d="
					M393.314,229.115l4.994-3.452c6.984-4.828,12.629-11.901,16.259-20.371l4.163-9.713h0.625h5.359h0.625l4.163,9.713
					c3.63,8.471,9.275,15.543,16.259,20.371l4.994,3.452c2.792,1.93,4.505,5.436,4.505,9.223h-30.546h-5.359H388.81
					C388.81,234.551,390.522,231.045,393.314,229.115z M420.18,234.253h3.71h24.847c0-3.063-4.883-5.899-6.816-7.461l-3.458-2.793
					c-4.836-3.906-8.744-9.627-11.258-16.48l-2.882-7.858h-0.433h-3.71h-0.433l-2.883,7.858c-2.514,6.853-6.422,12.574-11.258,16.48
					l-3.458,2.793c-1.933,1.562-6.724,4.398-6.724,7.461H420.18z"/>
				<path style="fill:none;stroke:#263238;stroke-linecap:round;stroke-linejoin:round;stroke-miterlimit:10;" d="M422.074,195.419
					v-7.129c0,0-4.074-3.055-4.074-7.469c0-4.413,3.395-6.111,7.129-4.753"/>
			</g>
			<g>
				<path style="fill:#92E3A9;stroke:#263238;stroke-linecap:round;stroke-linejoin:round;stroke-miterlimit:10;" d="
					M431.664,207.321l-7.691,67.693l-9.405-69.723c0,0-16.071,16.451-21.359,19.335c-5.288,2.884-10.094,6.73-11.536,14.421
					c-1.442,7.691-9.133,84.6-9.133,84.6l17.785,0.961l-1.607,43.495h71.787l-4.326-45.418h16.824c0,0-10.575-83.158-13.459-88.927
					C456.659,227.99,431.664,207.321,431.664,207.321z"/>
			</g>
			<path style="fill:#263238;stroke:#263238;stroke-linecap:round;stroke-linejoin:round;stroke-miterlimit:10;" d="
				M431.664,207.321l-9.448,72.2l2.253,3.004l21.03-62.34C445.498,220.185,438.859,209.478,431.664,207.321z"/>
			<path style="fill:#263238;stroke:#263238;stroke-linecap:round;stroke-linejoin:round;stroke-miterlimit:10;" d="
				M414.567,205.291l12.905,95.26l-29.292-81.116C398.181,219.434,414.66,203.687,414.567,205.291z"/>
			<path style="fill:#92E3A9;stroke:#263238;stroke-linecap:round;stroke-linejoin:round;stroke-miterlimit:10;" d="
				M459.543,233.759c0,0,13.745,66.792,16.75,82.565c3.004,15.773,4.506,41.309,4.506,41.309l-26.288,0.751l-7.511-112.662"/>
			<path style="fill:#263238;stroke:#263238;stroke-linecap:round;stroke-linejoin:round;stroke-miterlimit:10;" d="
				M454.036,360.241h27.35c0.625,0,1.132-0.507,1.132-1.132v-7.779c0-0.625-0.507-1.132-1.132-1.132h-27.35
				c-0.625,0-1.132,0.507-1.132,1.132v7.779C452.904,359.735,453.411,360.241,454.036,360.241z"/>
			<path style="fill:#92E3A9;stroke:#263238;stroke-linecap:round;stroke-linejoin:round;stroke-miterlimit:10;" d="
				M383.385,233.759c0,0-13.745,66.792-16.749,82.565c-3.004,15.773-4.507,41.309-4.507,41.309l26.288,0.751l7.511-112.662"/>
			<path style="fill:#263238;stroke:#263238;stroke-linecap:round;stroke-linejoin:round;stroke-miterlimit:10;" d="
				M361.334,360.241h27.35c0.625,0,1.132-0.507,1.132-1.132v-7.779c0-0.625-0.507-1.132-1.132-1.132h-27.35
				c-0.625,0-1.132,0.507-1.132,1.132v7.779C360.202,359.735,360.709,360.241,361.334,360.241z"/>
			
				<line style="fill:#FFFFFF;stroke:#263238;stroke-linecap:round;stroke-linejoin:round;stroke-miterlimit:10;" x1="427.473" y1="300.551" x2="427.473" y2="367.733"/>
		</g>
		<path style="fill:#FFFFFF;stroke:#263238;stroke-linecap:round;stroke-linejoin:round;stroke-miterlimit:10;" d="M401.877,197.674
			c2.773-2.393,6.194-7.791,7.442-8.298c2.196-0.892,9.188-1.844,11.857-3.222c2.669-1.377,3.352-0.522,1.746,1.513
			c-1.605,2.036-6.956,3.831-6.956,3.831s-2.528,4.926-5.197,6.303c-0.479,0.247-1.089,0.575-1.769,0.947"/>
	</g>
</g>
<g id="Floor">
	
		<line style="fill:none;stroke:#263238;stroke-linecap:round;stroke-linejoin:round;stroke-miterlimit:10;" x1="17" y1="461.026" x2="490" y2="461.026"/>
</g>
</svg>
